<?xml version="1.0" encoding="utf-8" standalone="no"?>
<!DOCTYPE svg PUBLIC "-//W3C//DTD SVG 1.1//EN"
  "http://www.w3.org/Graphics/SVG/1.1/DTD/svg11.dtd">
<svg xmlns:xlink="http://www.w3.org/1999/xlink" width="757.44pt" height="522.72pt" viewBox="0 0 757.44 522.72" xmlns="http://www.w3.org/2000/svg" version="1.1">
 <metadata>
  <rdf:RDF xmlns:dc="http://purl.org/dc/elements/1.1/" xmlns:cc="http://creativecommons.org/ns#" xmlns:rdf="http://www.w3.org/1999/02/22-rdf-syntax-ns#">
   <cc:Work>
    <dc:type rdf:resource="http://purl.org/dc/dcmitype/StillImage"/>
    <dc:date>2022-08-21T15:33:06.146846</dc:date>
    <dc:format>image/svg+xml</dc:format>
    <dc:creator>
     <cc:Agent>
      <dc:title>Matplotlib v3.5.2, https://matplotlib.org/</dc:title>
     </cc:Agent>
    </dc:creator>
   </cc:Work>
  </rdf:RDF>
 </metadata>
 <defs>
  <style type="text/css">*{stroke-linejoin: round; stroke-linecap: butt}</style>
 </defs>
 <g id="figure_1">
  <g id="patch_1">
   <path d="M 0 522.72 
L 757.44 522.72 
L 757.44 0 
L 0 0 
z
" style="fill: #ffffff"/>
  </g>
  <g id="axes_1">
   <g id="patch_2">
    <path d="M 94.68 465.2208 
L 681.696 465.2208 
L 681.696 62.7264 
L 94.68 62.7264 
z
" style="fill: #ffffff"/>
   </g>
   <g id="matplotlib.axis_1">
    <g id="xtick_1">
     <g id="line2d_1">
      <defs>
       <path id="mf2c22fbb44" d="M 0 0 
L 0 12 
" style="stroke: #262626; stroke-width: 2.5"/>
      </defs>
      <g>
       <use xlink:href="#mf2c22fbb44" x="121.362545" y="465.2208" style="fill: #262626; stroke: #262626; stroke-width: 2.5"/>
      </g>
     </g>
     <g id="text_1">
      <!-- 300 -->
      <g style="fill: #262626" transform="translate(103.011452 496.467988)scale(0.22 -0.22)">
       <defs>
        <path id="ArialMT-33" d="M 269 1209 
L 831 1284 
Q 928 806 1161 595 
Q 1394 384 1728 384 
Q 2125 384 2398 659 
Q 2672 934 2672 1341 
Q 2672 1728 2419 1979 
Q 2166 2231 1775 2231 
Q 1616 2231 1378 2169 
L 1441 2663 
Q 1497 2656 1531 2656 
Q 1891 2656 2178 2843 
Q 2466 3031 2466 3422 
Q 2466 3731 2256 3934 
Q 2047 4138 1716 4138 
Q 1388 4138 1169 3931 
Q 950 3725 888 3313 
L 325 3413 
Q 428 3978 793 4289 
Q 1159 4600 1703 4600 
Q 2078 4600 2393 4439 
Q 2709 4278 2876 4000 
Q 3044 3722 3044 3409 
Q 3044 3113 2884 2869 
Q 2725 2625 2413 2481 
Q 2819 2388 3044 2092 
Q 3269 1797 3269 1353 
Q 3269 753 2831 336 
Q 2394 -81 1725 -81 
Q 1122 -81 723 278 
Q 325 638 269 1209 
z
" transform="scale(0.015625)"/>
        <path id="ArialMT-30" d="M 266 2259 
Q 266 3072 433 3567 
Q 600 4063 929 4331 
Q 1259 4600 1759 4600 
Q 2128 4600 2406 4451 
Q 2684 4303 2865 4023 
Q 3047 3744 3150 3342 
Q 3253 2941 3253 2259 
Q 3253 1453 3087 958 
Q 2922 463 2592 192 
Q 2263 -78 1759 -78 
Q 1097 -78 719 397 
Q 266 969 266 2259 
z
M 844 2259 
Q 844 1131 1108 757 
Q 1372 384 1759 384 
Q 2147 384 2411 759 
Q 2675 1134 2675 2259 
Q 2675 3391 2411 3762 
Q 2147 4134 1753 4134 
Q 1366 4134 1134 3806 
Q 844 3388 844 2259 
z
" transform="scale(0.015625)"/>
       </defs>
       <use xlink:href="#ArialMT-33"/>
       <use xlink:href="#ArialMT-30" x="55.615234"/>
       <use xlink:href="#ArialMT-30" x="111.230469"/>
      </g>
     </g>
    </g>
    <g id="xtick_2">
     <g id="line2d_2">
      <g>
       <use xlink:href="#mf2c22fbb44" x="174.727636" y="465.2208" style="fill: #262626; stroke: #262626; stroke-width: 2.5"/>
      </g>
     </g>
     <g id="text_2">
      <!-- 350 -->
      <g style="fill: #262626" transform="translate(156.376543 496.467988)scale(0.22 -0.22)">
       <defs>
        <path id="ArialMT-35" d="M 266 1200 
L 856 1250 
Q 922 819 1161 601 
Q 1400 384 1738 384 
Q 2144 384 2425 690 
Q 2706 997 2706 1503 
Q 2706 1984 2436 2262 
Q 2166 2541 1728 2541 
Q 1456 2541 1237 2417 
Q 1019 2294 894 2097 
L 366 2166 
L 809 4519 
L 3088 4519 
L 3088 3981 
L 1259 3981 
L 1013 2750 
Q 1425 3038 1878 3038 
Q 2478 3038 2890 2622 
Q 3303 2206 3303 1553 
Q 3303 931 2941 478 
Q 2500 -78 1738 -78 
Q 1113 -78 717 272 
Q 322 622 266 1200 
z
" transform="scale(0.015625)"/>
       </defs>
       <use xlink:href="#ArialMT-33"/>
       <use xlink:href="#ArialMT-35" x="55.615234"/>
       <use xlink:href="#ArialMT-30" x="111.230469"/>
      </g>
     </g>
    </g>
    <g id="xtick_3">
     <g id="line2d_3">
      <g>
       <use xlink:href="#mf2c22fbb44" x="228.092727" y="465.2208" style="fill: #262626; stroke: #262626; stroke-width: 2.5"/>
      </g>
     </g>
     <g id="text_3">
      <!-- 400 -->
      <g style="fill: #262626" transform="translate(209.741634 496.467988)scale(0.22 -0.22)">
       <defs>
        <path id="ArialMT-34" d="M 2069 0 
L 2069 1097 
L 81 1097 
L 81 1613 
L 2172 4581 
L 2631 4581 
L 2631 1613 
L 3250 1613 
L 3250 1097 
L 2631 1097 
L 2631 0 
L 2069 0 
z
M 2069 1613 
L 2069 3678 
L 634 1613 
L 2069 1613 
z
" transform="scale(0.015625)"/>
       </defs>
       <use xlink:href="#ArialMT-34"/>
       <use xlink:href="#ArialMT-30" x="55.615234"/>
       <use xlink:href="#ArialMT-30" x="111.230469"/>
      </g>
     </g>
    </g>
    <g id="xtick_4">
     <g id="line2d_4">
      <g>
       <use xlink:href="#mf2c22fbb44" x="281.457818" y="465.2208" style="fill: #262626; stroke: #262626; stroke-width: 2.5"/>
      </g>
     </g>
     <g id="text_4">
      <!-- 450 -->
      <g style="fill: #262626" transform="translate(263.106724 496.467988)scale(0.22 -0.22)">
       <use xlink:href="#ArialMT-34"/>
       <use xlink:href="#ArialMT-35" x="55.615234"/>
       <use xlink:href="#ArialMT-30" x="111.230469"/>
      </g>
     </g>
    </g>
    <g id="xtick_5">
     <g id="line2d_5">
      <g>
       <use xlink:href="#mf2c22fbb44" x="334.822909" y="465.2208" style="fill: #262626; stroke: #262626; stroke-width: 2.5"/>
      </g>
     </g>
     <g id="text_5">
      <!-- 500 -->
      <g style="fill: #262626" transform="translate(316.471815 496.467988)scale(0.22 -0.22)">
       <use xlink:href="#ArialMT-35"/>
       <use xlink:href="#ArialMT-30" x="55.615234"/>
       <use xlink:href="#ArialMT-30" x="111.230469"/>
      </g>
     </g>
    </g>
    <g id="xtick_6">
     <g id="line2d_6">
      <g>
       <use xlink:href="#mf2c22fbb44" x="388.188" y="465.2208" style="fill: #262626; stroke: #262626; stroke-width: 2.5"/>
      </g>
     </g>
     <g id="text_6">
      <!-- 550 -->
      <g style="fill: #262626" transform="translate(369.836906 496.467988)scale(0.22 -0.22)">
       <use xlink:href="#ArialMT-35"/>
       <use xlink:href="#ArialMT-35" x="55.615234"/>
       <use xlink:href="#ArialMT-30" x="111.230469"/>
      </g>
     </g>
    </g>
    <g id="xtick_7">
     <g id="line2d_7">
      <g>
       <use xlink:href="#mf2c22fbb44" x="441.553091" y="465.2208" style="fill: #262626; stroke: #262626; stroke-width: 2.5"/>
      </g>
     </g>
     <g id="text_7">
      <!-- 600 -->
      <g style="fill: #262626" transform="translate(423.201997 496.467988)scale(0.22 -0.22)">
       <defs>
        <path id="ArialMT-36" d="M 3184 3459 
L 2625 3416 
Q 2550 3747 2413 3897 
Q 2184 4138 1850 4138 
Q 1581 4138 1378 3988 
Q 1113 3794 959 3422 
Q 806 3050 800 2363 
Q 1003 2672 1297 2822 
Q 1591 2972 1913 2972 
Q 2475 2972 2870 2558 
Q 3266 2144 3266 1488 
Q 3266 1056 3080 686 
Q 2894 316 2569 119 
Q 2244 -78 1831 -78 
Q 1128 -78 684 439 
Q 241 956 241 2144 
Q 241 3472 731 4075 
Q 1159 4600 1884 4600 
Q 2425 4600 2770 4297 
Q 3116 3994 3184 3459 
z
M 888 1484 
Q 888 1194 1011 928 
Q 1134 663 1356 523 
Q 1578 384 1822 384 
Q 2178 384 2434 671 
Q 2691 959 2691 1453 
Q 2691 1928 2437 2201 
Q 2184 2475 1800 2475 
Q 1419 2475 1153 2201 
Q 888 1928 888 1484 
z
" transform="scale(0.015625)"/>
       </defs>
       <use xlink:href="#ArialMT-36"/>
       <use xlink:href="#ArialMT-30" x="55.615234"/>
       <use xlink:href="#ArialMT-30" x="111.230469"/>
      </g>
     </g>
    </g>
    <g id="xtick_8">
     <g id="line2d_8">
      <g>
       <use xlink:href="#mf2c22fbb44" x="494.918182" y="465.2208" style="fill: #262626; stroke: #262626; stroke-width: 2.5"/>
      </g>
     </g>
     <g id="text_8">
      <!-- 650 -->
      <g style="fill: #262626" transform="translate(476.567088 496.467988)scale(0.22 -0.22)">
       <use xlink:href="#ArialMT-36"/>
       <use xlink:href="#ArialMT-35" x="55.615234"/>
       <use xlink:href="#ArialMT-30" x="111.230469"/>
      </g>
     </g>
    </g>
    <g id="xtick_9">
     <g id="line2d_9">
      <g>
       <use xlink:href="#mf2c22fbb44" x="548.283273" y="465.2208" style="fill: #262626; stroke: #262626; stroke-width: 2.5"/>
      </g>
     </g>
     <g id="text_9">
      <!-- 700 -->
      <g style="fill: #262626" transform="translate(529.932179 496.467988)scale(0.22 -0.22)">
       <defs>
        <path id="ArialMT-37" d="M 303 3981 
L 303 4522 
L 3269 4522 
L 3269 4084 
Q 2831 3619 2401 2847 
Q 1972 2075 1738 1259 
Q 1569 684 1522 0 
L 944 0 
Q 953 541 1156 1306 
Q 1359 2072 1739 2783 
Q 2119 3494 2547 3981 
L 303 3981 
z
" transform="scale(0.015625)"/>
       </defs>
       <use xlink:href="#ArialMT-37"/>
       <use xlink:href="#ArialMT-30" x="55.615234"/>
       <use xlink:href="#ArialMT-30" x="111.230469"/>
      </g>
     </g>
    </g>
    <g id="xtick_10">
     <g id="line2d_10">
      <g>
       <use xlink:href="#mf2c22fbb44" x="601.648364" y="465.2208" style="fill: #262626; stroke: #262626; stroke-width: 2.5"/>
      </g>
     </g>
     <g id="text_10">
      <!-- 750 -->
      <g style="fill: #262626" transform="translate(583.29727 496.467988)scale(0.22 -0.22)">
       <use xlink:href="#ArialMT-37"/>
       <use xlink:href="#ArialMT-35" x="55.615234"/>
       <use xlink:href="#ArialMT-30" x="111.230469"/>
      </g>
     </g>
    </g>
    <g id="xtick_11">
     <g id="line2d_11">
      <g>
       <use xlink:href="#mf2c22fbb44" x="655.013455" y="465.2208" style="fill: #262626; stroke: #262626; stroke-width: 2.5"/>
      </g>
     </g>
     <g id="text_11">
      <!-- 800 -->
      <g style="fill: #262626" transform="translate(636.662361 496.467988)scale(0.22 -0.22)">
       <defs>
        <path id="ArialMT-38" d="M 1131 2484 
Q 781 2613 612 2850 
Q 444 3088 444 3419 
Q 444 3919 803 4259 
Q 1163 4600 1759 4600 
Q 2359 4600 2725 4251 
Q 3091 3903 3091 3403 
Q 3091 3084 2923 2848 
Q 2756 2613 2416 2484 
Q 2838 2347 3058 2040 
Q 3278 1734 3278 1309 
Q 3278 722 2862 322 
Q 2447 -78 1769 -78 
Q 1091 -78 675 323 
Q 259 725 259 1325 
Q 259 1772 486 2073 
Q 713 2375 1131 2484 
z
M 1019 3438 
Q 1019 3113 1228 2906 
Q 1438 2700 1772 2700 
Q 2097 2700 2305 2904 
Q 2513 3109 2513 3406 
Q 2513 3716 2298 3927 
Q 2084 4138 1766 4138 
Q 1444 4138 1231 3931 
Q 1019 3725 1019 3438 
z
M 838 1322 
Q 838 1081 952 856 
Q 1066 631 1291 507 
Q 1516 384 1775 384 
Q 2178 384 2440 643 
Q 2703 903 2703 1303 
Q 2703 1709 2433 1975 
Q 2163 2241 1756 2241 
Q 1359 2241 1098 1978 
Q 838 1716 838 1322 
z
" transform="scale(0.015625)"/>
       </defs>
       <use xlink:href="#ArialMT-38"/>
       <use xlink:href="#ArialMT-30" x="55.615234"/>
       <use xlink:href="#ArialMT-30" x="111.230469"/>
      </g>
     </g>
    </g>
    <g id="text_12">
     <!-- distance -->
     <g style="fill: #262626" transform="translate(343.4955 522.019238)scale(0.24 -0.24)">
      <defs>
       <path id="ArialMT-64" d="M 2575 0 
L 2575 419 
Q 2259 -75 1647 -75 
Q 1250 -75 917 144 
Q 584 363 401 755 
Q 219 1147 219 1656 
Q 219 2153 384 2558 
Q 550 2963 881 3178 
Q 1213 3394 1622 3394 
Q 1922 3394 2156 3267 
Q 2391 3141 2538 2938 
L 2538 4581 
L 3097 4581 
L 3097 0 
L 2575 0 
z
M 797 1656 
Q 797 1019 1065 703 
Q 1334 388 1700 388 
Q 2069 388 2326 689 
Q 2584 991 2584 1609 
Q 2584 2291 2321 2609 
Q 2059 2928 1675 2928 
Q 1300 2928 1048 2622 
Q 797 2316 797 1656 
z
" transform="scale(0.015625)"/>
       <path id="ArialMT-69" d="M 425 3934 
L 425 4581 
L 988 4581 
L 988 3934 
L 425 3934 
z
M 425 0 
L 425 3319 
L 988 3319 
L 988 0 
L 425 0 
z
" transform="scale(0.015625)"/>
       <path id="ArialMT-73" d="M 197 991 
L 753 1078 
Q 800 744 1014 566 
Q 1228 388 1613 388 
Q 2000 388 2187 545 
Q 2375 703 2375 916 
Q 2375 1106 2209 1216 
Q 2094 1291 1634 1406 
Q 1016 1563 777 1677 
Q 538 1791 414 1992 
Q 291 2194 291 2438 
Q 291 2659 392 2848 
Q 494 3038 669 3163 
Q 800 3259 1026 3326 
Q 1253 3394 1513 3394 
Q 1903 3394 2198 3281 
Q 2494 3169 2634 2976 
Q 2775 2784 2828 2463 
L 2278 2388 
Q 2241 2644 2061 2787 
Q 1881 2931 1553 2931 
Q 1166 2931 1000 2803 
Q 834 2675 834 2503 
Q 834 2394 903 2306 
Q 972 2216 1119 2156 
Q 1203 2125 1616 2013 
Q 2213 1853 2448 1751 
Q 2684 1650 2818 1456 
Q 2953 1263 2953 975 
Q 2953 694 2789 445 
Q 2625 197 2315 61 
Q 2006 -75 1616 -75 
Q 969 -75 630 194 
Q 291 463 197 991 
z
" transform="scale(0.015625)"/>
       <path id="ArialMT-74" d="M 1650 503 
L 1731 6 
Q 1494 -44 1306 -44 
Q 1000 -44 831 53 
Q 663 150 594 308 
Q 525 466 525 972 
L 525 2881 
L 113 2881 
L 113 3319 
L 525 3319 
L 525 4141 
L 1084 4478 
L 1084 3319 
L 1650 3319 
L 1650 2881 
L 1084 2881 
L 1084 941 
Q 1084 700 1114 631 
Q 1144 563 1211 522 
Q 1278 481 1403 481 
Q 1497 481 1650 503 
z
" transform="scale(0.015625)"/>
       <path id="ArialMT-61" d="M 2588 409 
Q 2275 144 1986 34 
Q 1697 -75 1366 -75 
Q 819 -75 525 192 
Q 231 459 231 875 
Q 231 1119 342 1320 
Q 453 1522 633 1644 
Q 813 1766 1038 1828 
Q 1203 1872 1538 1913 
Q 2219 1994 2541 2106 
Q 2544 2222 2544 2253 
Q 2544 2597 2384 2738 
Q 2169 2928 1744 2928 
Q 1347 2928 1158 2789 
Q 969 2650 878 2297 
L 328 2372 
Q 403 2725 575 2942 
Q 747 3159 1072 3276 
Q 1397 3394 1825 3394 
Q 2250 3394 2515 3294 
Q 2781 3194 2906 3042 
Q 3031 2891 3081 2659 
Q 3109 2516 3109 2141 
L 3109 1391 
Q 3109 606 3145 398 
Q 3181 191 3288 0 
L 2700 0 
Q 2613 175 2588 409 
z
M 2541 1666 
Q 2234 1541 1622 1453 
Q 1275 1403 1131 1340 
Q 988 1278 909 1158 
Q 831 1038 831 891 
Q 831 666 1001 516 
Q 1172 366 1500 366 
Q 1825 366 2078 508 
Q 2331 650 2450 897 
Q 2541 1088 2541 1459 
L 2541 1666 
z
" transform="scale(0.015625)"/>
       <path id="ArialMT-6e" d="M 422 0 
L 422 3319 
L 928 3319 
L 928 2847 
Q 1294 3394 1984 3394 
Q 2284 3394 2536 3286 
Q 2788 3178 2913 3003 
Q 3038 2828 3088 2588 
Q 3119 2431 3119 2041 
L 3119 0 
L 2556 0 
L 2556 2019 
Q 2556 2363 2490 2533 
Q 2425 2703 2258 2804 
Q 2091 2906 1866 2906 
Q 1506 2906 1245 2678 
Q 984 2450 984 1813 
L 984 0 
L 422 0 
z
" transform="scale(0.015625)"/>
       <path id="ArialMT-63" d="M 2588 1216 
L 3141 1144 
Q 3050 572 2676 248 
Q 2303 -75 1759 -75 
Q 1078 -75 664 370 
Q 250 816 250 1647 
Q 250 2184 428 2587 
Q 606 2991 970 3192 
Q 1334 3394 1763 3394 
Q 2303 3394 2647 3120 
Q 2991 2847 3088 2344 
L 2541 2259 
Q 2463 2594 2264 2762 
Q 2066 2931 1784 2931 
Q 1359 2931 1093 2626 
Q 828 2322 828 1663 
Q 828 994 1084 691 
Q 1341 388 1753 388 
Q 2084 388 2306 591 
Q 2528 794 2588 1216 
z
" transform="scale(0.015625)"/>
       <path id="ArialMT-65" d="M 2694 1069 
L 3275 997 
Q 3138 488 2766 206 
Q 2394 -75 1816 -75 
Q 1088 -75 661 373 
Q 234 822 234 1631 
Q 234 2469 665 2931 
Q 1097 3394 1784 3394 
Q 2450 3394 2872 2941 
Q 3294 2488 3294 1666 
Q 3294 1616 3291 1516 
L 816 1516 
Q 847 969 1125 678 
Q 1403 388 1819 388 
Q 2128 388 2347 550 
Q 2566 713 2694 1069 
z
M 847 1978 
L 2700 1978 
Q 2663 2397 2488 2606 
Q 2219 2931 1791 2931 
Q 1403 2931 1139 2672 
Q 875 2413 847 1978 
z
" transform="scale(0.015625)"/>
      </defs>
      <use xlink:href="#ArialMT-64"/>
      <use xlink:href="#ArialMT-69" x="55.615234"/>
      <use xlink:href="#ArialMT-73" x="77.832031"/>
      <use xlink:href="#ArialMT-74" x="127.832031"/>
      <use xlink:href="#ArialMT-61" x="155.615234"/>
      <use xlink:href="#ArialMT-6e" x="211.230469"/>
      <use xlink:href="#ArialMT-63" x="266.845703"/>
      <use xlink:href="#ArialMT-65" x="316.845703"/>
     </g>
    </g>
   </g>
   <g id="matplotlib.axis_2">
    <g id="ytick_1">
     <g id="line2d_12">
      <defs>
       <path id="m35d55e8a8f" d="M 0 0 
L -12 0 
" style="stroke: #262626; stroke-width: 2.5"/>
      </defs>
      <g>
       <use xlink:href="#m35d55e8a8f" x="94.68" y="448.245217" style="fill: #262626; stroke: #262626; stroke-width: 2.5"/>
      </g>
     </g>
     <g id="text_13">
      <!-- −0.07 -->
      <g style="fill: #262626" transform="translate(23.516562 456.118811)scale(0.22 -0.22)">
       <defs>
        <path id="ArialMT-2212" d="M 3381 1997 
L 356 1997 
L 356 2522 
L 3381 2522 
L 3381 1997 
z
" transform="scale(0.015625)"/>
        <path id="ArialMT-2e" d="M 581 0 
L 581 641 
L 1222 641 
L 1222 0 
L 581 0 
z
" transform="scale(0.015625)"/>
       </defs>
       <use xlink:href="#ArialMT-2212"/>
       <use xlink:href="#ArialMT-30" x="58.398438"/>
       <use xlink:href="#ArialMT-2e" x="114.013672"/>
       <use xlink:href="#ArialMT-30" x="141.796875"/>
       <use xlink:href="#ArialMT-37" x="197.412109"/>
      </g>
     </g>
    </g>
    <g id="ytick_2">
     <g id="line2d_13">
      <g>
       <use xlink:href="#m35d55e8a8f" x="94.68" y="379.479204" style="fill: #262626; stroke: #262626; stroke-width: 2.5"/>
      </g>
     </g>
     <g id="text_14">
      <!-- −0.06 -->
      <g style="fill: #262626" transform="translate(23.516562 387.352798)scale(0.22 -0.22)">
       <use xlink:href="#ArialMT-2212"/>
       <use xlink:href="#ArialMT-30" x="58.398438"/>
       <use xlink:href="#ArialMT-2e" x="114.013672"/>
       <use xlink:href="#ArialMT-30" x="141.796875"/>
       <use xlink:href="#ArialMT-36" x="197.412109"/>
      </g>
     </g>
    </g>
    <g id="ytick_3">
     <g id="line2d_14">
      <g>
       <use xlink:href="#m35d55e8a8f" x="94.68" y="310.713191" style="fill: #262626; stroke: #262626; stroke-width: 2.5"/>
      </g>
     </g>
     <g id="text_15">
      <!-- −0.05 -->
      <g style="fill: #262626" transform="translate(23.516562 318.586785)scale(0.22 -0.22)">
       <use xlink:href="#ArialMT-2212"/>
       <use xlink:href="#ArialMT-30" x="58.398438"/>
       <use xlink:href="#ArialMT-2e" x="114.013672"/>
       <use xlink:href="#ArialMT-30" x="141.796875"/>
       <use xlink:href="#ArialMT-35" x="197.412109"/>
      </g>
     </g>
    </g>
    <g id="ytick_4">
     <g id="line2d_15">
      <g>
       <use xlink:href="#m35d55e8a8f" x="94.68" y="241.947178" style="fill: #262626; stroke: #262626; stroke-width: 2.5"/>
      </g>
     </g>
     <g id="text_16">
      <!-- −0.04 -->
      <g style="fill: #262626" transform="translate(23.516562 249.820772)scale(0.22 -0.22)">
       <use xlink:href="#ArialMT-2212"/>
       <use xlink:href="#ArialMT-30" x="58.398438"/>
       <use xlink:href="#ArialMT-2e" x="114.013672"/>
       <use xlink:href="#ArialMT-30" x="141.796875"/>
       <use xlink:href="#ArialMT-34" x="197.412109"/>
      </g>
     </g>
    </g>
    <g id="ytick_5">
     <g id="line2d_16">
      <g>
       <use xlink:href="#m35d55e8a8f" x="94.68" y="173.181165" style="fill: #262626; stroke: #262626; stroke-width: 2.5"/>
      </g>
     </g>
     <g id="text_17">
      <!-- −0.03 -->
      <g style="fill: #262626" transform="translate(23.516562 181.054759)scale(0.22 -0.22)">
       <use xlink:href="#ArialMT-2212"/>
       <use xlink:href="#ArialMT-30" x="58.398438"/>
       <use xlink:href="#ArialMT-2e" x="114.013672"/>
       <use xlink:href="#ArialMT-30" x="141.796875"/>
       <use xlink:href="#ArialMT-33" x="197.412109"/>
      </g>
     </g>
    </g>
    <g id="ytick_6">
     <g id="line2d_17">
      <g>
       <use xlink:href="#m35d55e8a8f" x="94.68" y="104.415152" style="fill: #262626; stroke: #262626; stroke-width: 2.5"/>
      </g>
     </g>
     <g id="text_18">
      <!-- −0.02 -->
      <g style="fill: #262626" transform="translate(23.516562 112.288746)scale(0.22 -0.22)">
       <defs>
        <path id="ArialMT-32" d="M 3222 541 
L 3222 0 
L 194 0 
Q 188 203 259 391 
Q 375 700 629 1000 
Q 884 1300 1366 1694 
Q 2113 2306 2375 2664 
Q 2638 3022 2638 3341 
Q 2638 3675 2398 3904 
Q 2159 4134 1775 4134 
Q 1369 4134 1125 3890 
Q 881 3647 878 3216 
L 300 3275 
Q 359 3922 746 4261 
Q 1134 4600 1788 4600 
Q 2447 4600 2831 4234 
Q 3216 3869 3216 3328 
Q 3216 3053 3103 2787 
Q 2991 2522 2730 2228 
Q 2469 1934 1863 1422 
Q 1356 997 1212 845 
Q 1069 694 975 541 
L 3222 541 
z
" transform="scale(0.015625)"/>
       </defs>
       <use xlink:href="#ArialMT-2212"/>
       <use xlink:href="#ArialMT-30" x="58.398438"/>
       <use xlink:href="#ArialMT-2e" x="114.013672"/>
       <use xlink:href="#ArialMT-30" x="141.796875"/>
       <use xlink:href="#ArialMT-32" x="197.412109"/>
      </g>
     </g>
    </g>
    <g id="text_19">
     <!-- voltage -->
     <g style="fill: #262626" transform="translate(14.465312 302.6661)rotate(-90)scale(0.24 -0.24)">
      <defs>
       <path id="ArialMT-76" d="M 1344 0 
L 81 3319 
L 675 3319 
L 1388 1331 
Q 1503 1009 1600 663 
Q 1675 925 1809 1294 
L 2547 3319 
L 3125 3319 
L 1869 0 
L 1344 0 
z
" transform="scale(0.015625)"/>
       <path id="ArialMT-6f" d="M 213 1659 
Q 213 2581 725 3025 
Q 1153 3394 1769 3394 
Q 2453 3394 2887 2945 
Q 3322 2497 3322 1706 
Q 3322 1066 3130 698 
Q 2938 331 2570 128 
Q 2203 -75 1769 -75 
Q 1072 -75 642 372 
Q 213 819 213 1659 
z
M 791 1659 
Q 791 1022 1069 705 
Q 1347 388 1769 388 
Q 2188 388 2466 706 
Q 2744 1025 2744 1678 
Q 2744 2294 2464 2611 
Q 2184 2928 1769 2928 
Q 1347 2928 1069 2612 
Q 791 2297 791 1659 
z
" transform="scale(0.015625)"/>
       <path id="ArialMT-6c" d="M 409 0 
L 409 4581 
L 972 4581 
L 972 0 
L 409 0 
z
" transform="scale(0.015625)"/>
       <path id="ArialMT-67" d="M 319 -275 
L 866 -356 
Q 900 -609 1056 -725 
Q 1266 -881 1628 -881 
Q 2019 -881 2231 -725 
Q 2444 -569 2519 -288 
Q 2563 -116 2559 434 
Q 2191 0 1641 0 
Q 956 0 581 494 
Q 206 988 206 1678 
Q 206 2153 378 2554 
Q 550 2956 876 3175 
Q 1203 3394 1644 3394 
Q 2231 3394 2613 2919 
L 2613 3319 
L 3131 3319 
L 3131 450 
Q 3131 -325 2973 -648 
Q 2816 -972 2473 -1159 
Q 2131 -1347 1631 -1347 
Q 1038 -1347 672 -1080 
Q 306 -813 319 -275 
z
M 784 1719 
Q 784 1066 1043 766 
Q 1303 466 1694 466 
Q 2081 466 2343 764 
Q 2606 1063 2606 1700 
Q 2606 2309 2336 2618 
Q 2066 2928 1684 2928 
Q 1309 2928 1046 2623 
Q 784 2319 784 1719 
z
" transform="scale(0.015625)"/>
      </defs>
      <use xlink:href="#ArialMT-76"/>
      <use xlink:href="#ArialMT-6f" x="50"/>
      <use xlink:href="#ArialMT-6c" x="105.615234"/>
      <use xlink:href="#ArialMT-74" x="127.832031"/>
      <use xlink:href="#ArialMT-61" x="155.615234"/>
      <use xlink:href="#ArialMT-67" x="211.230469"/>
      <use xlink:href="#ArialMT-65" x="266.845703"/>
     </g>
    </g>
   </g>
   <g id="PathCollection_1">
    <defs>
     <path id="m6b3a8d26ab" d="M -6 0 
L 6 0 
M 0 6 
L 0 -6 
" style="stroke: #4c72b0; stroke-opacity: 0.8; stroke-width: 3"/>
    </defs>
    <g clip-path="url(#pdd0bb12efd)">
     <use xlink:href="#m6b3a8d26ab" x="121.362545" y="106.917451" style="fill: #4c72b0; fill-opacity: 0.8; stroke: #4c72b0; stroke-opacity: 0.8; stroke-width: 3"/>
     <use xlink:href="#m6b3a8d26ab" x="121.362545" y="106.842345" style="fill: #4c72b0; fill-opacity: 0.8; stroke: #4c72b0; stroke-opacity: 0.8; stroke-width: 3"/>
     <use xlink:href="#m6b3a8d26ab" x="121.362545" y="106.943693" style="fill: #4c72b0; fill-opacity: 0.8; stroke: #4c72b0; stroke-opacity: 0.8; stroke-width: 3"/>
     <use xlink:href="#m6b3a8d26ab" x="121.362545" y="106.831146" style="fill: #4c72b0; fill-opacity: 0.8; stroke: #4c72b0; stroke-opacity: 0.8; stroke-width: 3"/>
     <use xlink:href="#m6b3a8d26ab" x="121.362545" y="106.848113" style="fill: #4c72b0; fill-opacity: 0.8; stroke: #4c72b0; stroke-opacity: 0.8; stroke-width: 3"/>
     <use xlink:href="#m6b3a8d26ab" x="174.727636" y="125.244065" style="fill: #4c72b0; fill-opacity: 0.8; stroke: #4c72b0; stroke-opacity: 0.8; stroke-width: 3"/>
     <use xlink:href="#m6b3a8d26ab" x="174.727636" y="125.358309" style="fill: #4c72b0; fill-opacity: 0.8; stroke: #4c72b0; stroke-opacity: 0.8; stroke-width: 3"/>
     <use xlink:href="#m6b3a8d26ab" x="174.727636" y="125.222461" style="fill: #4c72b0; fill-opacity: 0.8; stroke: #4c72b0; stroke-opacity: 0.8; stroke-width: 3"/>
     <use xlink:href="#m6b3a8d26ab" x="174.727636" y="125.269968" style="fill: #4c72b0; fill-opacity: 0.8; stroke: #4c72b0; stroke-opacity: 0.8; stroke-width: 3"/>
     <use xlink:href="#m6b3a8d26ab" x="174.727636" y="125.264878" style="fill: #4c72b0; fill-opacity: 0.8; stroke: #4c72b0; stroke-opacity: 0.8; stroke-width: 3"/>
     <use xlink:href="#m6b3a8d26ab" x="228.092727" y="153.102004" style="fill: #4c72b0; fill-opacity: 0.8; stroke: #4c72b0; stroke-opacity: 0.8; stroke-width: 3"/>
     <use xlink:href="#m6b3a8d26ab" x="228.092727" y="152.946022" style="fill: #4c72b0; fill-opacity: 0.8; stroke: #4c72b0; stroke-opacity: 0.8; stroke-width: 3"/>
     <use xlink:href="#m6b3a8d26ab" x="228.092727" y="152.767869" style="fill: #4c72b0; fill-opacity: 0.8; stroke: #4c72b0; stroke-opacity: 0.8; stroke-width: 3"/>
     <use xlink:href="#m6b3a8d26ab" x="228.092727" y="152.791057" style="fill: #4c72b0; fill-opacity: 0.8; stroke: #4c72b0; stroke-opacity: 0.8; stroke-width: 3"/>
     <use xlink:href="#m6b3a8d26ab" x="228.092727" y="152.645934" style="fill: #4c72b0; fill-opacity: 0.8; stroke: #4c72b0; stroke-opacity: 0.8; stroke-width: 3"/>
     <use xlink:href="#m6b3a8d26ab" x="281.457818" y="183.895558" style="fill: #4c72b0; fill-opacity: 0.8; stroke: #4c72b0; stroke-opacity: 0.8; stroke-width: 3"/>
     <use xlink:href="#m6b3a8d26ab" x="281.457818" y="183.689919" style="fill: #4c72b0; fill-opacity: 0.8; stroke: #4c72b0; stroke-opacity: 0.8; stroke-width: 3"/>
     <use xlink:href="#m6b3a8d26ab" x="281.457818" y="183.644334" style="fill: #4c72b0; fill-opacity: 0.8; stroke: #4c72b0; stroke-opacity: 0.8; stroke-width: 3"/>
     <use xlink:href="#m6b3a8d26ab" x="281.457818" y="183.693878" style="fill: #4c72b0; fill-opacity: 0.8; stroke: #4c72b0; stroke-opacity: 0.8; stroke-width: 3"/>
     <use xlink:href="#m6b3a8d26ab" x="281.457818" y="183.459961" style="fill: #4c72b0; fill-opacity: 0.8; stroke: #4c72b0; stroke-opacity: 0.8; stroke-width: 3"/>
     <use xlink:href="#m6b3a8d26ab" x="334.822909" y="217.187195" style="fill: #4c72b0; fill-opacity: 0.8; stroke: #4c72b0; stroke-opacity: 0.8; stroke-width: 3"/>
     <use xlink:href="#m6b3a8d26ab" x="334.822909" y="217.08743" style="fill: #4c72b0; fill-opacity: 0.8; stroke: #4c72b0; stroke-opacity: 0.8; stroke-width: 3"/>
     <use xlink:href="#m6b3a8d26ab" x="334.822909" y="216.88066" style="fill: #4c72b0; fill-opacity: 0.8; stroke: #4c72b0; stroke-opacity: 0.8; stroke-width: 3"/>
     <use xlink:href="#m6b3a8d26ab" x="334.822909" y="216.883148" style="fill: #4c72b0; fill-opacity: 0.8; stroke: #4c72b0; stroke-opacity: 0.8; stroke-width: 3"/>
     <use xlink:href="#m6b3a8d26ab" x="334.822909" y="216.804874" style="fill: #4c72b0; fill-opacity: 0.8; stroke: #4c72b0; stroke-opacity: 0.8; stroke-width: 3"/>
     <use xlink:href="#m6b3a8d26ab" x="388.188" y="251.058202" style="fill: #4c72b0; fill-opacity: 0.8; stroke: #4c72b0; stroke-opacity: 0.8; stroke-width: 3"/>
     <use xlink:href="#m6b3a8d26ab" x="388.188" y="250.946899" style="fill: #4c72b0; fill-opacity: 0.8; stroke: #4c72b0; stroke-opacity: 0.8; stroke-width: 3"/>
     <use xlink:href="#m6b3a8d26ab" x="388.188" y="250.68674" style="fill: #4c72b0; fill-opacity: 0.8; stroke: #4c72b0; stroke-opacity: 0.8; stroke-width: 3"/>
     <use xlink:href="#m6b3a8d26ab" x="388.188" y="250.577021" style="fill: #4c72b0; fill-opacity: 0.8; stroke: #4c72b0; stroke-opacity: 0.8; stroke-width: 3"/>
     <use xlink:href="#m6b3a8d26ab" x="388.188" y="250.380092" style="fill: #4c72b0; fill-opacity: 0.8; stroke: #4c72b0; stroke-opacity: 0.8; stroke-width: 3"/>
     <use xlink:href="#m6b3a8d26ab" x="441.553091" y="284.866772" style="fill: #4c72b0; fill-opacity: 0.8; stroke: #4c72b0; stroke-opacity: 0.8; stroke-width: 3"/>
     <use xlink:href="#m6b3a8d26ab" x="441.553091" y="284.838381" style="fill: #4c72b0; fill-opacity: 0.8; stroke: #4c72b0; stroke-opacity: 0.8; stroke-width: 3"/>
     <use xlink:href="#m6b3a8d26ab" x="441.553091" y="284.847204" style="fill: #4c72b0; fill-opacity: 0.8; stroke: #4c72b0; stroke-opacity: 0.8; stroke-width: 3"/>
     <use xlink:href="#m6b3a8d26ab" x="441.553091" y="284.865189" style="fill: #4c72b0; fill-opacity: 0.8; stroke: #4c72b0; stroke-opacity: 0.8; stroke-width: 3"/>
     <use xlink:href="#m6b3a8d26ab" x="441.553091" y="284.883287" style="fill: #4c72b0; fill-opacity: 0.8; stroke: #4c72b0; stroke-opacity: 0.8; stroke-width: 3"/>
     <use xlink:href="#m6b3a8d26ab" x="494.918182" y="318.836867" style="fill: #4c72b0; fill-opacity: 0.8; stroke: #4c72b0; stroke-opacity: 0.8; stroke-width: 3"/>
     <use xlink:href="#m6b3a8d26ab" x="494.918182" y="319.084357" style="fill: #4c72b0; fill-opacity: 0.8; stroke: #4c72b0; stroke-opacity: 0.8; stroke-width: 3"/>
     <use xlink:href="#m6b3a8d26ab" x="494.918182" y="319.204935" style="fill: #4c72b0; fill-opacity: 0.8; stroke: #4c72b0; stroke-opacity: 0.8; stroke-width: 3"/>
     <use xlink:href="#m6b3a8d26ab" x="494.918182" y="319.37811" style="fill: #4c72b0; fill-opacity: 0.8; stroke: #4c72b0; stroke-opacity: 0.8; stroke-width: 3"/>
     <use xlink:href="#m6b3a8d26ab" x="494.918182" y="319.498462" style="fill: #4c72b0; fill-opacity: 0.8; stroke: #4c72b0; stroke-opacity: 0.8; stroke-width: 3"/>
     <use xlink:href="#m6b3a8d26ab" x="548.283273" y="361.079675" style="fill: #4c72b0; fill-opacity: 0.8; stroke: #4c72b0; stroke-opacity: 0.8; stroke-width: 3"/>
     <use xlink:href="#m6b3a8d26ab" x="548.283273" y="361.101619" style="fill: #4c72b0; fill-opacity: 0.8; stroke: #4c72b0; stroke-opacity: 0.8; stroke-width: 3"/>
     <use xlink:href="#m6b3a8d26ab" x="548.283273" y="361.284296" style="fill: #4c72b0; fill-opacity: 0.8; stroke: #4c72b0; stroke-opacity: 0.8; stroke-width: 3"/>
     <use xlink:href="#m6b3a8d26ab" x="548.283273" y="361.157384" style="fill: #4c72b0; fill-opacity: 0.8; stroke: #4c72b0; stroke-opacity: 0.8; stroke-width: 3"/>
     <use xlink:href="#m6b3a8d26ab" x="548.283273" y="361.185775" style="fill: #4c72b0; fill-opacity: 0.8; stroke: #4c72b0; stroke-opacity: 0.8; stroke-width: 3"/>
     <use xlink:href="#m6b3a8d26ab" x="601.648364" y="401.812666" style="fill: #4c72b0; fill-opacity: 0.8; stroke: #4c72b0; stroke-opacity: 0.8; stroke-width: 3"/>
     <use xlink:href="#m6b3a8d26ab" x="601.648364" y="401.986407" style="fill: #4c72b0; fill-opacity: 0.8; stroke: #4c72b0; stroke-opacity: 0.8; stroke-width: 3"/>
     <use xlink:href="#m6b3a8d26ab" x="601.648364" y="402.0752" style="fill: #4c72b0; fill-opacity: 0.8; stroke: #4c72b0; stroke-opacity: 0.8; stroke-width: 3"/>
     <use xlink:href="#m6b3a8d26ab" x="601.648364" y="402.032443" style="fill: #4c72b0; fill-opacity: 0.8; stroke: #4c72b0; stroke-opacity: 0.8; stroke-width: 3"/>
     <use xlink:href="#m6b3a8d26ab" x="601.648364" y="402.13662" style="fill: #4c72b0; fill-opacity: 0.8; stroke: #4c72b0; stroke-opacity: 0.8; stroke-width: 3"/>
     <use xlink:href="#m6b3a8d26ab" x="655.013455" y="446.850154" style="fill: #4c72b0; fill-opacity: 0.8; stroke: #4c72b0; stroke-opacity: 0.8; stroke-width: 3"/>
     <use xlink:href="#m6b3a8d26ab" x="655.013455" y="446.899245" style="fill: #4c72b0; fill-opacity: 0.8; stroke: #4c72b0; stroke-opacity: 0.8; stroke-width: 3"/>
     <use xlink:href="#m6b3a8d26ab" x="655.013455" y="446.869496" style="fill: #4c72b0; fill-opacity: 0.8; stroke: #4c72b0; stroke-opacity: 0.8; stroke-width: 3"/>
     <use xlink:href="#m6b3a8d26ab" x="655.013455" y="446.9256" style="fill: #4c72b0; fill-opacity: 0.8; stroke: #4c72b0; stroke-opacity: 0.8; stroke-width: 3"/>
     <use xlink:href="#m6b3a8d26ab" x="655.013455" y="446.791562" style="fill: #4c72b0; fill-opacity: 0.8; stroke: #4c72b0; stroke-opacity: 0.8; stroke-width: 3"/>
    </g>
   </g>
   <g id="PolyCollection_1">
    <defs>
     <path id="m013103fe52" d="M 121.362545 -441.6984 
L 121.362545 -429.84931 
L 126.752959 -426.464738 
L 132.143372 -423.085566 
L 137.533785 -419.725811 
L 142.924198 -416.328007 
L 148.314612 -412.94712 
L 153.705025 -409.568228 
L 159.095438 -406.205991 
L 164.485851 -402.84576 
L 169.876264 -399.496163 
L 175.266678 -396.146567 
L 180.657091 -392.716117 
L 186.047504 -389.315021 
L 191.437917 -385.933928 
L 196.828331 -382.552835 
L 202.218744 -379.171742 
L 207.609157 -375.780428 
L 212.99957 -372.394217 
L 218.389983 -369.023952 
L 223.780397 -365.635665 
L 229.17081 -362.255799 
L 234.561223 -358.841175 
L 239.951636 -355.433616 
L 245.34205 -351.994738 
L 250.732463 -348.596966 
L 256.122876 -345.230137 
L 261.513289 -341.78973 
L 266.903702 -338.387605 
L 272.294116 -335.015227 
L 277.684529 -331.558565 
L 283.074942 -328.11847 
L 288.465355 -324.748581 
L 293.855769 -321.292082 
L 299.246182 -317.851001 
L 304.636595 -314.406049 
L 310.027008 -310.959576 
L 315.417421 -307.554685 
L 320.807835 -304.162637 
L 326.198248 -300.768036 
L 331.588661 -297.348499 
L 336.979074 -293.884852 
L 342.369488 -290.420499 
L 347.759901 -286.963462 
L 353.150314 -283.504294 
L 358.540727 -280.098147 
L 363.93114 -276.671365 
L 369.321554 -273.206539 
L 374.711967 -269.757996 
L 380.10238 -266.37543 
L 385.492793 -262.998418 
L 390.883207 -259.592493 
L 396.27362 -256.076545 
L 401.664033 -252.594796 
L 407.054446 -249.122935 
L 412.44486 -245.657091 
L 417.835273 -242.172809 
L 423.225686 -238.668347 
L 428.616099 -235.179353 
L 434.006512 -231.718323 
L 439.396926 -228.240393 
L 444.787339 -224.755851 
L 450.177752 -221.268365 
L 455.568165 -217.7816 
L 460.958579 -214.29498 
L 466.348992 -210.828941 
L 471.739405 -207.334208 
L 477.129818 -203.820481 
L 482.520231 -200.3403 
L 487.910645 -196.858903 
L 493.301058 -193.370572 
L 498.691471 -189.809832 
L 504.081884 -186.282354 
L 509.472298 -182.712944 
L 514.862711 -179.227791 
L 520.253124 -175.707446 
L 525.643537 -172.164708 
L 531.03395 -168.626376 
L 536.424364 -165.082913 
L 541.814777 -161.573506 
L 547.20519 -158.032681 
L 552.595603 -154.475487 
L 557.986017 -150.950876 
L 563.37643 -147.426559 
L 568.766843 -143.897241 
L 574.157256 -140.377719 
L 579.547669 -136.848818 
L 584.938083 -133.310429 
L 590.328496 -129.766691 
L 595.718909 -126.203843 
L 601.109322 -122.65562 
L 606.499736 -119.10776 
L 611.890149 -115.56895 
L 617.280562 -112.026775 
L 622.670975 -108.462587 
L 628.061388 -104.900843 
L 633.451802 -101.355399 
L 638.842215 -97.775875 
L 644.232628 -94.250055 
L 649.623041 -90.649201 
L 655.013455 -87.053667 
L 655.013455 -98.712381 
L 655.013455 -98.712381 
L 649.623041 -102.074538 
L 644.232628 -105.436694 
L 638.842215 -108.798851 
L 633.451802 -112.161008 
L 628.061388 -115.523164 
L 622.670975 -118.885321 
L 617.280562 -122.247477 
L 611.890149 -125.609634 
L 606.499736 -128.971648 
L 601.109322 -132.327626 
L 595.718909 -135.676725 
L 590.328496 -139.025824 
L 584.938083 -142.374924 
L 579.547669 -145.724023 
L 574.157256 -149.099169 
L 568.766843 -152.483537 
L 563.37643 -155.815778 
L 557.986017 -159.173712 
L 552.595603 -162.566109 
L 547.20519 -165.944233 
L 541.814777 -169.303931 
L 536.424364 -172.664265 
L 531.03395 -176.024281 
L 525.643537 -179.384738 
L 520.253124 -182.744313 
L 514.862711 -186.126029 
L 509.472298 -189.492026 
L 504.081884 -192.853516 
L 498.691471 -196.215778 
L 493.301058 -199.563724 
L 487.910645 -202.904409 
L 482.520231 -206.264425 
L 477.129818 -209.624441 
L 471.739405 -212.984457 
L 466.348992 -216.389012 
L 460.958579 -219.756317 
L 455.568165 -223.14935 
L 450.177752 -226.560341 
L 444.787339 -229.972929 
L 439.396926 -233.413625 
L 434.006512 -236.826927 
L 428.616099 -240.232948 
L 423.225686 -243.690367 
L 417.835273 -247.167259 
L 412.44486 -250.624843 
L 407.054446 -254.069717 
L 401.664033 -257.521313 
L 396.27362 -261.035255 
L 390.883207 -264.44637 
L 385.492793 -267.941846 
L 380.10238 -271.447749 
L 374.711967 -274.92478 
L 369.321554 -278.419811 
L 363.93114 -281.940116 
L 358.540727 -285.439458 
L 353.150314 -288.975371 
L 347.759901 -292.481735 
L 342.369488 -296.036399 
L 336.979074 -299.564559 
L 331.588661 -303.071202 
L 326.198248 -306.654561 
L 320.807835 -310.10502 
L 315.417421 -313.709877 
L 310.027008 -317.221691 
L 304.636595 -320.787922 
L 299.246182 -324.306187 
L 293.855769 -327.88622 
L 288.465355 -331.424878 
L 283.074942 -334.926061 
L 277.684529 -338.505483 
L 272.294116 -342.04744 
L 266.903702 -345.584971 
L 261.513289 -349.120317 
L 256.122876 -352.662351 
L 250.732463 -356.224683 
L 245.34205 -359.78003 
L 239.951636 -363.315821 
L 234.561223 -366.864893 
L 229.17081 -370.407235 
L 223.780397 -373.948504 
L 218.389983 -377.489772 
L 212.99957 -381.043635 
L 207.609157 -384.592336 
L 202.218744 -388.127989 
L 196.828331 -391.663641 
L 191.437917 -395.199294 
L 186.047504 -398.753462 
L 180.657091 -402.339391 
L 175.266678 -405.92532 
L 169.876264 -409.511249 
L 164.485851 -413.097178 
L 159.095438 -416.683108 
L 153.705025 -420.269037 
L 148.314612 -423.854966 
L 142.924198 -427.424435 
L 137.533785 -430.992648 
L 132.143372 -434.560862 
L 126.752959 -438.129075 
L 121.362545 -441.6984 
z
" style="stroke: #ffffff; stroke-opacity: 0.15; stroke-width: 2"/>
    </defs>
    <g clip-path="url(#pdd0bb12efd)">
     <use xlink:href="#m013103fe52" x="0" y="522.72" style="fill: #4c72b0; fill-opacity: 0.15; stroke: #ffffff; stroke-opacity: 0.15; stroke-width: 2"/>
    </g>
   </g>
   <g id="line2d_18">
    <path d="M 121.362545 87.735104 
L 126.752959 91.197705 
L 132.143372 94.660307 
L 137.533785 98.122908 
L 142.924198 101.585509 
L 148.314612 105.048111 
L 153.705025 108.510712 
L 159.095438 111.973313 
L 164.485851 115.435915 
L 169.876264 118.898516 
L 175.266678 122.361118 
L 180.657091 125.823719 
L 186.047504 129.28632 
L 191.437917 132.748922 
L 196.828331 136.211523 
L 202.218744 139.674124 
L 207.609157 143.136726 
L 212.99957 146.599327 
L 218.389983 150.061928 
L 223.780397 153.52453 
L 229.17081 156.987131 
L 234.561223 160.449733 
L 239.951636 163.912334 
L 245.34205 167.374935 
L 250.732463 170.837537 
L 256.122876 174.300138 
L 261.513289 177.762739 
L 266.903702 181.225341 
L 272.294116 184.687942 
L 277.684529 188.150543 
L 283.074942 191.613145 
L 288.465355 195.075746 
L 293.855769 198.538348 
L 299.246182 202.000949 
L 304.636595 205.46355 
L 310.027008 208.926152 
L 315.417421 212.388753 
L 320.807835 215.851354 
L 326.198248 219.313956 
L 331.588661 222.776557 
L 336.979074 226.239159 
L 342.369488 229.70176 
L 347.759901 233.164361 
L 353.150314 236.626963 
L 358.540727 240.089564 
L 363.93114 243.552165 
L 369.321554 247.014767 
L 374.711967 250.477368 
L 380.10238 253.939969 
L 385.492793 257.402571 
L 390.883207 260.865172 
L 396.27362 264.327774 
L 401.664033 267.790375 
L 407.054446 271.252976 
L 412.44486 274.715578 
L 417.835273 278.178179 
L 423.225686 281.64078 
L 428.616099 285.103382 
L 434.006512 288.565983 
L 439.396926 292.028584 
L 444.787339 295.491186 
L 450.177752 298.953787 
L 455.568165 302.416389 
L 460.958579 305.87899 
L 466.348992 309.341591 
L 471.739405 312.804193 
L 477.129818 316.266794 
L 482.520231 319.729395 
L 487.910645 323.191997 
L 493.301058 326.654598 
L 498.691471 330.1172 
L 504.081884 333.579801 
L 509.472298 337.042402 
L 514.862711 340.505004 
L 520.253124 343.967605 
L 525.643537 347.430206 
L 531.03395 350.892808 
L 536.424364 354.355409 
L 541.814777 357.81801 
L 547.20519 361.280612 
L 552.595603 364.743213 
L 557.986017 368.205815 
L 563.37643 371.668416 
L 568.766843 375.131017 
L 574.157256 378.593619 
L 579.547669 382.05622 
L 584.938083 385.518821 
L 590.328496 388.981423 
L 595.718909 392.444024 
L 601.109322 395.906625 
L 606.499736 399.369227 
L 611.890149 402.831828 
L 617.280562 406.29443 
L 622.670975 409.757031 
L 628.061388 413.219632 
L 633.451802 416.682234 
L 638.842215 420.144835 
L 644.232628 423.607436 
L 649.623041 427.070038 
L 655.013455 430.532639 
" clip-path="url(#pdd0bb12efd)" style="fill: none; stroke: #4c72b0; stroke-width: 4.5; stroke-linecap: round"/>
   </g>
   <g id="patch_3">
    <path d="M 94.68 465.2208 
L 94.68 62.7264 
" style="fill: none; stroke: #262626; stroke-width: 2.5; stroke-linejoin: miter; stroke-linecap: square"/>
   </g>
   <g id="patch_4">
    <path d="M 94.68 465.2208 
L 681.696 465.2208 
" style="fill: none; stroke: #262626; stroke-width: 2.5; stroke-linejoin: miter; stroke-linecap: square"/>
   </g>
   <g id="text_20">
    <!-- Coef -9.969969766e-05 intercept 0.01233553319 -->
    <g style="fill: #262626" transform="translate(125.33175 56.7264)scale(0.24 -0.24)">
     <defs>
      <path id="ArialMT-43" d="M 3763 1606 
L 4369 1453 
Q 4178 706 3683 314 
Q 3188 -78 2472 -78 
Q 1731 -78 1267 223 
Q 803 525 561 1097 
Q 319 1669 319 2325 
Q 319 3041 592 3573 
Q 866 4106 1370 4382 
Q 1875 4659 2481 4659 
Q 3169 4659 3637 4309 
Q 4106 3959 4291 3325 
L 3694 3184 
Q 3534 3684 3231 3912 
Q 2928 4141 2469 4141 
Q 1941 4141 1586 3887 
Q 1231 3634 1087 3207 
Q 944 2781 944 2328 
Q 944 1744 1114 1308 
Q 1284 872 1643 656 
Q 2003 441 2422 441 
Q 2931 441 3284 734 
Q 3638 1028 3763 1606 
z
" transform="scale(0.015625)"/>
      <path id="ArialMT-66" d="M 556 0 
L 556 2881 
L 59 2881 
L 59 3319 
L 556 3319 
L 556 3672 
Q 556 4006 616 4169 
Q 697 4388 901 4523 
Q 1106 4659 1475 4659 
Q 1713 4659 2000 4603 
L 1916 4113 
Q 1741 4144 1584 4144 
Q 1328 4144 1222 4034 
Q 1116 3925 1116 3625 
L 1116 3319 
L 1763 3319 
L 1763 2881 
L 1116 2881 
L 1116 0 
L 556 0 
z
" transform="scale(0.015625)"/>
      <path id="ArialMT-20" transform="scale(0.015625)"/>
      <path id="ArialMT-2d" d="M 203 1375 
L 203 1941 
L 1931 1941 
L 1931 1375 
L 203 1375 
z
" transform="scale(0.015625)"/>
      <path id="ArialMT-39" d="M 350 1059 
L 891 1109 
Q 959 728 1153 556 
Q 1347 384 1650 384 
Q 1909 384 2104 503 
Q 2300 622 2425 820 
Q 2550 1019 2634 1356 
Q 2719 1694 2719 2044 
Q 2719 2081 2716 2156 
Q 2547 1888 2255 1720 
Q 1963 1553 1622 1553 
Q 1053 1553 659 1965 
Q 266 2378 266 3053 
Q 266 3750 677 4175 
Q 1088 4600 1706 4600 
Q 2153 4600 2523 4359 
Q 2894 4119 3086 3673 
Q 3278 3228 3278 2384 
Q 3278 1506 3087 986 
Q 2897 466 2520 194 
Q 2144 -78 1638 -78 
Q 1100 -78 759 220 
Q 419 519 350 1059 
z
M 2653 3081 
Q 2653 3566 2395 3850 
Q 2138 4134 1775 4134 
Q 1400 4134 1122 3828 
Q 844 3522 844 3034 
Q 844 2597 1108 2323 
Q 1372 2050 1759 2050 
Q 2150 2050 2401 2323 
Q 2653 2597 2653 3081 
z
" transform="scale(0.015625)"/>
      <path id="ArialMT-72" d="M 416 0 
L 416 3319 
L 922 3319 
L 922 2816 
Q 1116 3169 1280 3281 
Q 1444 3394 1641 3394 
Q 1925 3394 2219 3213 
L 2025 2691 
Q 1819 2813 1613 2813 
Q 1428 2813 1281 2702 
Q 1134 2591 1072 2394 
Q 978 2094 978 1738 
L 978 0 
L 416 0 
z
" transform="scale(0.015625)"/>
      <path id="ArialMT-70" d="M 422 -1272 
L 422 3319 
L 934 3319 
L 934 2888 
Q 1116 3141 1344 3267 
Q 1572 3394 1897 3394 
Q 2322 3394 2647 3175 
Q 2972 2956 3137 2557 
Q 3303 2159 3303 1684 
Q 3303 1175 3120 767 
Q 2938 359 2589 142 
Q 2241 -75 1856 -75 
Q 1575 -75 1351 44 
Q 1128 163 984 344 
L 984 -1272 
L 422 -1272 
z
M 931 1641 
Q 931 1000 1190 694 
Q 1450 388 1819 388 
Q 2194 388 2461 705 
Q 2728 1022 2728 1688 
Q 2728 2322 2467 2637 
Q 2206 2953 1844 2953 
Q 1484 2953 1207 2617 
Q 931 2281 931 1641 
z
" transform="scale(0.015625)"/>
      <path id="ArialMT-31" d="M 2384 0 
L 1822 0 
L 1822 3584 
Q 1619 3391 1289 3197 
Q 959 3003 697 2906 
L 697 3450 
Q 1169 3672 1522 3987 
Q 1875 4303 2022 4600 
L 2384 4600 
L 2384 0 
z
" transform="scale(0.015625)"/>
     </defs>
     <use xlink:href="#ArialMT-43"/>
     <use xlink:href="#ArialMT-6f" x="72.216797"/>
     <use xlink:href="#ArialMT-65" x="127.832031"/>
     <use xlink:href="#ArialMT-66" x="183.447266"/>
     <use xlink:href="#ArialMT-20" x="211.230469"/>
     <use xlink:href="#ArialMT-2d" x="239.013672"/>
     <use xlink:href="#ArialMT-39" x="272.314453"/>
     <use xlink:href="#ArialMT-2e" x="327.929688"/>
     <use xlink:href="#ArialMT-39" x="355.712891"/>
     <use xlink:href="#ArialMT-36" x="411.328125"/>
     <use xlink:href="#ArialMT-39" x="466.943359"/>
     <use xlink:href="#ArialMT-39" x="522.558594"/>
     <use xlink:href="#ArialMT-36" x="578.173828"/>
     <use xlink:href="#ArialMT-39" x="633.789062"/>
     <use xlink:href="#ArialMT-37" x="689.404297"/>
     <use xlink:href="#ArialMT-36" x="745.019531"/>
     <use xlink:href="#ArialMT-36" x="800.634766"/>
     <use xlink:href="#ArialMT-65" x="856.25"/>
     <use xlink:href="#ArialMT-2d" x="911.865234"/>
     <use xlink:href="#ArialMT-30" x="945.166016"/>
     <use xlink:href="#ArialMT-35" x="1000.78125"/>
     <use xlink:href="#ArialMT-20" x="1056.396484"/>
     <use xlink:href="#ArialMT-69" x="1084.179688"/>
     <use xlink:href="#ArialMT-6e" x="1106.396484"/>
     <use xlink:href="#ArialMT-74" x="1162.011719"/>
     <use xlink:href="#ArialMT-65" x="1189.794922"/>
     <use xlink:href="#ArialMT-72" x="1245.410156"/>
     <use xlink:href="#ArialMT-63" x="1278.710938"/>
     <use xlink:href="#ArialMT-65" x="1328.710938"/>
     <use xlink:href="#ArialMT-70" x="1384.326172"/>
     <use xlink:href="#ArialMT-74" x="1439.941406"/>
     <use xlink:href="#ArialMT-20" x="1467.724609"/>
     <use xlink:href="#ArialMT-30" x="1495.507812"/>
     <use xlink:href="#ArialMT-2e" x="1551.123047"/>
     <use xlink:href="#ArialMT-30" x="1578.90625"/>
     <use xlink:href="#ArialMT-31" x="1634.521484"/>
     <use xlink:href="#ArialMT-32" x="1690.136719"/>
     <use xlink:href="#ArialMT-33" x="1745.751953"/>
     <use xlink:href="#ArialMT-33" x="1801.367188"/>
     <use xlink:href="#ArialMT-35" x="1856.982422"/>
     <use xlink:href="#ArialMT-35" x="1912.597656"/>
     <use xlink:href="#ArialMT-33" x="1968.212891"/>
     <use xlink:href="#ArialMT-33" x="2023.828125"/>
     <use xlink:href="#ArialMT-31" x="2079.443359"/>
     <use xlink:href="#ArialMT-39" x="2135.058594"/>
    </g>
   </g>
  </g>
 </g>
 <defs>
  <clipPath id="pdd0bb12efd">
   <rect x="94.68" y="62.7264" width="587.016" height="402.4944"/>
  </clipPath>
 </defs>
</svg>
