<?xml version="1.0" encoding="utf-8" standalone="no"?>
<!DOCTYPE svg PUBLIC "-//W3C//DTD SVG 1.1//EN"
  "http://www.w3.org/Graphics/SVG/1.1/DTD/svg11.dtd">
<svg xmlns:xlink="http://www.w3.org/1999/xlink" width="1382.4pt" height="702pt" viewBox="0 0 1382.4 702" xmlns="http://www.w3.org/2000/svg" version="1.1">
 <metadata>
  <rdf:RDF xmlns:dc="http://purl.org/dc/elements/1.1/" xmlns:cc="http://creativecommons.org/ns#" xmlns:rdf="http://www.w3.org/1999/02/22-rdf-syntax-ns#">
   <cc:Work>
    <dc:type rdf:resource="http://purl.org/dc/dcmitype/StillImage"/>
    <dc:date>2022-08-21T18:12:44.974952</dc:date>
    <dc:format>image/svg+xml</dc:format>
    <dc:creator>
     <cc:Agent>
      <dc:title>Matplotlib v3.5.2, https://matplotlib.org/</dc:title>
     </cc:Agent>
    </dc:creator>
   </cc:Work>
  </rdf:RDF>
 </metadata>
 <defs>
  <style type="text/css">*{stroke-linejoin: round; stroke-linecap: butt}</style>
 </defs>
 <g id="figure_1">
  <g id="patch_1">
   <path d="M 0 702 
L 1382.4 702 
L 1382.4 0 
L 0 0 
z
" style="fill: #ffffff"/>
  </g>
  <g id="axes_1">
   <g id="patch_2">
    <path d="M 172.8 624.78 
L 1244.16 624.78 
L 1244.16 84.24 
L 172.8 84.24 
z
" style="fill: #ffffff"/>
   </g>
   <g id="matplotlib.axis_1">
    <g id="xtick_1">
     <g id="line2d_1">
      <defs>
       <path id="m184cc1b57b" d="M 0 0 
L 0 12 
" style="stroke: #262626; stroke-width: 2.5"/>
      </defs>
      <g>
       <use xlink:href="#m184cc1b57b" x="286.429091" y="624.78" style="fill: #262626; stroke: #262626; stroke-width: 2.5"/>
      </g>
     </g>
     <g id="text_1">
      <!-- −4 -->
      <g style="fill: #262626" transform="translate(273.887372 656.027187)scale(0.22 -0.22)">
       <defs>
        <path id="ArialMT-2212" d="M 3381 1997 
L 356 1997 
L 356 2522 
L 3381 2522 
L 3381 1997 
z
" transform="scale(0.015625)"/>
        <path id="ArialMT-34" d="M 2069 0 
L 2069 1097 
L 81 1097 
L 81 1613 
L 2172 4581 
L 2631 4581 
L 2631 1613 
L 3250 1613 
L 3250 1097 
L 2631 1097 
L 2631 0 
L 2069 0 
z
M 2069 1613 
L 2069 3678 
L 634 1613 
L 2069 1613 
z
" transform="scale(0.015625)"/>
       </defs>
       <use xlink:href="#ArialMT-2212"/>
       <use xlink:href="#ArialMT-34" x="58.398438"/>
      </g>
     </g>
    </g>
    <g id="xtick_2">
     <g id="line2d_2">
      <g>
       <use xlink:href="#m184cc1b57b" x="416.290909" y="624.78" style="fill: #262626; stroke: #262626; stroke-width: 2.5"/>
      </g>
     </g>
     <g id="text_2">
      <!-- −2 -->
      <g style="fill: #262626" transform="translate(403.74919 656.027187)scale(0.22 -0.22)">
       <defs>
        <path id="ArialMT-32" d="M 3222 541 
L 3222 0 
L 194 0 
Q 188 203 259 391 
Q 375 700 629 1000 
Q 884 1300 1366 1694 
Q 2113 2306 2375 2664 
Q 2638 3022 2638 3341 
Q 2638 3675 2398 3904 
Q 2159 4134 1775 4134 
Q 1369 4134 1125 3890 
Q 881 3647 878 3216 
L 300 3275 
Q 359 3922 746 4261 
Q 1134 4600 1788 4600 
Q 2447 4600 2831 4234 
Q 3216 3869 3216 3328 
Q 3216 3053 3103 2787 
Q 2991 2522 2730 2228 
Q 2469 1934 1863 1422 
Q 1356 997 1212 845 
Q 1069 694 975 541 
L 3222 541 
z
" transform="scale(0.015625)"/>
       </defs>
       <use xlink:href="#ArialMT-2212"/>
       <use xlink:href="#ArialMT-32" x="58.398438"/>
      </g>
     </g>
    </g>
    <g id="xtick_3">
     <g id="line2d_3">
      <g>
       <use xlink:href="#m184cc1b57b" x="546.152727" y="624.78" style="fill: #262626; stroke: #262626; stroke-width: 2.5"/>
      </g>
     </g>
     <g id="text_3">
      <!-- 0 -->
      <g style="fill: #262626" transform="translate(540.035696 656.027187)scale(0.22 -0.22)">
       <defs>
        <path id="ArialMT-30" d="M 266 2259 
Q 266 3072 433 3567 
Q 600 4063 929 4331 
Q 1259 4600 1759 4600 
Q 2128 4600 2406 4451 
Q 2684 4303 2865 4023 
Q 3047 3744 3150 3342 
Q 3253 2941 3253 2259 
Q 3253 1453 3087 958 
Q 2922 463 2592 192 
Q 2263 -78 1759 -78 
Q 1097 -78 719 397 
Q 266 969 266 2259 
z
M 844 2259 
Q 844 1131 1108 757 
Q 1372 384 1759 384 
Q 2147 384 2411 759 
Q 2675 1134 2675 2259 
Q 2675 3391 2411 3762 
Q 2147 4134 1753 4134 
Q 1366 4134 1134 3806 
Q 844 3388 844 2259 
z
" transform="scale(0.015625)"/>
       </defs>
       <use xlink:href="#ArialMT-30"/>
      </g>
     </g>
    </g>
    <g id="xtick_4">
     <g id="line2d_4">
      <g>
       <use xlink:href="#m184cc1b57b" x="676.014545" y="624.78" style="fill: #262626; stroke: #262626; stroke-width: 2.5"/>
      </g>
     </g>
     <g id="text_4">
      <!-- 2 -->
      <g style="fill: #262626" transform="translate(669.897514 656.027187)scale(0.22 -0.22)">
       <use xlink:href="#ArialMT-32"/>
      </g>
     </g>
    </g>
    <g id="xtick_5">
     <g id="line2d_5">
      <g>
       <use xlink:href="#m184cc1b57b" x="805.876364" y="624.78" style="fill: #262626; stroke: #262626; stroke-width: 2.5"/>
      </g>
     </g>
     <g id="text_5">
      <!-- 4 -->
      <g style="fill: #262626" transform="translate(799.759332 656.027187)scale(0.22 -0.22)">
       <use xlink:href="#ArialMT-34"/>
      </g>
     </g>
    </g>
    <g id="xtick_6">
     <g id="line2d_6">
      <g>
       <use xlink:href="#m184cc1b57b" x="935.738182" y="624.78" style="fill: #262626; stroke: #262626; stroke-width: 2.5"/>
      </g>
     </g>
     <g id="text_6">
      <!-- 6 -->
      <g style="fill: #262626" transform="translate(929.621151 656.027187)scale(0.22 -0.22)">
       <defs>
        <path id="ArialMT-36" d="M 3184 3459 
L 2625 3416 
Q 2550 3747 2413 3897 
Q 2184 4138 1850 4138 
Q 1581 4138 1378 3988 
Q 1113 3794 959 3422 
Q 806 3050 800 2363 
Q 1003 2672 1297 2822 
Q 1591 2972 1913 2972 
Q 2475 2972 2870 2558 
Q 3266 2144 3266 1488 
Q 3266 1056 3080 686 
Q 2894 316 2569 119 
Q 2244 -78 1831 -78 
Q 1128 -78 684 439 
Q 241 956 241 2144 
Q 241 3472 731 4075 
Q 1159 4600 1884 4600 
Q 2425 4600 2770 4297 
Q 3116 3994 3184 3459 
z
M 888 1484 
Q 888 1194 1011 928 
Q 1134 663 1356 523 
Q 1578 384 1822 384 
Q 2178 384 2434 671 
Q 2691 959 2691 1453 
Q 2691 1928 2437 2201 
Q 2184 2475 1800 2475 
Q 1419 2475 1153 2201 
Q 888 1928 888 1484 
z
" transform="scale(0.015625)"/>
       </defs>
       <use xlink:href="#ArialMT-36"/>
      </g>
     </g>
    </g>
    <g id="xtick_7">
     <g id="line2d_7">
      <g>
       <use xlink:href="#m184cc1b57b" x="1065.6" y="624.78" style="fill: #262626; stroke: #262626; stroke-width: 2.5"/>
      </g>
     </g>
     <g id="text_7">
      <!-- 8 -->
      <g style="fill: #262626" transform="translate(1059.482969 656.027187)scale(0.22 -0.22)">
       <defs>
        <path id="ArialMT-38" d="M 1131 2484 
Q 781 2613 612 2850 
Q 444 3088 444 3419 
Q 444 3919 803 4259 
Q 1163 4600 1759 4600 
Q 2359 4600 2725 4251 
Q 3091 3903 3091 3403 
Q 3091 3084 2923 2848 
Q 2756 2613 2416 2484 
Q 2838 2347 3058 2040 
Q 3278 1734 3278 1309 
Q 3278 722 2862 322 
Q 2447 -78 1769 -78 
Q 1091 -78 675 323 
Q 259 725 259 1325 
Q 259 1772 486 2073 
Q 713 2375 1131 2484 
z
M 1019 3438 
Q 1019 3113 1228 2906 
Q 1438 2700 1772 2700 
Q 2097 2700 2305 2904 
Q 2513 3109 2513 3406 
Q 2513 3716 2298 3927 
Q 2084 4138 1766 4138 
Q 1444 4138 1231 3931 
Q 1019 3725 1019 3438 
z
M 838 1322 
Q 838 1081 952 856 
Q 1066 631 1291 507 
Q 1516 384 1775 384 
Q 2178 384 2440 643 
Q 2703 903 2703 1303 
Q 2703 1709 2433 1975 
Q 2163 2241 1756 2241 
Q 1359 2241 1098 1978 
Q 838 1716 838 1322 
z
" transform="scale(0.015625)"/>
       </defs>
       <use xlink:href="#ArialMT-38"/>
      </g>
     </g>
    </g>
    <g id="xtick_8">
     <g id="line2d_8">
      <g>
       <use xlink:href="#m184cc1b57b" x="1195.461818" y="624.78" style="fill: #262626; stroke: #262626; stroke-width: 2.5"/>
      </g>
     </g>
     <g id="text_8">
      <!-- 10 -->
      <g style="fill: #262626" transform="translate(1183.227756 656.027187)scale(0.22 -0.22)">
       <defs>
        <path id="ArialMT-31" d="M 2384 0 
L 1822 0 
L 1822 3584 
Q 1619 3391 1289 3197 
Q 959 3003 697 2906 
L 697 3450 
Q 1169 3672 1522 3987 
Q 1875 4303 2022 4600 
L 2384 4600 
L 2384 0 
z
" transform="scale(0.015625)"/>
       </defs>
       <use xlink:href="#ArialMT-31"/>
       <use xlink:href="#ArialMT-30" x="55.615234"/>
      </g>
     </g>
    </g>
    <g id="text_9">
     <!-- Time (ms) -->
     <g style="fill: #262626" transform="translate(654.945 681.870937)scale(0.24 -0.24)">
      <defs>
       <path id="ArialMT-54" d="M 1659 0 
L 1659 4041 
L 150 4041 
L 150 4581 
L 3781 4581 
L 3781 4041 
L 2266 4041 
L 2266 0 
L 1659 0 
z
" transform="scale(0.015625)"/>
       <path id="ArialMT-69" d="M 425 3934 
L 425 4581 
L 988 4581 
L 988 3934 
L 425 3934 
z
M 425 0 
L 425 3319 
L 988 3319 
L 988 0 
L 425 0 
z
" transform="scale(0.015625)"/>
       <path id="ArialMT-6d" d="M 422 0 
L 422 3319 
L 925 3319 
L 925 2853 
Q 1081 3097 1340 3245 
Q 1600 3394 1931 3394 
Q 2300 3394 2536 3241 
Q 2772 3088 2869 2813 
Q 3263 3394 3894 3394 
Q 4388 3394 4653 3120 
Q 4919 2847 4919 2278 
L 4919 0 
L 4359 0 
L 4359 2091 
Q 4359 2428 4304 2576 
Q 4250 2725 4106 2815 
Q 3963 2906 3769 2906 
Q 3419 2906 3187 2673 
Q 2956 2441 2956 1928 
L 2956 0 
L 2394 0 
L 2394 2156 
Q 2394 2531 2256 2718 
Q 2119 2906 1806 2906 
Q 1569 2906 1367 2781 
Q 1166 2656 1075 2415 
Q 984 2175 984 1722 
L 984 0 
L 422 0 
z
" transform="scale(0.015625)"/>
       <path id="ArialMT-65" d="M 2694 1069 
L 3275 997 
Q 3138 488 2766 206 
Q 2394 -75 1816 -75 
Q 1088 -75 661 373 
Q 234 822 234 1631 
Q 234 2469 665 2931 
Q 1097 3394 1784 3394 
Q 2450 3394 2872 2941 
Q 3294 2488 3294 1666 
Q 3294 1616 3291 1516 
L 816 1516 
Q 847 969 1125 678 
Q 1403 388 1819 388 
Q 2128 388 2347 550 
Q 2566 713 2694 1069 
z
M 847 1978 
L 2700 1978 
Q 2663 2397 2488 2606 
Q 2219 2931 1791 2931 
Q 1403 2931 1139 2672 
Q 875 2413 847 1978 
z
" transform="scale(0.015625)"/>
       <path id="ArialMT-20" transform="scale(0.015625)"/>
       <path id="ArialMT-28" d="M 1497 -1347 
Q 1031 -759 709 28 
Q 388 816 388 1659 
Q 388 2403 628 3084 
Q 909 3875 1497 4659 
L 1900 4659 
Q 1522 4009 1400 3731 
Q 1209 3300 1100 2831 
Q 966 2247 966 1656 
Q 966 153 1900 -1347 
L 1497 -1347 
z
" transform="scale(0.015625)"/>
       <path id="ArialMT-73" d="M 197 991 
L 753 1078 
Q 800 744 1014 566 
Q 1228 388 1613 388 
Q 2000 388 2187 545 
Q 2375 703 2375 916 
Q 2375 1106 2209 1216 
Q 2094 1291 1634 1406 
Q 1016 1563 777 1677 
Q 538 1791 414 1992 
Q 291 2194 291 2438 
Q 291 2659 392 2848 
Q 494 3038 669 3163 
Q 800 3259 1026 3326 
Q 1253 3394 1513 3394 
Q 1903 3394 2198 3281 
Q 2494 3169 2634 2976 
Q 2775 2784 2828 2463 
L 2278 2388 
Q 2241 2644 2061 2787 
Q 1881 2931 1553 2931 
Q 1166 2931 1000 2803 
Q 834 2675 834 2503 
Q 834 2394 903 2306 
Q 972 2216 1119 2156 
Q 1203 2125 1616 2013 
Q 2213 1853 2448 1751 
Q 2684 1650 2818 1456 
Q 2953 1263 2953 975 
Q 2953 694 2789 445 
Q 2625 197 2315 61 
Q 2006 -75 1616 -75 
Q 969 -75 630 194 
Q 291 463 197 991 
z
" transform="scale(0.015625)"/>
       <path id="ArialMT-29" d="M 791 -1347 
L 388 -1347 
Q 1322 153 1322 1656 
Q 1322 2244 1188 2822 
Q 1081 3291 891 3722 
Q 769 4003 388 4659 
L 791 4659 
Q 1378 3875 1659 3084 
Q 1900 2403 1900 1659 
Q 1900 816 1576 28 
Q 1253 -759 791 -1347 
z
" transform="scale(0.015625)"/>
      </defs>
      <use xlink:href="#ArialMT-54"/>
      <use xlink:href="#ArialMT-69" x="57.333984"/>
      <use xlink:href="#ArialMT-6d" x="79.550781"/>
      <use xlink:href="#ArialMT-65" x="162.851562"/>
      <use xlink:href="#ArialMT-20" x="218.466797"/>
      <use xlink:href="#ArialMT-28" x="246.25"/>
      <use xlink:href="#ArialMT-6d" x="279.550781"/>
      <use xlink:href="#ArialMT-73" x="362.851562"/>
      <use xlink:href="#ArialMT-29" x="412.851562"/>
     </g>
    </g>
   </g>
   <g id="matplotlib.axis_2">
    <g id="ytick_1">
     <g id="line2d_9">
      <defs>
       <path id="m478757bf7a" d="M 0 0 
L -12 0 
" style="stroke: #262626; stroke-width: 2.5"/>
      </defs>
      <g>
       <use xlink:href="#m478757bf7a" x="172.8" y="563.895462" style="fill: #262626; stroke: #262626; stroke-width: 2.5"/>
      </g>
     </g>
     <g id="text_10">
      <!-- −4 -->
      <g style="fill: #262626" transform="translate(132.216562 571.769056)scale(0.22 -0.22)">
       <use xlink:href="#ArialMT-2212"/>
       <use xlink:href="#ArialMT-34" x="58.398438"/>
      </g>
     </g>
    </g>
    <g id="ytick_2">
     <g id="line2d_10">
      <g>
       <use xlink:href="#m478757bf7a" x="172.8" y="465.26824" style="fill: #262626; stroke: #262626; stroke-width: 2.5"/>
      </g>
     </g>
     <g id="text_11">
      <!-- −2 -->
      <g style="fill: #262626" transform="translate(132.216562 473.141834)scale(0.22 -0.22)">
       <use xlink:href="#ArialMT-2212"/>
       <use xlink:href="#ArialMT-32" x="58.398438"/>
      </g>
     </g>
    </g>
    <g id="ytick_3">
     <g id="line2d_11">
      <g>
       <use xlink:href="#m478757bf7a" x="172.8" y="366.641018" style="fill: #262626; stroke: #262626; stroke-width: 2.5"/>
      </g>
     </g>
     <g id="text_12">
      <!-- 0 -->
      <g style="fill: #262626" transform="translate(145.065937 374.514612)scale(0.22 -0.22)">
       <use xlink:href="#ArialMT-30"/>
      </g>
     </g>
    </g>
    <g id="ytick_4">
     <g id="line2d_12">
      <g>
       <use xlink:href="#m478757bf7a" x="172.8" y="268.013797" style="fill: #262626; stroke: #262626; stroke-width: 2.5"/>
      </g>
     </g>
     <g id="text_13">
      <!-- 2 -->
      <g style="fill: #262626" transform="translate(145.065937 275.88739)scale(0.22 -0.22)">
       <use xlink:href="#ArialMT-32"/>
      </g>
     </g>
    </g>
    <g id="ytick_5">
     <g id="line2d_13">
      <g>
       <use xlink:href="#m478757bf7a" x="172.8" y="169.386575" style="fill: #262626; stroke: #262626; stroke-width: 2.5"/>
      </g>
     </g>
     <g id="text_14">
      <!-- 4 -->
      <g style="fill: #262626" transform="translate(145.065937 177.260169)scale(0.22 -0.22)">
       <use xlink:href="#ArialMT-34"/>
      </g>
     </g>
    </g>
   </g>
   <g id="line2d_14">
    <path d="M 221.498182 364.030783 
L 222.797666 371.901952 
L 224.097151 371.901952 
L 224.746893 367.967339 
L 225.396635 367.967339 
L 226.046378 371.901952 
L 227.345862 371.901952 
L 227.995604 364.030783 
L 228.645347 371.901952 
L 229.295089 367.967339 
L 229.944831 360.092388 
L 230.594573 360.092388 
L 231.894058 367.967339 
L 232.5438 367.967339 
L 233.193542 375.834698 
L 233.843285 364.030783 
L 234.493027 371.901952 
L 235.792511 364.030783 
L 236.442254 356.152077 
L 237.091996 371.901952 
L 237.741738 367.967339 
L 238.39148 367.967339 
L 239.041223 364.030783 
L 239.690965 364.030783 
L 240.990449 371.901952 
L 241.640192 367.967339 
L 244.239161 367.967339 
L 244.888903 364.030783 
L 245.538645 371.901952 
L 246.188387 367.967339 
L 246.83813 360.092388 
L 248.137614 367.967339 
L 248.787356 364.030783 
L 249.437099 367.967339 
L 250.736583 367.967339 
L 251.386325 371.901952 
L 253.335552 371.901952 
L 253.985294 364.030783 
L 254.635037 367.967339 
L 255.934521 367.967339 
L 256.584263 364.030783 
L 257.234006 371.901952 
L 257.883748 375.834698 
L 258.53349 364.030783 
L 259.183232 364.030783 
L 259.832975 371.901952 
L 261.132459 371.901952 
L 261.782201 364.030783 
L 262.431944 367.967339 
L 263.081686 360.092388 
L 263.731428 364.030783 
L 264.38117 371.901952 
L 265.680655 364.030783 
L 266.330397 371.901952 
L 266.980139 364.030783 
L 267.629882 371.901952 
L 268.279624 364.030783 
L 268.929366 367.967339 
L 269.579108 360.092388 
L 270.878593 367.967339 
L 271.528335 367.967339 
L 272.178078 371.901952 
L 272.82782 364.030783 
L 273.477562 360.092388 
L 276.076531 375.834698 
L 276.726273 367.967339 
L 277.376016 367.967339 
L 278.025758 371.901952 
L 278.6755 371.901952 
L 279.325242 367.967339 
L 279.974985 379.765473 
L 280.624727 367.967339 
L 281.274469 364.030783 
L 281.924211 364.030783 
L 282.573954 360.092388 
L 283.873438 367.967339 
L 284.52318 367.967339 
L 285.172923 360.092388 
L 285.822665 364.030783 
L 286.472407 371.901952 
L 287.122149 360.092388 
L 287.771892 364.030783 
L 289.071376 364.030783 
L 289.721118 367.967339 
L 290.370861 364.030783 
L 291.020603 367.967339 
L 292.320087 360.092388 
L 292.96983 364.030783 
L 293.619572 360.092388 
L 294.919056 367.967339 
L 295.568799 367.967339 
L 296.218541 364.030783 
L 296.868283 367.967339 
L 297.518025 364.030783 
L 298.167768 371.901952 
L 299.467252 371.901952 
L 300.116994 364.030783 
L 300.766737 371.901952 
L 302.066221 364.030783 
L 302.715963 371.901952 
L 303.365706 364.030783 
L 304.015448 364.030783 
L 304.66519 367.967339 
L 305.314932 360.092388 
L 305.964675 367.967339 
L 306.614417 371.901952 
L 307.264159 367.967339 
L 307.913901 367.967339 
L 308.563644 360.092388 
L 309.213386 367.967339 
L 309.863128 367.967339 
L 310.51287 375.834698 
L 312.462097 364.030783 
L 313.111839 367.967339 
L 313.761582 364.030783 
L 314.411324 371.901952 
L 315.710808 364.030783 
L 316.360551 367.967339 
L 317.010293 360.092388 
L 317.660035 367.967339 
L 318.309777 364.030783 
L 318.95952 364.030783 
L 319.609262 367.967339 
L 320.259004 364.030783 
L 320.908746 367.967339 
L 322.208231 367.967339 
L 322.857973 360.092388 
L 323.507715 367.967339 
L 324.8072 367.967339 
L 325.456942 379.765473 
L 326.106684 379.765473 
L 326.756427 364.030783 
L 327.406169 360.092388 
L 328.055911 375.834698 
L 328.705653 371.901952 
L 329.355396 364.030783 
L 330.005138 375.834698 
L 330.65488 367.967339 
L 331.954365 375.834698 
L 332.604107 367.967339 
L 333.903591 367.967339 
L 334.553334 375.834698 
L 335.203076 364.030783 
L 335.852818 367.967339 
L 336.50256 367.967339 
L 337.152303 364.030783 
L 337.802045 375.834698 
L 338.451787 367.967339 
L 339.10153 364.030783 
L 339.751272 364.030783 
L 340.401014 371.901952 
L 341.050756 364.030783 
L 341.700499 367.967339 
L 342.350241 364.030783 
L 343.649725 371.901952 
L 344.299468 367.967339 
L 345.598952 367.967339 
L 346.248694 360.092388 
L 346.898437 367.967339 
L 347.548179 367.967339 
L 348.197921 375.834698 
L 348.847663 367.967339 
L 350.79689 367.967339 
L 351.446632 364.030783 
L 352.096375 367.967339 
L 352.746117 364.030783 
L 353.395859 364.030783 
L 354.045601 371.901952 
L 354.695344 367.967339 
L 355.345086 367.967339 
L 355.994828 364.030783 
L 356.64457 367.967339 
L 357.294313 364.030783 
L 357.944055 367.967339 
L 358.593797 379.765473 
L 359.243539 364.030783 
L 359.893282 364.030783 
L 360.543024 371.901952 
L 361.842508 371.901952 
L 362.492251 367.967339 
L 363.141993 371.901952 
L 363.791735 371.901952 
L 364.441477 364.030783 
L 367.040446 364.030783 
L 367.690189 371.901952 
L 368.339931 367.967339 
L 368.989673 371.901952 
L 369.639415 367.967339 
L 370.289158 375.834698 
L 370.9389 364.030783 
L 371.588642 367.967339 
L 372.238384 367.967339 
L 372.888127 364.030783 
L 374.837353 364.030783 
L 375.487096 360.092388 
L 376.136838 360.092388 
L 377.436322 367.967339 
L 378.086065 364.030783 
L 378.735807 364.030783 
L 379.385549 375.834698 
L 380.035291 360.092388 
L 380.685034 367.967339 
L 381.984518 367.967339 
L 382.63426 371.901952 
L 383.284003 360.092388 
L 383.933745 367.967339 
L 384.583487 364.030783 
L 385.233229 367.967339 
L 385.882972 367.967339 
L 386.532714 364.030783 
L 387.182456 367.967339 
L 387.832198 364.030783 
L 389.131683 371.901952 
L 389.781425 367.967339 
L 390.431167 371.901952 
L 391.08091 364.030783 
L 391.730652 367.967339 
L 392.380394 364.030783 
L 393.679879 364.030783 
L 394.329621 360.092388 
L 394.979363 371.901952 
L 395.629105 371.901952 
L 396.278848 364.030783 
L 396.92859 367.967339 
L 397.578332 364.030783 
L 398.228074 371.901952 
L 398.877817 360.092388 
L 399.527559 371.901952 
L 400.177301 367.967339 
L 400.827043 371.901952 
L 401.476786 371.901952 
L 402.126528 375.834698 
L 402.77627 371.901952 
L 404.075755 371.901952 
L 404.725497 364.030783 
L 405.375239 367.967339 
L 406.024982 364.030783 
L 406.674724 364.030783 
L 407.974208 371.901952 
L 408.623951 364.030783 
L 409.273693 367.967339 
L 409.923435 364.030783 
L 411.22292 364.030783 
L 411.872662 371.901952 
L 413.172146 364.030783 
L 413.821889 371.901952 
L 414.471631 371.901952 
L 415.121373 367.967339 
L 415.771115 371.901952 
L 416.420858 371.901952 
L 417.720342 364.030783 
L 418.370084 364.030783 
L 419.019827 367.967339 
L 419.669569 367.967339 
L 420.319311 364.030783 
L 420.969053 371.901952 
L 421.618796 364.030783 
L 422.268538 371.901952 
L 422.91828 364.030783 
L 423.568022 364.030783 
L 424.217765 367.967339 
L 425.517249 367.967339 
L 426.166991 371.901952 
L 426.816734 360.092388 
L 427.466476 367.967339 
L 428.116218 364.030783 
L 428.76596 375.834698 
L 429.415703 364.030783 
L 430.065445 360.092388 
L 430.715187 360.092388 
L 431.364929 367.967339 
L 432.014672 364.030783 
L 432.664414 367.967339 
L 433.314156 367.967339 
L 433.963898 360.092388 
L 435.263383 367.967339 
L 435.913125 367.967339 
L 436.562867 371.901952 
L 437.21261 367.967339 
L 439.161836 367.967339 
L 439.811579 364.030783 
L 440.461321 367.967339 
L 441.111063 375.834698 
L 442.410548 360.092388 
L 443.06029 371.901952 
L 443.710032 367.967339 
L 444.359774 371.901952 
L 445.009517 360.092388 
L 445.659259 367.967339 
L 446.309001 356.152077 
L 446.958743 367.967339 
L 447.608486 367.967339 
L 448.258228 364.030783 
L 449.557712 364.030783 
L 450.207455 367.967339 
L 452.156681 367.967339 
L 452.806424 364.030783 
L 454.105908 379.765473 
L 454.75565 364.030783 
L 455.405393 367.967339 
L 456.055135 367.967339 
L 456.704877 371.901952 
L 457.354619 360.092388 
L 458.004362 367.967339 
L 458.654104 364.030783 
L 459.953588 364.030783 
L 460.603331 367.967339 
L 461.253073 367.967339 
L 461.902815 371.901952 
L 462.552557 364.030783 
L 463.2023 367.967339 
L 463.852042 360.092388 
L 464.501784 364.030783 
L 465.151526 364.030783 
L 465.801269 371.901952 
L 467.100753 371.901952 
L 467.750495 367.967339 
L 468.400238 367.967339 
L 469.04998 364.030783 
L 469.699722 371.901952 
L 470.349464 371.901952 
L 470.999207 367.967339 
L 471.648949 367.967339 
L 472.948434 360.092388 
L 473.598176 364.030783 
L 474.247918 371.901952 
L 474.89766 364.030783 
L 476.197145 371.901952 
L 476.846887 367.967339 
L 478.146372 367.967339 
L 478.796114 360.092388 
L 479.445856 367.967339 
L 480.095598 371.901952 
L 480.745341 367.967339 
L 481.395083 367.967339 
L 482.694567 360.092388 
L 483.34431 371.901952 
L 484.643794 371.901952 
L 485.293536 364.030783 
L 485.943279 379.765473 
L 486.593021 367.967339 
L 487.242763 367.967339 
L 487.892505 371.901952 
L 488.542248 367.967339 
L 489.19199 367.967339 
L 489.841732 364.030783 
L 491.141217 371.901952 
L 491.790959 364.030783 
L 492.440701 371.901952 
L 493.090443 371.901952 
L 493.740186 364.030783 
L 495.03967 364.030783 
L 496.339155 371.901952 
L 496.988897 371.901952 
L 497.638639 367.967339 
L 498.288381 367.967339 
L 498.938124 364.030783 
L 499.587866 371.901952 
L 500.237608 364.030783 
L 500.88735 367.967339 
L 501.537093 367.967339 
L 502.186835 356.152077 
L 502.836577 364.030783 
L 503.486319 367.967339 
L 504.136062 364.030783 
L 504.785804 371.901952 
L 505.435546 367.967339 
L 506.085288 367.967339 
L 506.735031 364.030783 
L 508.034515 371.901952 
L 508.684257 367.967339 
L 509.334 371.901952 
L 509.983742 371.901952 
L 510.633484 364.030783 
L 511.283226 360.092388 
L 511.932969 367.967339 
L 512.582711 364.030783 
L 513.232453 367.967339 
L 514.531938 360.092388 
L 515.18168 367.967339 
L 515.831422 364.030783 
L 516.481164 367.967339 
L 517.130907 364.030783 
L 517.780649 367.967339 
L 518.430391 364.030783 
L 519.729876 364.030783 
L 520.379618 367.967339 
L 521.02936 367.967339 
L 521.679102 364.030783 
L 522.328845 367.967339 
L 522.978587 364.030783 
L 523.628329 375.834698 
L 524.278071 375.834698 
L 524.927814 367.967339 
L 525.577556 364.030783 
L 526.227298 375.834698 
L 526.87704 364.030783 
L 527.526783 371.901952 
L 528.176525 367.967339 
L 528.826267 375.834698 
L 529.476009 364.030783 
L 530.125752 371.901952 
L 530.775494 371.901952 
L 531.425236 364.030783 
L 532.074978 364.030783 
L 532.724721 360.092388 
L 533.374463 367.967339 
L 534.024205 371.901952 
L 534.673947 360.092388 
L 535.32369 371.901952 
L 535.973432 367.967339 
L 536.623174 367.967339 
L 537.272916 356.152077 
L 537.922659 367.967339 
L 538.572401 371.901952 
L 539.222143 360.092388 
L 539.871885 371.901952 
L 540.521628 356.152077 
L 541.17137 367.967339 
L 541.821112 367.967339 
L 542.470855 371.901952 
L 543.120597 371.901952 
L 543.770339 364.030783 
L 544.420081 371.901952 
L 545.069824 371.901952 
L 545.719566 364.030783 
L 546.369308 371.901952 
L 547.668793 364.030783 
L 548.318535 364.030783 
L 548.968277 356.152077 
L 549.618019 364.030783 
L 550.267762 364.030783 
L 550.917504 360.092388 
L 551.567246 364.030783 
L 552.216988 371.901952 
L 552.866731 364.030783 
L 553.516473 360.092388 
L 554.166215 364.030783 
L 554.815957 371.901952 
L 556.115442 364.030783 
L 556.765184 367.967339 
L 557.414926 367.967339 
L 558.064669 360.092388 
L 558.714411 375.834698 
L 559.364153 364.030783 
L 560.013895 367.967339 
L 560.663638 367.967339 
L 561.31338 371.901952 
L 561.963122 371.901952 
L 562.612864 364.030783 
L 563.262607 375.834698 
L 563.912349 367.967339 
L 564.562091 367.967339 
L 565.861576 375.834698 
L 566.511318 375.834698 
L 567.16106 367.967339 
L 567.810802 375.834698 
L 568.460545 371.901952 
L 569.110287 371.901952 
L 569.760029 379.765473 
L 570.409771 371.901952 
L 571.059514 371.901952 
L 571.709256 375.834698 
L 573.00874 375.834698 
L 573.658483 391.546152 
L 574.308225 387.621236 
L 574.957967 375.834698 
L 575.607709 387.621236 
L 576.257452 395.469131 
L 576.907194 395.469131 
L 577.556936 391.546152 
L 578.206678 407.225959 
L 578.856421 399.390071 
L 580.155905 407.225959 
L 580.805647 399.390071 
L 581.45539 411.140835 
L 582.105132 418.964474 
L 583.404616 426.779811 
L 584.704101 442.385162 
L 585.353843 430.684357 
L 586.003585 442.385162 
L 586.653328 450.174965 
L 587.30307 450.174965 
L 587.952812 461.843264 
L 589.252297 461.843264 
L 589.902039 473.491595 
L 590.551781 477.369904 
L 591.201523 485.119612 
L 591.851266 481.245899 
L 592.501008 492.860186 
L 593.800492 500.591482 
L 596.399461 531.421912 
L 597.049204 523.728711 
L 598.348688 539.105304 
L 600.297915 550.611962 
L 600.947657 562.096076 
L 601.597399 562.096076 
L 602.247142 569.739512 
L 602.896884 565.919045 
L 603.546626 573.557377 
L 604.196368 569.739512 
L 604.846111 581.185432 
L 605.495853 573.557377 
L 606.145595 581.185432 
L 606.795337 592.608028 
L 607.44508 588.803121 
L 608.094822 588.803121 
L 608.744564 592.608028 
L 609.394307 588.803121 
L 610.044049 588.803121 
L 610.693791 596.410354 
L 611.343533 600.21 
L 611.993276 596.410354 
L 612.643018 596.410354 
L 613.29276 600.21 
L 613.942502 596.410354 
L 614.592245 596.410354 
L 615.241987 584.9956 
L 615.891729 588.803121 
L 616.541471 588.803121 
L 617.191214 584.9956 
L 617.840956 577.372716 
L 618.490698 577.372716 
L 619.14044 569.739512 
L 619.790183 573.557377 
L 620.439925 565.919045 
L 621.089667 565.919045 
L 621.739409 562.096076 
L 622.389152 554.442501 
L 623.038894 550.611962 
L 623.688636 554.442501 
L 624.338378 539.105304 
L 624.988121 535.264834 
L 625.637863 539.105304 
L 626.287605 523.728711 
L 626.937347 512.170789 
L 627.58709 516.025842 
L 628.236832 508.313399 
L 628.886574 488.991075 
L 629.536316 504.453641 
L 630.186059 481.245899 
L 631.485543 473.491595 
L 632.135285 465.728262 
L 632.785028 454.066581 
L 633.43477 450.174965 
L 634.084512 434.586743 
L 634.734254 422.873209 
L 635.383997 415.053707 
L 636.033739 418.964474 
L 636.683481 403.309048 
L 637.333223 399.390071 
L 637.982966 387.621236 
L 638.632708 371.901952 
L 639.28245 364.030783 
L 639.932192 364.030783 
L 640.581935 352.209955 
L 641.881419 336.423097 
L 643.180904 312.689575 
L 643.830646 304.764637 
L 644.480388 292.86476 
L 645.13013 284.923337 
L 645.779873 284.923337 
L 646.429615 269.021441 
L 647.079357 261.061229 
L 647.729099 249.109604 
L 648.378842 241.134513 
L 649.028584 237.144811 
L 649.678326 237.144811 
L 650.328068 217.17536 
L 650.977811 209.178096 
L 651.627553 209.178096 
L 652.277295 201.175566 
L 652.927037 185.155293 
L 653.57678 181.147135 
L 654.226522 185.155293 
L 654.876264 181.147135 
L 656.175749 165.102637 
L 656.825491 161.088625 
L 657.475233 153.057265 
L 658.124975 153.057265 
L 658.774718 145.021513 
L 659.42446 145.021513 
L 660.074202 136.981518 
L 660.723944 136.981518 
L 662.023429 128.937429 
L 662.673171 120.889328 
L 663.322913 124.913869 
L 663.972656 116.863822 
L 664.622398 120.889328 
L 665.921882 120.889328 
L 666.571625 116.863822 
L 667.221367 108.81 
L 667.871109 120.889328 
L 668.520851 116.863822 
L 669.170594 116.863822 
L 669.820336 124.913869 
L 670.470078 124.913869 
L 671.11982 128.937429 
L 672.419305 128.937429 
L 673.718789 136.981518 
L 674.368532 132.959991 
L 675.018274 145.021513 
L 675.668016 141.002038 
L 676.967501 157.07351 
L 677.617243 153.057265 
L 678.266985 161.088625 
L 678.916728 177.137775 
L 679.56647 185.155293 
L 680.216212 177.137775 
L 680.865954 189.16221 
L 682.165439 205.177479 
L 682.815181 205.177479 
L 683.464923 221.171999 
L 684.114666 229.161191 
L 684.764408 229.161191 
L 685.41415 237.144811 
L 686.063892 237.144811 
L 686.713635 253.094962 
L 687.363377 257.078842 
L 690.612088 296.833017 
L 691.26183 296.833017 
L 692.561315 320.607716 
L 693.211057 324.564178 
L 693.860799 332.471906 
L 694.510542 332.471906 
L 695.160284 348.265991 
L 695.810026 356.152077 
L 696.459768 360.092388 
L 697.109511 375.834698 
L 697.759253 383.694309 
L 698.408995 383.694309 
L 699.058737 379.765473 
L 699.70848 403.309048 
L 701.007964 411.140835 
L 701.657706 422.873209 
L 702.307449 426.779811 
L 703.606933 442.385162 
L 704.256675 446.281125 
L 704.906418 446.281125 
L 705.55616 457.956048 
L 706.205902 457.956048 
L 706.855644 473.491595 
L 707.505387 469.611072 
L 708.155129 481.245899 
L 708.804871 477.369904 
L 709.454613 485.119612 
L 710.104356 488.991075 
L 711.40384 488.991075 
L 712.053582 504.453641 
L 712.703325 500.591482 
L 713.353067 508.313399 
L 714.002809 504.453641 
L 714.652551 508.313399 
L 715.302294 500.591482 
L 715.952036 508.313399 
L 716.601778 519.878458 
L 717.25152 512.170789 
L 717.901263 519.878458 
L 719.200747 512.170789 
L 719.850489 519.878458 
L 720.500232 519.878458 
L 721.149974 516.025842 
L 721.799716 519.878458 
L 722.449458 519.878458 
L 723.099201 516.025842 
L 723.748943 516.025842 
L 724.398685 519.878458 
L 725.69817 512.170789 
L 726.997654 512.170789 
L 727.647396 508.313399 
L 728.297139 508.313399 
L 728.946881 500.591482 
L 729.596623 508.313399 
L 730.246365 504.453641 
L 730.896108 488.991075 
L 731.54585 492.860186 
L 732.195592 485.119612 
L 732.845334 485.119612 
L 733.495077 477.369904 
L 734.144819 477.369904 
L 736.094046 465.728262 
L 736.743788 465.728262 
L 737.39353 457.956048 
L 738.043272 454.066581 
L 738.693015 446.281125 
L 739.342757 446.281125 
L 741.941726 415.053707 
L 742.591468 415.053707 
L 743.241211 418.964474 
L 743.890953 411.140835 
L 744.540695 395.469131 
L 745.190437 399.390071 
L 745.84018 395.469131 
L 746.489922 383.694309 
L 747.139664 383.694309 
L 747.789406 371.901952 
L 748.439149 371.901952 
L 749.088891 367.967339 
L 749.738633 360.092388 
L 750.388375 356.152077 
L 751.038118 348.265991 
L 751.68786 344.320154 
L 752.337602 336.423097 
L 752.987344 336.423097 
L 753.637087 332.471906 
L 754.286829 320.607716 
L 754.936571 320.607716 
L 755.586313 308.727926 
L 756.236056 312.689575 
L 756.885798 304.764637 
L 757.53554 308.727926 
L 758.185282 288.894832 
L 759.484767 288.894832 
L 760.784251 272.999282 
L 761.433994 269.021441 
L 762.083736 269.021441 
L 762.733478 265.042086 
L 763.38322 257.078842 
L 764.032963 261.061229 
L 764.682705 241.134513 
L 765.982189 249.109604 
L 766.631932 241.134513 
L 767.281674 237.144811 
L 767.931416 237.144811 
L 768.581158 233.153714 
L 769.230901 237.144811 
L 769.880643 225.167281 
L 770.530385 229.161191 
L 771.180127 221.171999 
L 771.82987 225.167281 
L 772.479612 221.171999 
L 773.129354 221.171999 
L 773.779096 225.167281 
L 774.428839 217.17536 
L 775.078581 217.17536 
L 775.728323 225.167281 
L 776.378065 217.17536 
L 777.027808 213.17738 
L 777.67755 217.17536 
L 778.327292 213.17738 
L 778.977034 221.171999 
L 779.626777 213.17738 
L 780.276519 217.17536 
L 780.926261 213.17738 
L 781.576003 213.17738 
L 782.875488 229.161191 
L 783.52523 221.171999 
L 784.174972 221.171999 
L 784.824715 225.167281 
L 786.124199 225.167281 
L 786.773941 229.161191 
L 787.423684 225.167281 
L 788.073426 229.161191 
L 788.723168 241.134513 
L 789.37291 237.144811 
L 790.672395 245.122783 
L 791.971879 245.122783 
L 792.621622 257.078842 
L 793.921106 257.078842 
L 794.570848 276.975524 
L 795.220591 261.061229 
L 795.870333 265.042086 
L 796.520075 276.975524 
L 797.169817 280.950199 
L 797.81956 280.950199 
L 798.469302 288.894832 
L 799.119044 292.86476 
L 799.768786 292.86476 
L 800.418529 288.894832 
L 801.068271 308.727926 
L 801.718013 312.689575 
L 802.367755 312.689575 
L 803.66724 328.518898 
L 804.316982 324.564178 
L 804.966724 324.564178 
L 806.266209 332.471906 
L 807.565693 348.265991 
L 808.215436 352.209955 
L 808.865178 348.265991 
L 809.51492 352.209955 
L 810.164663 367.967339 
L 810.814405 367.967339 
L 811.464147 375.834698 
L 812.113889 371.901952 
L 812.763632 383.694309 
L 813.413374 387.621236 
L 814.063116 395.469131 
L 814.712858 391.546152 
L 815.362601 403.309048 
L 816.012343 407.225959 
L 816.662085 395.469131 
L 817.311827 411.140835 
L 817.96157 415.053707 
L 818.611312 415.053707 
L 819.261054 422.873209 
L 819.910796 418.964474 
L 821.210281 426.779811 
L 821.860023 434.586743 
L 822.509765 434.586743 
L 823.159508 438.487001 
L 823.80925 446.281125 
L 824.458992 442.385162 
L 825.108734 450.174965 
L 825.758477 454.066581 
L 826.408219 450.174965 
L 827.707703 457.956048 
L 828.357446 454.066581 
L 829.007188 446.281125 
L 830.306672 469.611072 
L 830.956415 457.956048 
L 831.606157 465.728262 
L 832.255899 457.956048 
L 832.905641 457.956048 
L 833.555384 465.728262 
L 834.854868 465.728262 
L 835.50461 469.611072 
L 836.154353 469.611072 
L 836.804095 465.728262 
L 837.453837 465.728262 
L 838.103579 469.611072 
L 838.753322 465.728262 
L 840.052806 465.728262 
L 840.702548 461.843264 
L 842.002033 461.843264 
L 843.301517 446.281125 
L 843.95126 450.174965 
L 844.601002 450.174965 
L 845.250744 446.281125 
L 845.900486 446.281125 
L 846.550229 442.385162 
L 847.849713 442.385162 
L 848.499455 438.487001 
L 849.149198 438.487001 
L 849.79894 434.586743 
L 850.448682 426.779811 
L 851.098424 422.873209 
L 851.748167 426.779811 
L 852.397909 422.873209 
L 853.047651 415.053707 
L 853.697393 415.053707 
L 854.347136 403.309048 
L 855.64662 403.309048 
L 860.194816 375.834698 
L 860.844558 383.694309 
L 861.4943 371.901952 
L 862.144043 367.967339 
L 863.443527 367.967339 
L 864.743012 352.209955 
L 865.392754 348.265991 
L 866.042496 340.372548 
L 867.341981 340.372548 
L 867.991723 336.423097 
L 868.641465 336.423097 
L 869.94095 328.518898 
L 870.590692 320.607716 
L 871.240434 324.564178 
L 871.890176 324.564178 
L 872.539919 316.64948 
L 873.189661 324.564178 
L 873.839403 308.727926 
L 874.489145 308.727926 
L 875.138888 312.689575 
L 875.78863 312.689575 
L 876.438372 300.799677 
L 877.088115 308.727926 
L 877.737857 300.799677 
L 879.037341 292.86476 
L 879.687084 292.86476 
L 880.986568 300.799677 
L 881.63631 300.799677 
L 882.286053 296.833017 
L 882.935795 296.833017 
L 883.585537 288.894832 
L 884.235279 288.894832 
L 884.885022 296.833017 
L 885.534764 300.799677 
L 886.184506 292.86476 
L 886.834248 296.833017 
L 887.483991 292.86476 
L 888.133733 296.833017 
L 888.783475 296.833017 
L 889.433217 288.894832 
L 890.08296 292.86476 
L 890.732702 304.764637 
L 892.032186 296.833017 
L 892.681929 300.799677 
L 893.331671 288.894832 
L 893.981413 304.764637 
L 894.631155 316.64948 
L 895.280898 312.689575 
L 895.93064 316.64948 
L 897.879867 316.64948 
L 898.529609 320.607716 
L 899.179351 316.64948 
L 899.829093 324.564178 
L 900.478836 320.607716 
L 901.77832 328.518898 
L 902.428062 336.423097 
L 903.077805 328.518898 
L 903.727547 336.423097 
L 904.377289 340.372548 
L 905.027031 348.265991 
L 905.676774 344.320154 
L 906.326516 348.265991 
L 906.976258 348.265991 
L 907.626 344.320154 
L 908.275743 356.152077 
L 908.925485 356.152077 
L 909.575227 360.092388 
L 910.224969 360.092388 
L 910.874712 367.967339 
L 911.524454 371.901952 
L 912.174196 364.030783 
L 912.823938 371.901952 
L 913.473681 371.901952 
L 914.123423 383.694309 
L 914.773165 379.765473 
L 915.422907 379.765473 
L 917.372134 391.546152 
L 918.021876 391.546152 
L 918.671619 399.390071 
L 919.321361 395.469131 
L 920.620845 411.140835 
L 921.92033 403.309048 
L 922.570072 407.225959 
L 923.219814 415.053707 
L 923.869557 407.225959 
L 924.519299 415.053707 
L 925.169041 418.964474 
L 925.818783 415.053707 
L 927.118268 422.873209 
L 927.76801 422.873209 
L 928.417752 434.586743 
L 929.067495 426.779811 
L 929.717237 434.586743 
L 930.366979 426.779811 
L 931.016721 434.586743 
L 931.666464 430.684357 
L 932.316206 434.586743 
L 932.965948 430.684357 
L 933.61569 430.684357 
L 934.265433 434.586743 
L 935.564917 434.586743 
L 936.214659 426.779811 
L 936.864402 430.684357 
L 937.514144 438.487001 
L 938.163886 434.586743 
L 938.813628 434.586743 
L 939.463371 442.385162 
L 940.113113 446.281125 
L 940.762855 434.586743 
L 941.412597 442.385162 
L 942.06234 442.385162 
L 944.661309 426.779811 
L 945.311051 430.684357 
L 945.960793 438.487001 
L 946.610536 438.487001 
L 947.260278 434.586743 
L 947.91002 434.586743 
L 948.559762 430.684357 
L 949.859247 430.684357 
L 950.508989 422.873209 
L 951.158731 426.779811 
L 951.808474 434.586743 
L 952.458216 426.779811 
L 953.107958 426.779811 
L 953.7577 430.684357 
L 954.407443 426.779811 
L 955.057185 418.964474 
L 955.706927 418.964474 
L 956.356669 430.684357 
L 957.006412 418.964474 
L 957.656154 415.053707 
L 958.305896 422.873209 
L 958.955638 415.053707 
L 959.605381 418.964474 
L 960.904865 411.140835 
L 961.554607 411.140835 
L 962.20435 415.053707 
L 962.854092 411.140835 
L 963.503834 411.140835 
L 964.153576 415.053707 
L 964.803319 403.309048 
L 965.453061 415.053707 
L 966.102803 415.053707 
L 967.402288 399.390071 
L 968.701772 399.390071 
L 969.351514 403.309048 
L 970.650999 403.309048 
L 971.300741 391.546152 
L 971.950483 395.469131 
L 972.600226 391.546152 
L 973.249968 391.546152 
L 973.89971 387.621236 
L 977.798164 387.621236 
L 978.447906 371.901952 
L 979.097648 379.765473 
L 980.397133 379.765473 
L 981.046875 375.834698 
L 981.696617 364.030783 
L 982.346359 375.834698 
L 982.996102 367.967339 
L 983.645844 367.967339 
L 984.295586 371.901952 
L 985.595071 371.901952 
L 986.244813 367.967339 
L 986.894555 379.765473 
L 987.544297 371.901952 
L 988.19404 367.967339 
L 988.843782 375.834698 
L 989.493524 364.030783 
L 990.143266 364.030783 
L 990.793009 360.092388 
L 991.442751 364.030783 
L 992.092493 364.030783 
L 992.742235 356.152077 
L 993.391978 367.967339 
L 994.691462 360.092388 
L 995.990947 360.092388 
L 996.640689 364.030783 
L 999.239658 364.030783 
L 999.8894 367.967339 
L 1000.539142 356.152077 
L 1001.188885 364.030783 
L 1001.838627 364.030783 
L 1002.488369 367.967339 
L 1003.138111 360.092388 
L 1003.787854 360.092388 
L 1004.437596 367.967339 
L 1005.087338 371.901952 
L 1006.386823 364.030783 
L 1007.036565 364.030783 
L 1007.686307 371.901952 
L 1008.336049 364.030783 
L 1008.985792 360.092388 
L 1009.635534 375.834698 
L 1010.285276 371.901952 
L 1010.935018 375.834698 
L 1012.884245 375.834698 
L 1013.533988 367.967339 
L 1014.18373 379.765473 
L 1015.483214 379.765473 
L 1016.132957 383.694309 
L 1016.782699 367.967339 
L 1018.082183 391.546152 
L 1018.731926 383.694309 
L 1019.381668 387.621236 
L 1020.03141 383.694309 
L 1020.681152 395.469131 
L 1021.980637 395.469131 
L 1023.280121 403.309048 
L 1023.929864 399.390071 
L 1024.579606 407.225959 
L 1025.229348 407.225959 
L 1025.87909 403.309048 
L 1026.528833 407.225959 
L 1027.828317 407.225959 
L 1028.478059 411.140835 
L 1029.127802 407.225959 
L 1029.777544 415.053707 
L 1030.427286 415.053707 
L 1031.077028 411.140835 
L 1031.726771 411.140835 
L 1033.026255 418.964474 
L 1033.675997 411.140835 
L 1034.32574 418.964474 
L 1035.625224 418.964474 
L 1036.274966 426.779811 
L 1036.924709 426.779811 
L 1037.574451 418.964474 
L 1038.873935 426.779811 
L 1039.523678 422.873209 
L 1040.823162 430.684357 
L 1041.472904 430.684357 
L 1042.122647 426.779811 
L 1042.772389 434.586743 
L 1043.422131 426.779811 
L 1044.071873 426.779811 
L 1044.721616 430.684357 
L 1045.371358 430.684357 
L 1046.0211 426.779811 
L 1046.670842 426.779811 
L 1047.320585 422.873209 
L 1047.970327 426.779811 
L 1048.620069 426.779811 
L 1049.269811 434.586743 
L 1049.919554 422.873209 
L 1050.569296 430.684357 
L 1051.219038 426.779811 
L 1052.518523 426.779811 
L 1053.168265 430.684357 
L 1053.818007 430.684357 
L 1054.467749 426.779811 
L 1055.117492 430.684357 
L 1055.767234 422.873209 
L 1056.416976 422.873209 
L 1057.066718 418.964474 
L 1057.716461 426.779811 
L 1058.366203 418.964474 
L 1059.015945 422.873209 
L 1059.665687 415.053707 
L 1060.31543 415.053707 
L 1060.965172 422.873209 
L 1061.614914 418.964474 
L 1062.264656 411.140835 
L 1062.914399 411.140835 
L 1063.564141 415.053707 
L 1064.213883 411.140835 
L 1064.863625 411.140835 
L 1066.16311 403.309048 
L 1066.812852 407.225959 
L 1067.462594 399.390071 
L 1068.112337 403.309048 
L 1068.762079 399.390071 
L 1069.411821 391.546152 
L 1070.061563 391.546152 
L 1070.711306 387.621236 
L 1071.361048 387.621236 
L 1072.01079 391.546152 
L 1072.660532 383.694309 
L 1073.310275 383.694309 
L 1073.960017 391.546152 
L 1074.609759 383.694309 
L 1075.259501 383.694309 
L 1075.909244 387.621236 
L 1076.558986 375.834698 
L 1077.208728 383.694309 
L 1077.85847 375.834698 
L 1078.508213 375.834698 
L 1079.157955 371.901952 
L 1079.807697 383.694309 
L 1080.45744 367.967339 
L 1081.107182 375.834698 
L 1081.756924 367.967339 
L 1083.056409 360.092388 
L 1085.005635 371.901952 
L 1085.655378 364.030783 
L 1086.30512 360.092388 
L 1086.954862 360.092388 
L 1087.604604 356.152077 
L 1088.254347 360.092388 
L 1088.904089 356.152077 
L 1089.553831 360.092388 
L 1090.203573 360.092388 
L 1090.853316 352.209955 
L 1091.503058 352.209955 
L 1092.1528 356.152077 
L 1093.452285 348.265991 
L 1094.102027 356.152077 
L 1094.751769 352.209955 
L 1096.700996 352.209955 
L 1097.350738 360.092388 
L 1099.299965 348.265991 
L 1100.599449 356.152077 
L 1101.249192 356.152077 
L 1101.898934 360.092388 
L 1102.548676 360.092388 
L 1103.198418 352.209955 
L 1103.848161 352.209955 
L 1104.497903 356.152077 
L 1105.147645 352.209955 
L 1105.797387 360.092388 
L 1106.44713 352.209955 
L 1107.096872 356.152077 
L 1107.746614 356.152077 
L 1109.046099 364.030783 
L 1109.695841 360.092388 
L 1110.345583 360.092388 
L 1111.645068 367.967339 
L 1112.29481 360.092388 
L 1112.944552 364.030783 
L 1113.594294 364.030783 
L 1114.244037 371.901952 
L 1114.893779 375.834698 
L 1115.543521 371.901952 
L 1116.843006 371.901952 
L 1117.492748 379.765473 
L 1118.14249 367.967339 
L 1118.792232 375.834698 
L 1119.441975 375.834698 
L 1120.091717 371.901952 
L 1120.741459 375.834698 
L 1121.391201 375.834698 
L 1122.040944 379.765473 
L 1122.690686 375.834698 
L 1123.340428 375.834698 
L 1125.289655 387.621236 
L 1126.589139 379.765473 
L 1127.238882 387.621236 
L 1128.538366 387.621236 
L 1129.188108 383.694309 
L 1129.837851 395.469131 
L 1130.487593 387.621236 
L 1131.137335 395.469131 
L 1131.787077 391.546152 
L 1132.43682 391.546152 
L 1133.086562 399.390071 
L 1133.736304 391.546152 
L 1134.386046 395.469131 
L 1135.035789 391.546152 
L 1135.685531 383.694309 
L 1136.335273 395.469131 
L 1136.985015 391.546152 
L 1137.634758 399.390071 
L 1138.934242 391.546152 
L 1139.583984 395.469131 
L 1141.533211 395.469131 
L 1142.182953 387.621236 
L 1142.832696 387.621236 
L 1144.13218 395.469131 
L 1145.431665 387.621236 
L 1146.081407 391.546152 
L 1146.731149 391.546152 
L 1147.380892 387.621236 
L 1148.030634 391.546152 
L 1150.629603 391.546152 
L 1151.279345 383.694309 
L 1151.929087 387.621236 
L 1152.57883 383.694309 
L 1153.228572 387.621236 
L 1153.878314 383.694309 
L 1154.528056 387.621236 
L 1155.177799 383.694309 
L 1155.827541 387.621236 
L 1156.477283 387.621236 
L 1157.127025 391.546152 
L 1157.776768 383.694309 
L 1158.42651 387.621236 
L 1159.076252 375.834698 
L 1159.725994 383.694309 
L 1160.375737 383.694309 
L 1161.675221 375.834698 
L 1162.324963 375.834698 
L 1162.974706 383.694309 
L 1163.624448 367.967339 
L 1164.27419 371.901952 
L 1164.923932 379.765473 
L 1165.573675 375.834698 
L 1166.223417 375.834698 
L 1167.522901 367.967339 
L 1168.172644 375.834698 
L 1168.822386 379.765473 
L 1169.472128 371.901952 
L 1170.12187 367.967339 
L 1170.771613 371.901952 
L 1172.071097 364.030783 
L 1172.720839 364.030783 
L 1173.370582 367.967339 
L 1174.020324 360.092388 
L 1174.670066 364.030783 
L 1175.319808 356.152077 
L 1175.969551 360.092388 
L 1176.619293 356.152077 
L 1177.918777 356.152077 
L 1178.56852 352.209955 
L 1179.218262 360.092388 
L 1179.868004 356.152077 
L 1180.517746 348.265991 
L 1181.817231 356.152077 
L 1182.466973 348.265991 
L 1183.116715 352.209955 
L 1183.766458 352.209955 
L 1184.4162 344.320154 
L 1185.065942 352.209955 
L 1185.715684 352.209955 
L 1186.365427 340.372548 
L 1187.015169 344.320154 
L 1187.664911 352.209955 
L 1188.314653 340.372548 
L 1188.964396 340.372548 
L 1189.614138 348.265991 
L 1190.26388 340.372548 
L 1190.913622 336.423097 
L 1191.563365 340.372548 
L 1192.213107 328.518898 
L 1192.862849 344.320154 
L 1193.512591 332.471906 
L 1194.162334 332.471906 
L 1194.812076 336.423097 
L 1195.461818 332.471906 
L 1195.461818 332.471906 
" clip-path="url(#p8df1fe2f5d)" style="fill: none; stroke: #4c72b0; stroke-width: 3; stroke-linecap: round"/>
   </g>
   <g id="line2d_15">
    <path d="M 221.498182 369.486713 
L 222.147924 369.36735 
L 222.797666 369.694341 
L 223.447409 368.936585 
L 224.097151 369.325358 
L 224.746893 368.944452 
L 226.046378 368.577824 
L 226.69612 369.073205 
L 227.345862 368.355937 
L 228.645347 367.679247 
L 229.295089 367.719825 
L 229.944831 367.987499 
L 230.594573 367.948023 
L 231.244316 367.158665 
L 231.894058 366.700505 
L 232.5438 366.407978 
L 233.843285 366.34704 
L 235.142769 366.519088 
L 235.792511 366.248203 
L 236.442254 366.43969 
L 237.091996 367.036092 
L 237.741738 367.440915 
L 238.39148 367.277395 
L 239.041223 367.696174 
L 239.690965 367.773908 
L 240.990449 367.035932 
L 241.640192 366.589494 
L 242.939676 366.260668 
L 243.589418 366.655018 
L 244.239161 366.903822 
L 244.888903 367.33008 
L 245.538645 367.614724 
L 246.188387 367.695974 
L 246.83813 367.446129 
L 247.487872 367.527696 
L 248.137614 367.35591 
L 248.787356 367.792078 
L 249.437099 367.947226 
L 250.086841 367.659817 
L 250.736583 367.59174 
L 251.386325 367.800608 
L 252.036068 368.224828 
L 252.68581 368.421773 
L 253.335552 368.938075 
L 253.985294 369.173259 
L 255.284779 368.893789 
L 255.934521 369.302478 
L 257.234006 368.985136 
L 257.883748 368.512673 
L 258.53349 368.578723 
L 259.183232 368.194183 
L 259.832975 368.286641 
L 260.482717 368.094004 
L 261.132459 367.68206 
L 262.431944 367.220737 
L 263.081686 367.398626 
L 263.731428 367.754129 
L 265.030913 367.147143 
L 266.980139 365.872209 
L 267.629882 365.978044 
L 268.279624 366.223072 
L 268.929366 366.003383 
L 270.228851 365.819407 
L 270.878593 366.412655 
L 271.528335 367.233212 
L 272.178078 367.619188 
L 272.82782 368.278754 
L 274.127304 368.066664 
L 274.777047 368.303742 
L 275.426789 368.718551 
L 276.726273 368.603012 
L 277.376016 368.742772 
L 278.025758 369.010138 
L 278.6755 368.866808 
L 279.325242 368.859257 
L 279.974985 368.221488 
L 281.274469 367.50311 
L 281.924211 367.322509 
L 282.573954 367.500972 
L 283.223696 367.057254 
L 284.52318 365.75783 
L 285.172923 365.025554 
L 285.822665 364.564292 
L 286.472407 364.601205 
L 287.122149 364.155517 
L 289.721118 363.34218 
L 290.370861 364.304606 
L 291.670345 364.725788 
L 292.320087 365.145739 
L 292.96983 364.96738 
L 293.619572 365.33357 
L 294.269314 365.859408 
L 295.568799 366.532145 
L 296.218541 366.555613 
L 296.868283 366.8621 
L 297.518025 366.843245 
L 298.167768 366.97615 
L 298.81751 367.418451 
L 299.467252 367.404075 
L 300.116994 367.599106 
L 300.766737 367.295606 
L 302.715963 367.799747 
L 304.015448 367.727116 
L 304.66519 367.370091 
L 305.314932 367.405881 
L 305.964675 367.611275 
L 306.614417 367.381998 
L 307.264159 367.645637 
L 307.913901 367.255163 
L 309.863128 367.665024 
L 310.51287 367.527731 
L 311.162613 367.583812 
L 311.812355 367.514202 
L 312.462097 367.257117 
L 313.111839 367.740038 
L 314.411324 367.108414 
L 315.061066 366.979129 
L 315.710808 365.954566 
L 316.360551 365.454189 
L 317.660035 366.520178 
L 318.309777 366.278591 
L 318.95952 365.887023 
L 319.609262 366.20364 
L 320.259004 365.977965 
L 320.908746 366.640988 
L 321.558489 367.046708 
L 322.208231 367.195127 
L 322.857973 367.562611 
L 323.507715 368.083803 
L 324.8072 368.713668 
L 325.456942 369.484095 
L 326.106684 369.795996 
L 326.756427 370.253649 
L 327.406169 370.410309 
L 328.055911 370.324112 
L 329.355396 370.610226 
L 330.005138 370.855478 
L 330.65488 370.464748 
L 331.304622 370.584699 
L 331.954365 370.449546 
L 332.604107 370.444228 
L 333.903591 369.163865 
L 335.203076 368.336692 
L 335.852818 368.532793 
L 336.50256 369.209314 
L 337.152303 368.72347 
L 337.802045 367.940599 
L 338.451787 367.584488 
L 339.10153 367.555034 
L 339.751272 367.124836 
L 340.401014 367.282702 
L 341.050756 367.105657 
L 342.999983 367.650899 
L 343.649725 367.693179 
L 344.299468 367.362566 
L 344.94921 367.709462 
L 345.598952 367.525981 
L 346.248694 367.677698 
L 347.548179 367.520617 
L 348.197921 367.819751 
L 348.847663 367.335402 
L 350.147148 367.49441 
L 350.79689 367.530134 
L 351.446632 367.254637 
L 353.395859 367.106006 
L 354.045601 367.330804 
L 355.345086 368.145466 
L 355.994828 368.458302 
L 356.64457 368.266704 
L 357.294313 368.336746 
L 357.944055 368.025939 
L 358.593797 368.384687 
L 359.243539 368.266882 
L 359.893282 368.376296 
L 360.543024 368.166717 
L 361.192766 368.561122 
L 361.842508 368.50892 
L 363.141993 368.65421 
L 363.791735 368.56668 
L 364.441477 368.798328 
L 365.740962 368.931153 
L 367.040446 368.406804 
L 367.690189 367.670125 
L 368.339931 367.276621 
L 368.989673 367.51464 
L 369.639415 366.538469 
L 371.588642 365.854858 
L 372.238384 365.783497 
L 372.888127 365.432873 
L 373.537869 365.891815 
L 374.187611 366.01746 
L 374.837353 365.975621 
L 376.136838 365.423484 
L 376.78658 365.290163 
L 377.436322 364.919614 
L 378.086065 365.139324 
L 378.735807 365.025949 
L 379.385549 365.026018 
L 380.035291 365.13953 
L 381.334776 365.933906 
L 381.984518 366.272271 
L 382.63426 366.828003 
L 384.583487 367.790004 
L 385.233229 367.548523 
L 385.882972 367.139342 
L 387.182456 366.847893 
L 387.832198 367.019503 
L 388.481941 366.622765 
L 389.781425 366.898166 
L 390.431167 366.546912 
L 392.380394 366.177296 
L 393.030136 366.557291 
L 393.679879 366.406627 
L 394.329621 366.644955 
L 396.278848 367.882867 
L 397.578332 368.262852 
L 398.228074 368.043154 
L 400.177301 369.01549 
L 400.827043 369.511805 
L 401.476786 369.577512 
L 402.77627 369.306215 
L 403.426012 369.284407 
L 404.075755 368.824032 
L 404.725497 368.140236 
L 406.024982 368.18049 
L 406.674724 367.815601 
L 407.974208 367.746107 
L 408.623951 367.9798 
L 409.273693 367.373962 
L 410.573177 367.211706 
L 411.22292 366.955078 
L 413.172146 367.58981 
L 413.821889 367.972659 
L 414.471631 368.21378 
L 415.121373 368.093944 
L 415.771115 368.155646 
L 416.420858 367.852409 
L 417.0706 368.045951 
L 417.720342 367.970311 
L 418.370084 368.295441 
L 419.019827 367.713294 
L 420.319311 368.004651 
L 420.969053 367.931434 
L 421.618796 367.373684 
L 422.268538 367.38231 
L 422.91828 367.033968 
L 423.568022 366.490198 
L 424.217765 366.678476 
L 424.867507 366.679151 
L 425.517249 366.33878 
L 427.466476 366.124035 
L 428.76596 365.723149 
L 429.415703 365.715207 
L 430.065445 365.908712 
L 431.364929 365.591717 
L 432.014672 365.581355 
L 432.664414 366.311002 
L 433.314156 366.091322 
L 434.613641 366.078639 
L 435.263383 366.662689 
L 435.913125 366.835852 
L 436.562867 367.753166 
L 437.21261 367.443706 
L 438.512094 367.54117 
L 439.161836 368.171012 
L 439.811579 368.248589 
L 441.111063 367.42273 
L 441.760805 367.335123 
L 442.410548 367.064028 
L 443.06029 367.152018 
L 443.710032 366.89498 
L 444.359774 365.965879 
L 446.958743 366.009278 
L 447.608486 366.475833 
L 448.258228 366.519565 
L 449.557712 366.944308 
L 450.857197 366.799155 
L 451.506939 367.189864 
L 452.806424 367.055826 
L 453.456166 367.330857 
L 454.75565 368.258079 
L 456.055135 367.917044 
L 456.704877 367.174863 
L 457.354619 367.007327 
L 458.004362 367.086913 
L 458.654104 366.967091 
L 459.303846 366.967116 
L 459.953588 366.540512 
L 460.603331 366.349169 
L 461.902815 366.43688 
L 465.151526 367.428391 
L 465.801269 367.476141 
L 466.451011 367.394219 
L 467.100753 367.786606 
L 467.750495 367.602577 
L 468.400238 367.765764 
L 469.04998 368.052847 
L 469.699722 367.859371 
L 470.349464 367.466561 
L 471.648949 367.498436 
L 472.298691 367.92312 
L 472.948434 368.086844 
L 473.598176 367.831792 
L 474.247918 367.215577 
L 474.89766 366.772993 
L 475.547403 366.657544 
L 476.197145 366.223229 
L 477.496629 366.870368 
L 478.146372 366.905728 
L 478.796114 367.164332 
L 479.445856 367.199652 
L 480.095598 367.777471 
L 480.745341 368.197655 
L 481.395083 368.302756 
L 482.044825 368.796697 
L 482.694567 368.690455 
L 483.34431 368.360794 
L 483.994052 368.504045 
L 484.643794 368.958515 
L 486.593021 368.896829 
L 487.242763 368.789051 
L 488.542248 368.996134 
L 489.841732 368.535732 
L 490.491474 368.860953 
L 491.790959 368.717893 
L 492.440701 368.896235 
L 493.090443 368.280832 
L 493.740186 367.984687 
L 494.389928 367.911866 
L 495.03967 367.523853 
L 495.689412 366.982186 
L 496.339155 367.275455 
L 496.988897 367.261906 
L 498.288381 366.909614 
L 498.938124 366.855863 
L 499.587866 366.660498 
L 500.237608 366.319431 
L 500.88735 366.532796 
L 501.537093 367.081331 
L 502.186835 366.822173 
L 502.836577 367.129391 
L 503.486319 367.302848 
L 504.785804 367.337174 
L 505.435546 366.916821 
L 506.735031 366.822065 
L 507.384773 367.055674 
L 508.034515 366.952214 
L 508.684257 367.05816 
L 509.334 366.930854 
L 509.983742 367.178442 
L 510.633484 366.877581 
L 511.283226 366.794086 
L 511.932969 366.927957 
L 512.582711 366.22796 
L 513.232453 365.999127 
L 514.531938 364.807435 
L 515.831422 365.305566 
L 516.481164 365.060133 
L 517.130907 365.227204 
L 517.780649 365.198927 
L 518.430391 365.640983 
L 519.080133 365.626392 
L 519.729876 366.462879 
L 520.379618 367.004075 
L 521.02936 367.249979 
L 521.679102 367.615523 
L 522.978587 368.798346 
L 523.628329 369.076852 
L 524.278071 368.994419 
L 524.927814 369.189338 
L 526.227298 369.053022 
L 526.87704 369.160414 
L 527.526783 369.53757 
L 528.176525 369.422032 
L 528.826267 368.937602 
L 529.476009 368.945998 
L 530.125752 368.296399 
L 530.775494 368.52074 
L 531.425236 368.090782 
L 533.374463 366.0494 
L 534.024205 366.26336 
L 534.673947 366.22777 
L 535.32369 365.946821 
L 535.973432 365.839373 
L 536.623174 365.96699 
L 537.272916 365.787466 
L 537.922659 366.166377 
L 538.572401 366.341995 
L 539.222143 367.24962 
L 539.871885 367.146099 
L 540.521628 367.409537 
L 541.17137 367.886429 
L 541.821112 367.757072 
L 542.470855 367.24489 
L 543.120597 366.888184 
L 544.420081 367.122802 
L 545.069824 366.313606 
L 547.01905 366.322601 
L 547.668793 365.632607 
L 548.318535 365.802794 
L 549.618019 365.225013 
L 550.267762 365.338822 
L 550.917504 364.676583 
L 552.216988 364.188346 
L 552.866731 364.638882 
L 554.166215 364.759596 
L 555.4657 365.762966 
L 556.115442 365.789832 
L 556.765184 366.352744 
L 557.414926 367.224359 
L 558.064669 367.573583 
L 558.714411 368.157873 
L 560.013895 368.429243 
L 560.663638 368.977538 
L 561.963122 369.508183 
L 562.612864 370.19825 
L 563.262607 370.563152 
L 563.912349 370.04564 
L 564.562091 370.05147 
L 565.211833 371.10287 
L 565.861576 371.496943 
L 566.511318 371.498481 
L 567.16106 371.905839 
L 567.810802 372.690648 
L 568.460545 372.516027 
L 569.110287 373.761899 
L 569.760029 374.483077 
L 570.409771 375.40929 
L 571.709256 378.16908 
L 572.358998 379.411321 
L 573.00874 380.399095 
L 573.658483 382.127041 
L 574.957967 384.937755 
L 578.206678 397.915424 
L 579.506163 404.276334 
L 583.404616 425.646391 
L 584.704101 434.615319 
L 586.003585 442.468883 
L 587.30307 452.222151 
L 588.602554 462.414247 
L 594.450235 508.603334 
L 596.399461 524.386525 
L 600.947657 557.032954 
L 602.247142 564.546167 
L 603.546626 571.37258 
L 606.795337 586.349703 
L 608.744564 591.969118 
L 609.394307 593.432961 
L 610.044049 594.163972 
L 611.343533 595.162072 
L 612.643018 595.238223 
L 613.29276 594.616503 
L 614.592245 592.290853 
L 615.241987 591.047698 
L 616.541471 586.460003 
L 617.191214 584.740516 
L 619.14044 576.313667 
L 620.439925 568.247236 
L 621.739409 560.11346 
L 624.988121 537.053556 
L 626.937347 519.464268 
L 628.886574 499.918331 
L 630.835801 477.659746 
L 634.084512 438.148531 
L 636.683481 404.255027 
L 643.180904 314.690693 
L 644.480388 296.713355 
L 646.429615 269.447379 
L 649.028584 236.43909 
L 650.328068 220.954336 
L 652.277295 200.12185 
L 655.526006 169.903551 
L 656.825491 159.837838 
L 660.074202 138.587621 
L 661.373687 131.347396 
L 662.673171 126.260135 
L 663.972656 121.374137 
L 665.27214 119.082721 
L 666.571625 118.162922 
L 667.221367 117.95185 
L 667.871109 118.32192 
L 668.520851 119.045291 
L 669.170594 119.454683 
L 669.820336 120.428832 
L 671.11982 124.274294 
L 672.419305 129.106767 
L 674.368532 138.153371 
L 675.668016 146.499304 
L 679.56647 176.895593 
L 681.515697 195.875441 
L 684.764408 230.198679 
L 692.561315 317.026009 
L 694.510542 339.81479 
L 696.459768 362.675789 
L 701.657706 420.450162 
L 705.55616 456.747927 
L 706.855644 466.53317 
L 708.155129 476.301792 
L 709.454613 484.308123 
L 710.754098 491.494893 
L 712.053582 497.753594 
L 714.002809 505.746408 
L 715.302294 509.535311 
L 715.952036 511.435317 
L 716.601778 512.763352 
L 717.25152 514.345918 
L 719.200747 517.46483 
L 720.500232 518.097725 
L 721.149974 518.601514 
L 721.799716 518.27459 
L 722.449458 518.527514 
L 723.099201 518.086792 
L 723.748943 517.882865 
L 725.048427 515.916417 
L 727.647396 508.342835 
L 728.946881 503.997694 
L 732.845334 485.918173 
L 738.693015 447.048818 
L 739.992499 437.48335 
L 741.291984 427.843236 
L 743.241211 412.5949 
L 745.190437 396.628264 
L 747.139664 380.954573 
L 748.439149 370.661814 
L 756.885798 304.273183 
L 761.433994 271.665941 
L 763.38322 259.104028 
L 764.682705 251.506354 
L 767.281674 238.606666 
L 768.581158 233.796236 
L 769.230901 231.21566 
L 772.479612 222.752021 
L 773.129354 221.140914 
L 773.779096 220.017147 
L 774.428839 219.51666 
L 775.078581 218.221825 
L 775.728323 217.419798 
L 776.378065 217.193189 
L 777.027808 216.786129 
L 778.327292 216.727252 
L 778.977034 216.37746 
L 779.626777 216.878229 
L 780.276519 216.996086 
L 781.576003 217.970275 
L 782.225746 218.949957 
L 782.875488 219.533117 
L 783.52523 220.525738 
L 784.174972 222.118161 
L 784.824715 222.843836 
L 785.474457 224.752511 
L 786.124199 227.186936 
L 787.423684 230.929917 
L 790.022653 240.99617 
L 790.672395 244.316057 
L 791.971879 249.270874 
L 793.921106 259.479359 
L 795.220591 267.477747 
L 797.169817 279.722601 
L 798.469302 286.977543 
L 799.768786 295.793019 
L 801.718013 307.558102 
L 804.316982 323.710332 
L 804.966724 328.842035 
L 806.266209 336.666062 
L 807.565693 346.078507 
L 809.51492 359.321061 
L 811.464147 372.32263 
L 815.362601 398.006884 
L 817.96157 413.136052 
L 819.261054 420.894801 
L 824.458992 443.947596 
L 827.057961 452.350452 
L 828.357446 456.025465 
L 829.65693 459.286611 
L 830.956415 461.5501 
L 834.205126 465.999634 
L 834.854868 466.157408 
L 835.50461 466.492089 
L 836.154353 466.687671 
L 836.804095 466.531436 
L 838.103579 465.738414 
L 838.753322 464.969769 
L 839.403064 463.397484 
L 840.052806 462.17152 
L 840.702548 461.596633 
L 842.002033 458.836346 
L 845.250744 448.969369 
L 847.199971 441.853763 
L 850.448682 428.712522 
L 851.748167 422.497396 
L 852.397909 419.720514 
L 853.697393 412.667954 
L 860.844558 375.123489 
L 862.144043 367.751834 
L 862.793785 364.538897 
L 863.443527 360.706917 
L 864.093269 357.767602 
L 867.341981 340.764547 
L 871.240434 323.017445 
L 872.539919 317.475415 
L 873.189661 315.171927 
L 874.489145 311.884854 
L 876.438372 305.544821 
L 877.088115 303.633698 
L 879.037341 299.424612 
L 880.336826 297.768314 
L 880.986568 296.184288 
L 881.63631 295.328208 
L 882.286053 294.999593 
L 882.935795 294.389605 
L 883.585537 295.002004 
L 884.235279 294.322626 
L 884.885022 293.417995 
L 885.534764 293.341645 
L 886.184506 293.543706 
L 886.834248 293.570308 
L 888.133733 295.079519 
L 888.783475 295.700788 
L 889.433217 296.507896 
L 890.08296 297.090219 
L 890.732702 298.252253 
L 892.681929 302.396093 
L 893.331671 304.296593 
L 895.280898 308.348571 
L 899.179351 321.557745 
L 900.478836 325.419281 
L 903.077805 334.772021 
L 904.377289 338.187516 
L 908.925485 356.865127 
L 910.874712 364.184586 
L 912.174196 369.578685 
L 912.823938 372.596975 
L 913.473681 374.828208 
L 916.07265 386.009972 
L 917.372134 391.230716 
L 919.971103 400.095194 
L 922.570072 409.537054 
L 924.519299 416.161226 
L 926.468526 421.725332 
L 927.118268 423.346944 
L 929.067495 427.121609 
L 930.366979 428.485717 
L 931.016721 430.106964 
L 931.666464 431.063449 
L 932.316206 431.700542 
L 932.965948 432.521787 
L 933.61569 433.717813 
L 934.265433 434.442383 
L 934.915175 435.376137 
L 935.564917 436.025892 
L 936.864402 435.795449 
L 937.514144 435.91818 
L 938.163886 435.873154 
L 938.813628 436.473247 
L 939.463371 436.577231 
L 940.113113 436.944561 
L 941.412597 437.316808 
L 942.06234 436.852662 
L 942.712082 436.885088 
L 943.361824 436.597501 
L 944.011566 435.99376 
L 944.661309 435.677053 
L 945.311051 435.594422 
L 945.960793 435.3183 
L 946.610536 433.940434 
L 947.260278 433.144931 
L 947.91002 432.721674 
L 948.559762 431.609865 
L 949.859247 429.988402 
L 950.508989 429.643693 
L 951.158731 428.858977 
L 951.808474 428.358511 
L 953.107958 427.051785 
L 953.7577 426.179103 
L 956.356669 421.080283 
L 957.006412 420.419212 
L 958.305896 419.338211 
L 958.955638 418.483683 
L 960.255123 416.303684 
L 960.904865 414.812776 
L 964.803319 409.731662 
L 966.102803 406.911149 
L 966.752545 406.030729 
L 968.05203 403.009668 
L 968.701772 402.437299 
L 971.300741 396.638289 
L 971.950483 395.483107 
L 973.89971 390.810927 
L 974.549452 389.28241 
L 975.199195 387.219972 
L 975.848937 385.803829 
L 976.498679 384.756971 
L 977.798164 381.355749 
L 978.447906 379.963094 
L 979.097648 378.282958 
L 980.397133 376.800655 
L 981.046875 376.409091 
L 981.696617 375.309 
L 982.346359 374.457116 
L 982.996102 373.825085 
L 984.295586 371.648094 
L 986.244813 369.446977 
L 986.894555 368.716864 
L 987.544297 368.173539 
L 988.19404 367.840857 
L 988.843782 366.850923 
L 990.143266 365.729013 
L 990.793009 365.848821 
L 991.442751 365.469728 
L 992.092493 364.542375 
L 994.691462 362.579144 
L 995.341204 361.964304 
L 996.640689 361.57131 
L 997.290431 362.123839 
L 997.940173 362.14183 
L 998.589916 362.494605 
L 999.239658 363.509157 
L 999.8894 363.33904 
L 1000.539142 363.511451 
L 1001.188885 363.410443 
L 1001.838627 363.628318 
L 1002.488369 363.991446 
L 1003.138111 364.040934 
L 1003.787854 365.07362 
L 1005.73708 366.152845 
L 1006.386823 366.439101 
L 1007.036565 367.689772 
L 1007.686307 368.362614 
L 1008.336049 368.627358 
L 1009.635534 370.194571 
L 1010.285276 371.45396 
L 1010.935018 371.67103 
L 1012.234503 373.303746 
L 1012.884245 374.394687 
L 1013.533988 375.100268 
L 1014.833472 377.206807 
L 1017.432441 383.493049 
L 1018.082183 385.445282 
L 1020.03141 389.961339 
L 1020.681152 391.607879 
L 1022.630379 397.595342 
L 1025.229348 404.067699 
L 1026.528833 406.954379 
L 1027.178575 407.447774 
L 1027.828317 408.666353 
L 1028.478059 410.150572 
L 1029.127802 411.001009 
L 1029.777544 412.10124 
L 1030.427286 412.649612 
L 1033.026255 416.031681 
L 1033.675997 417.326133 
L 1034.975482 419.463436 
L 1037.574451 423.911157 
L 1038.873935 425.541551 
L 1039.523678 425.730425 
L 1040.17342 426.762953 
L 1041.472904 427.781179 
L 1043.422131 428.567168 
L 1044.071873 428.298125 
L 1044.721616 428.453281 
L 1045.371358 428.321718 
L 1046.0211 428.433781 
L 1047.320585 429.221205 
L 1047.970327 428.762063 
L 1048.620069 428.707258 
L 1050.569296 428.176902 
L 1051.219038 427.723216 
L 1052.518523 427.246375 
L 1053.168265 427.288203 
L 1054.467749 426.121503 
L 1056.416976 424.714109 
L 1057.716461 422.87543 
L 1059.015945 420.602058 
L 1059.665687 420.075169 
L 1060.31543 418.758426 
L 1060.965172 417.768681 
L 1061.614914 416.384623 
L 1062.914399 413.130511 
L 1063.564141 411.660747 
L 1064.863625 408.135865 
L 1065.513368 406.646561 
L 1066.16311 404.61553 
L 1066.812852 403.105789 
L 1067.462594 400.951835 
L 1068.112337 399.561727 
L 1068.762079 397.776883 
L 1069.411821 396.344984 
L 1070.061563 394.006252 
L 1071.361048 390.886532 
L 1072.660532 388.219037 
L 1073.960017 385.538556 
L 1075.259501 382.276172 
L 1076.558986 379.750152 
L 1077.85847 377.630535 
L 1079.157955 375.586037 
L 1080.45744 372.656842 
L 1082.406666 368.821424 
L 1083.706151 366.109706 
L 1085.655378 362.470336 
L 1086.30512 361.634964 
L 1087.604604 359.225916 
L 1088.254347 358.14654 
L 1089.553831 356.684107 
L 1090.203573 356.508802 
L 1090.853316 355.577731 
L 1091.503058 355.218473 
L 1092.802542 353.813025 
L 1093.452285 353.363807 
L 1094.751769 352.987675 
L 1095.401511 353.431514 
L 1096.051254 353.314222 
L 1096.700996 353.510301 
L 1097.350738 353.580401 
L 1099.299965 353.406479 
L 1099.949707 353.775132 
L 1100.599449 354.299219 
L 1101.898934 354.36058 
L 1102.548676 355.025658 
L 1103.198418 355.367208 
L 1105.147645 355.88049 
L 1106.44713 356.822661 
L 1107.096872 357.420069 
L 1107.746614 358.199467 
L 1108.396356 359.524286 
L 1110.345583 361.975406 
L 1111.645068 364.071781 
L 1112.29481 365.248719 
L 1112.944552 366.728281 
L 1113.594294 367.824387 
L 1114.893779 369.538737 
L 1115.543521 370.062769 
L 1116.193263 371.204681 
L 1116.843006 372.108348 
L 1118.792232 374.181453 
L 1119.441975 375.362492 
L 1120.091717 375.806804 
L 1120.741459 376.630491 
L 1121.391201 377.261731 
L 1122.040944 378.336627 
L 1122.690686 379.000425 
L 1123.340428 379.446016 
L 1124.639913 381.203951 
L 1125.939397 384.096523 
L 1127.238882 385.948792 
L 1127.888624 386.980074 
L 1128.538366 387.63597 
L 1129.188108 388.757991 
L 1129.837851 389.623638 
L 1131.787077 391.46077 
L 1132.43682 392.464192 
L 1133.086562 393.058063 
L 1133.736304 393.230702 
L 1134.386046 393.250812 
L 1135.035789 393.547625 
L 1135.685531 394.113264 
L 1136.335273 394.179932 
L 1136.985015 393.900691 
L 1137.634758 394.031724 
L 1138.934242 393.62433 
L 1139.583984 393.077852 
L 1140.233727 393.048538 
L 1140.883469 392.611721 
L 1141.533211 392.853205 
L 1142.832696 392.501608 
L 1143.482438 392.526479 
L 1144.781922 392.101647 
L 1145.431665 391.828798 
L 1146.081407 390.858004 
L 1146.731149 390.398415 
L 1147.380892 389.590852 
L 1148.030634 389.586383 
L 1148.680376 389.249751 
L 1149.330118 389.233998 
L 1150.629603 388.686359 
L 1151.279345 388.6244 
L 1151.929087 388.715797 
L 1152.57883 388.312204 
L 1153.228572 387.425058 
L 1153.878314 387.372547 
L 1154.528056 387.186197 
L 1156.477283 384.913744 
L 1157.776768 383.754228 
L 1159.076252 381.863251 
L 1159.725994 381.304901 
L 1160.375737 380.925867 
L 1161.025479 380.365245 
L 1161.675221 379.582213 
L 1162.324963 379.076222 
L 1166.873159 373.555687 
L 1167.522901 373.077495 
L 1168.172644 372.219035 
L 1168.822386 371.715142 
L 1169.472128 370.224501 
L 1170.12187 369.301748 
L 1170.771613 368.752291 
L 1171.421355 367.779774 
L 1172.071097 366.412267 
L 1173.370582 364.5428 
L 1174.020324 362.946003 
L 1175.969551 359.393702 
L 1176.619293 358.740657 
L 1177.269035 357.656195 
L 1177.918777 356.006484 
L 1178.56852 355.348888 
L 1179.218262 354.947726 
L 1179.868004 353.911288 
L 1180.517746 353.13497 
L 1181.167489 352.745781 
L 1181.817231 352.00865 
L 1182.466973 351.600413 
L 1183.116715 350.397411 
L 1183.766458 350.025736 
L 1185.065942 348.454966 
L 1186.365427 346.482312 
L 1187.664911 343.970815 
L 1190.26388 340.983169 
L 1190.913622 340.366228 
L 1192.862849 337.160205 
L 1193.512591 336.629472 
L 1194.162334 335.837974 
L 1194.812076 334.640344 
L 1195.461818 334.522793 
L 1195.461818 334.522793 
" clip-path="url(#p8df1fe2f5d)" style="fill: none; stroke: #dd8452; stroke-width: 3; stroke-linecap: round"/>
   </g>
   <g id="patch_3">
    <path d="M 172.8 624.78 
L 172.8 84.24 
" style="fill: none; stroke: #262626; stroke-width: 2.5; stroke-linejoin: miter; stroke-linecap: square"/>
   </g>
   <g id="patch_4">
    <path d="M 172.8 624.78 
L 1244.16 624.78 
" style="fill: none; stroke: #262626; stroke-width: 2.5; stroke-linejoin: miter; stroke-linecap: square"/>
   </g>
  </g>
 </g>
 <defs>
  <clipPath id="p8df1fe2f5d">
   <rect x="172.8" y="84.24" width="1071.36" height="540.54"/>
  </clipPath>
 </defs>
</svg>
