<?xml version="1.0" encoding="utf-8" standalone="no"?>
<!DOCTYPE svg PUBLIC "-//W3C//DTD SVG 1.1//EN"
  "http://www.w3.org/Graphics/SVG/1.1/DTD/svg11.dtd">
<svg xmlns:xlink="http://www.w3.org/1999/xlink" width="460.8pt" height="345.6pt" viewBox="0 0 460.8 345.6" xmlns="http://www.w3.org/2000/svg" version="1.1">
 <metadata>
  <rdf:RDF xmlns:dc="http://purl.org/dc/elements/1.1/" xmlns:cc="http://creativecommons.org/ns#" xmlns:rdf="http://www.w3.org/1999/02/22-rdf-syntax-ns#">
   <cc:Work>
    <dc:type rdf:resource="http://purl.org/dc/dcmitype/StillImage"/>
    <dc:date>2022-08-17T16:08:33.937600</dc:date>
    <dc:format>image/svg+xml</dc:format>
    <dc:creator>
     <cc:Agent>
      <dc:title>Matplotlib v3.5.2, https://matplotlib.org/</dc:title>
     </cc:Agent>
    </dc:creator>
   </cc:Work>
  </rdf:RDF>
 </metadata>
 <defs>
  <style type="text/css">*{stroke-linejoin: round; stroke-linecap: butt}</style>
 </defs>
 <g id="figure_1">
  <g id="patch_1">
   <path d="M 0 345.6 
L 460.8 345.6 
L 460.8 0 
L 0 0 
z
" style="fill: #ffffff"/>
  </g>
  <g id="axes_1">
   <g id="patch_2">
    <path d="M 57.6 307.584 
L 414.72 307.584 
L 414.72 41.472 
L 57.6 41.472 
z
" style="fill: #ffffff"/>
   </g>
   <g id="matplotlib.axis_1">
    <g id="xtick_1">
     <g id="line2d_1">
      <defs>
       <path id="m2c608951d8" d="M 0 0 
L 0 9 
" style="stroke: #262626; stroke-width: 1.875"/>
      </defs>
      <g>
       <use xlink:href="#m2c608951d8" x="73.832727" y="307.584" style="fill: #262626; stroke: #262626; stroke-width: 1.875"/>
      </g>
     </g>
     <g id="text_1">
      <!-- 300 -->
      <g style="fill: #262626" transform="translate(60.069407 331.894391)scale(0.165 -0.165)">
       <defs>
        <path id="ArialMT-33" d="M 269 1209 
L 831 1284 
Q 928 806 1161 595 
Q 1394 384 1728 384 
Q 2125 384 2398 659 
Q 2672 934 2672 1341 
Q 2672 1728 2419 1979 
Q 2166 2231 1775 2231 
Q 1616 2231 1378 2169 
L 1441 2663 
Q 1497 2656 1531 2656 
Q 1891 2656 2178 2843 
Q 2466 3031 2466 3422 
Q 2466 3731 2256 3934 
Q 2047 4138 1716 4138 
Q 1388 4138 1169 3931 
Q 950 3725 888 3313 
L 325 3413 
Q 428 3978 793 4289 
Q 1159 4600 1703 4600 
Q 2078 4600 2393 4439 
Q 2709 4278 2876 4000 
Q 3044 3722 3044 3409 
Q 3044 3113 2884 2869 
Q 2725 2625 2413 2481 
Q 2819 2388 3044 2092 
Q 3269 1797 3269 1353 
Q 3269 753 2831 336 
Q 2394 -81 1725 -81 
Q 1122 -81 723 278 
Q 325 638 269 1209 
z
" transform="scale(0.015625)"/>
        <path id="ArialMT-30" d="M 266 2259 
Q 266 3072 433 3567 
Q 600 4063 929 4331 
Q 1259 4600 1759 4600 
Q 2128 4600 2406 4451 
Q 2684 4303 2865 4023 
Q 3047 3744 3150 3342 
Q 3253 2941 3253 2259 
Q 3253 1453 3087 958 
Q 2922 463 2592 192 
Q 2263 -78 1759 -78 
Q 1097 -78 719 397 
Q 266 969 266 2259 
z
M 844 2259 
Q 844 1131 1108 757 
Q 1372 384 1759 384 
Q 2147 384 2411 759 
Q 2675 1134 2675 2259 
Q 2675 3391 2411 3762 
Q 2147 4134 1753 4134 
Q 1366 4134 1134 3806 
Q 844 3388 844 2259 
z
" transform="scale(0.015625)"/>
       </defs>
       <use xlink:href="#ArialMT-33"/>
       <use xlink:href="#ArialMT-30" x="55.615234"/>
       <use xlink:href="#ArialMT-30" x="111.230469"/>
      </g>
     </g>
    </g>
    <g id="xtick_2">
     <g id="line2d_2">
      <g>
       <use xlink:href="#m2c608951d8" x="127.941818" y="307.584" style="fill: #262626; stroke: #262626; stroke-width: 1.875"/>
      </g>
     </g>
     <g id="text_2">
      <!-- 350 -->
      <g style="fill: #262626" transform="translate(114.178498 331.894391)scale(0.165 -0.165)">
       <defs>
        <path id="ArialMT-35" d="M 266 1200 
L 856 1250 
Q 922 819 1161 601 
Q 1400 384 1738 384 
Q 2144 384 2425 690 
Q 2706 997 2706 1503 
Q 2706 1984 2436 2262 
Q 2166 2541 1728 2541 
Q 1456 2541 1237 2417 
Q 1019 2294 894 2097 
L 366 2166 
L 809 4519 
L 3088 4519 
L 3088 3981 
L 1259 3981 
L 1013 2750 
Q 1425 3038 1878 3038 
Q 2478 3038 2890 2622 
Q 3303 2206 3303 1553 
Q 3303 931 2941 478 
Q 2500 -78 1738 -78 
Q 1113 -78 717 272 
Q 322 622 266 1200 
z
" transform="scale(0.015625)"/>
       </defs>
       <use xlink:href="#ArialMT-33"/>
       <use xlink:href="#ArialMT-35" x="55.615234"/>
       <use xlink:href="#ArialMT-30" x="111.230469"/>
      </g>
     </g>
    </g>
    <g id="xtick_3">
     <g id="line2d_3">
      <g>
       <use xlink:href="#m2c608951d8" x="182.050909" y="307.584" style="fill: #262626; stroke: #262626; stroke-width: 1.875"/>
      </g>
     </g>
     <g id="text_3">
      <!-- 400 -->
      <g style="fill: #262626" transform="translate(168.287589 331.894391)scale(0.165 -0.165)">
       <defs>
        <path id="ArialMT-34" d="M 2069 0 
L 2069 1097 
L 81 1097 
L 81 1613 
L 2172 4581 
L 2631 4581 
L 2631 1613 
L 3250 1613 
L 3250 1097 
L 2631 1097 
L 2631 0 
L 2069 0 
z
M 2069 1613 
L 2069 3678 
L 634 1613 
L 2069 1613 
z
" transform="scale(0.015625)"/>
       </defs>
       <use xlink:href="#ArialMT-34"/>
       <use xlink:href="#ArialMT-30" x="55.615234"/>
       <use xlink:href="#ArialMT-30" x="111.230469"/>
      </g>
     </g>
    </g>
    <g id="xtick_4">
     <g id="line2d_4">
      <g>
       <use xlink:href="#m2c608951d8" x="236.16" y="307.584" style="fill: #262626; stroke: #262626; stroke-width: 1.875"/>
      </g>
     </g>
     <g id="text_4">
      <!-- 450 -->
      <g style="fill: #262626" transform="translate(222.39668 331.894391)scale(0.165 -0.165)">
       <use xlink:href="#ArialMT-34"/>
       <use xlink:href="#ArialMT-35" x="55.615234"/>
       <use xlink:href="#ArialMT-30" x="111.230469"/>
      </g>
     </g>
    </g>
    <g id="xtick_5">
     <g id="line2d_5">
      <g>
       <use xlink:href="#m2c608951d8" x="290.269091" y="307.584" style="fill: #262626; stroke: #262626; stroke-width: 1.875"/>
      </g>
     </g>
     <g id="text_5">
      <!-- 500 -->
      <g style="fill: #262626" transform="translate(276.505771 331.894391)scale(0.165 -0.165)">
       <use xlink:href="#ArialMT-35"/>
       <use xlink:href="#ArialMT-30" x="55.615234"/>
       <use xlink:href="#ArialMT-30" x="111.230469"/>
      </g>
     </g>
    </g>
    <g id="xtick_6">
     <g id="line2d_6">
      <g>
       <use xlink:href="#m2c608951d8" x="344.378182" y="307.584" style="fill: #262626; stroke: #262626; stroke-width: 1.875"/>
      </g>
     </g>
     <g id="text_6">
      <!-- 550 -->
      <g style="fill: #262626" transform="translate(330.614862 331.894391)scale(0.165 -0.165)">
       <use xlink:href="#ArialMT-35"/>
       <use xlink:href="#ArialMT-35" x="55.615234"/>
       <use xlink:href="#ArialMT-30" x="111.230469"/>
      </g>
     </g>
    </g>
    <g id="xtick_7">
     <g id="line2d_7">
      <g>
       <use xlink:href="#m2c608951d8" x="398.487273" y="307.584" style="fill: #262626; stroke: #262626; stroke-width: 1.875"/>
      </g>
     </g>
     <g id="text_7">
      <!-- 600 -->
      <g style="fill: #262626" transform="translate(384.723952 331.894391)scale(0.165 -0.165)">
       <defs>
        <path id="ArialMT-36" d="M 3184 3459 
L 2625 3416 
Q 2550 3747 2413 3897 
Q 2184 4138 1850 4138 
Q 1581 4138 1378 3988 
Q 1113 3794 959 3422 
Q 806 3050 800 2363 
Q 1003 2672 1297 2822 
Q 1591 2972 1913 2972 
Q 2475 2972 2870 2558 
Q 3266 2144 3266 1488 
Q 3266 1056 3080 686 
Q 2894 316 2569 119 
Q 2244 -78 1831 -78 
Q 1128 -78 684 439 
Q 241 956 241 2144 
Q 241 3472 731 4075 
Q 1159 4600 1884 4600 
Q 2425 4600 2770 4297 
Q 3116 3994 3184 3459 
z
M 888 1484 
Q 888 1194 1011 928 
Q 1134 663 1356 523 
Q 1578 384 1822 384 
Q 2178 384 2434 671 
Q 2691 959 2691 1453 
Q 2691 1928 2437 2201 
Q 2184 2475 1800 2475 
Q 1419 2475 1153 2201 
Q 888 1928 888 1484 
z
" transform="scale(0.015625)"/>
       </defs>
       <use xlink:href="#ArialMT-36"/>
       <use xlink:href="#ArialMT-30" x="55.615234"/>
       <use xlink:href="#ArialMT-30" x="111.230469"/>
      </g>
     </g>
    </g>
    <g id="text_8">
     <!-- distance -->
     <g style="fill: #262626" transform="translate(202.640625 352.057828)scale(0.18 -0.18)">
      <defs>
       <path id="ArialMT-64" d="M 2575 0 
L 2575 419 
Q 2259 -75 1647 -75 
Q 1250 -75 917 144 
Q 584 363 401 755 
Q 219 1147 219 1656 
Q 219 2153 384 2558 
Q 550 2963 881 3178 
Q 1213 3394 1622 3394 
Q 1922 3394 2156 3267 
Q 2391 3141 2538 2938 
L 2538 4581 
L 3097 4581 
L 3097 0 
L 2575 0 
z
M 797 1656 
Q 797 1019 1065 703 
Q 1334 388 1700 388 
Q 2069 388 2326 689 
Q 2584 991 2584 1609 
Q 2584 2291 2321 2609 
Q 2059 2928 1675 2928 
Q 1300 2928 1048 2622 
Q 797 2316 797 1656 
z
" transform="scale(0.015625)"/>
       <path id="ArialMT-69" d="M 425 3934 
L 425 4581 
L 988 4581 
L 988 3934 
L 425 3934 
z
M 425 0 
L 425 3319 
L 988 3319 
L 988 0 
L 425 0 
z
" transform="scale(0.015625)"/>
       <path id="ArialMT-73" d="M 197 991 
L 753 1078 
Q 800 744 1014 566 
Q 1228 388 1613 388 
Q 2000 388 2187 545 
Q 2375 703 2375 916 
Q 2375 1106 2209 1216 
Q 2094 1291 1634 1406 
Q 1016 1563 777 1677 
Q 538 1791 414 1992 
Q 291 2194 291 2438 
Q 291 2659 392 2848 
Q 494 3038 669 3163 
Q 800 3259 1026 3326 
Q 1253 3394 1513 3394 
Q 1903 3394 2198 3281 
Q 2494 3169 2634 2976 
Q 2775 2784 2828 2463 
L 2278 2388 
Q 2241 2644 2061 2787 
Q 1881 2931 1553 2931 
Q 1166 2931 1000 2803 
Q 834 2675 834 2503 
Q 834 2394 903 2306 
Q 972 2216 1119 2156 
Q 1203 2125 1616 2013 
Q 2213 1853 2448 1751 
Q 2684 1650 2818 1456 
Q 2953 1263 2953 975 
Q 2953 694 2789 445 
Q 2625 197 2315 61 
Q 2006 -75 1616 -75 
Q 969 -75 630 194 
Q 291 463 197 991 
z
" transform="scale(0.015625)"/>
       <path id="ArialMT-74" d="M 1650 503 
L 1731 6 
Q 1494 -44 1306 -44 
Q 1000 -44 831 53 
Q 663 150 594 308 
Q 525 466 525 972 
L 525 2881 
L 113 2881 
L 113 3319 
L 525 3319 
L 525 4141 
L 1084 4478 
L 1084 3319 
L 1650 3319 
L 1650 2881 
L 1084 2881 
L 1084 941 
Q 1084 700 1114 631 
Q 1144 563 1211 522 
Q 1278 481 1403 481 
Q 1497 481 1650 503 
z
" transform="scale(0.015625)"/>
       <path id="ArialMT-61" d="M 2588 409 
Q 2275 144 1986 34 
Q 1697 -75 1366 -75 
Q 819 -75 525 192 
Q 231 459 231 875 
Q 231 1119 342 1320 
Q 453 1522 633 1644 
Q 813 1766 1038 1828 
Q 1203 1872 1538 1913 
Q 2219 1994 2541 2106 
Q 2544 2222 2544 2253 
Q 2544 2597 2384 2738 
Q 2169 2928 1744 2928 
Q 1347 2928 1158 2789 
Q 969 2650 878 2297 
L 328 2372 
Q 403 2725 575 2942 
Q 747 3159 1072 3276 
Q 1397 3394 1825 3394 
Q 2250 3394 2515 3294 
Q 2781 3194 2906 3042 
Q 3031 2891 3081 2659 
Q 3109 2516 3109 2141 
L 3109 1391 
Q 3109 606 3145 398 
Q 3181 191 3288 0 
L 2700 0 
Q 2613 175 2588 409 
z
M 2541 1666 
Q 2234 1541 1622 1453 
Q 1275 1403 1131 1340 
Q 988 1278 909 1158 
Q 831 1038 831 891 
Q 831 666 1001 516 
Q 1172 366 1500 366 
Q 1825 366 2078 508 
Q 2331 650 2450 897 
Q 2541 1088 2541 1459 
L 2541 1666 
z
" transform="scale(0.015625)"/>
       <path id="ArialMT-6e" d="M 422 0 
L 422 3319 
L 928 3319 
L 928 2847 
Q 1294 3394 1984 3394 
Q 2284 3394 2536 3286 
Q 2788 3178 2913 3003 
Q 3038 2828 3088 2588 
Q 3119 2431 3119 2041 
L 3119 0 
L 2556 0 
L 2556 2019 
Q 2556 2363 2490 2533 
Q 2425 2703 2258 2804 
Q 2091 2906 1866 2906 
Q 1506 2906 1245 2678 
Q 984 2450 984 1813 
L 984 0 
L 422 0 
z
" transform="scale(0.015625)"/>
       <path id="ArialMT-63" d="M 2588 1216 
L 3141 1144 
Q 3050 572 2676 248 
Q 2303 -75 1759 -75 
Q 1078 -75 664 370 
Q 250 816 250 1647 
Q 250 2184 428 2587 
Q 606 2991 970 3192 
Q 1334 3394 1763 3394 
Q 2303 3394 2647 3120 
Q 2991 2847 3088 2344 
L 2541 2259 
Q 2463 2594 2264 2762 
Q 2066 2931 1784 2931 
Q 1359 2931 1093 2626 
Q 828 2322 828 1663 
Q 828 994 1084 691 
Q 1341 388 1753 388 
Q 2084 388 2306 591 
Q 2528 794 2588 1216 
z
" transform="scale(0.015625)"/>
       <path id="ArialMT-65" d="M 2694 1069 
L 3275 997 
Q 3138 488 2766 206 
Q 2394 -75 1816 -75 
Q 1088 -75 661 373 
Q 234 822 234 1631 
Q 234 2469 665 2931 
Q 1097 3394 1784 3394 
Q 2450 3394 2872 2941 
Q 3294 2488 3294 1666 
Q 3294 1616 3291 1516 
L 816 1516 
Q 847 969 1125 678 
Q 1403 388 1819 388 
Q 2128 388 2347 550 
Q 2566 713 2694 1069 
z
M 847 1978 
L 2700 1978 
Q 2663 2397 2488 2606 
Q 2219 2931 1791 2931 
Q 1403 2931 1139 2672 
Q 875 2413 847 1978 
z
" transform="scale(0.015625)"/>
      </defs>
      <use xlink:href="#ArialMT-64"/>
      <use xlink:href="#ArialMT-69" x="55.615234"/>
      <use xlink:href="#ArialMT-73" x="77.832031"/>
      <use xlink:href="#ArialMT-74" x="127.832031"/>
      <use xlink:href="#ArialMT-61" x="155.615234"/>
      <use xlink:href="#ArialMT-6e" x="211.230469"/>
      <use xlink:href="#ArialMT-63" x="266.845703"/>
      <use xlink:href="#ArialMT-65" x="316.845703"/>
     </g>
    </g>
   </g>
   <g id="matplotlib.axis_2">
    <g id="ytick_1">
     <g id="line2d_8">
      <defs>
       <path id="mc47873fd49" d="M 0 0 
L -9 0 
" style="stroke: #262626; stroke-width: 1.875"/>
      </defs>
      <g>
       <use xlink:href="#mc47873fd49" x="57.6" y="307.584" style="fill: #262626; stroke: #262626; stroke-width: 1.875"/>
      </g>
     </g>
     <g id="text_9">
      <!-- 0.06 -->
      <g style="fill: #262626" transform="translate(12.989453 313.489195)scale(0.165 -0.165)">
       <defs>
        <path id="ArialMT-2e" d="M 581 0 
L 581 641 
L 1222 641 
L 1222 0 
L 581 0 
z
" transform="scale(0.015625)"/>
       </defs>
       <use xlink:href="#ArialMT-30"/>
       <use xlink:href="#ArialMT-2e" x="55.615234"/>
       <use xlink:href="#ArialMT-30" x="83.398438"/>
       <use xlink:href="#ArialMT-36" x="139.013672"/>
      </g>
     </g>
    </g>
    <g id="ytick_2">
     <g id="line2d_9">
      <g>
       <use xlink:href="#mc47873fd49" x="57.6" y="269.568" style="fill: #262626; stroke: #262626; stroke-width: 1.875"/>
      </g>
     </g>
     <g id="text_10">
      <!-- 0.07 -->
      <g style="fill: #262626" transform="translate(12.989453 275.473195)scale(0.165 -0.165)">
       <defs>
        <path id="ArialMT-37" d="M 303 3981 
L 303 4522 
L 3269 4522 
L 3269 4084 
Q 2831 3619 2401 2847 
Q 1972 2075 1738 1259 
Q 1569 684 1522 0 
L 944 0 
Q 953 541 1156 1306 
Q 1359 2072 1739 2783 
Q 2119 3494 2547 3981 
L 303 3981 
z
" transform="scale(0.015625)"/>
       </defs>
       <use xlink:href="#ArialMT-30"/>
       <use xlink:href="#ArialMT-2e" x="55.615234"/>
       <use xlink:href="#ArialMT-30" x="83.398438"/>
       <use xlink:href="#ArialMT-37" x="139.013672"/>
      </g>
     </g>
    </g>
    <g id="ytick_3">
     <g id="line2d_10">
      <g>
       <use xlink:href="#mc47873fd49" x="57.6" y="231.552" style="fill: #262626; stroke: #262626; stroke-width: 1.875"/>
      </g>
     </g>
     <g id="text_11">
      <!-- 0.08 -->
      <g style="fill: #262626" transform="translate(12.989453 237.457195)scale(0.165 -0.165)">
       <defs>
        <path id="ArialMT-38" d="M 1131 2484 
Q 781 2613 612 2850 
Q 444 3088 444 3419 
Q 444 3919 803 4259 
Q 1163 4600 1759 4600 
Q 2359 4600 2725 4251 
Q 3091 3903 3091 3403 
Q 3091 3084 2923 2848 
Q 2756 2613 2416 2484 
Q 2838 2347 3058 2040 
Q 3278 1734 3278 1309 
Q 3278 722 2862 322 
Q 2447 -78 1769 -78 
Q 1091 -78 675 323 
Q 259 725 259 1325 
Q 259 1772 486 2073 
Q 713 2375 1131 2484 
z
M 1019 3438 
Q 1019 3113 1228 2906 
Q 1438 2700 1772 2700 
Q 2097 2700 2305 2904 
Q 2513 3109 2513 3406 
Q 2513 3716 2298 3927 
Q 2084 4138 1766 4138 
Q 1444 4138 1231 3931 
Q 1019 3725 1019 3438 
z
M 838 1322 
Q 838 1081 952 856 
Q 1066 631 1291 507 
Q 1516 384 1775 384 
Q 2178 384 2440 643 
Q 2703 903 2703 1303 
Q 2703 1709 2433 1975 
Q 2163 2241 1756 2241 
Q 1359 2241 1098 1978 
Q 838 1716 838 1322 
z
" transform="scale(0.015625)"/>
       </defs>
       <use xlink:href="#ArialMT-30"/>
       <use xlink:href="#ArialMT-2e" x="55.615234"/>
       <use xlink:href="#ArialMT-30" x="83.398438"/>
       <use xlink:href="#ArialMT-38" x="139.013672"/>
      </g>
     </g>
    </g>
    <g id="ytick_4">
     <g id="line2d_11">
      <g>
       <use xlink:href="#mc47873fd49" x="57.6" y="193.536" style="fill: #262626; stroke: #262626; stroke-width: 1.875"/>
      </g>
     </g>
     <g id="text_12">
      <!-- 0.09 -->
      <g style="fill: #262626" transform="translate(12.989453 199.441195)scale(0.165 -0.165)">
       <defs>
        <path id="ArialMT-39" d="M 350 1059 
L 891 1109 
Q 959 728 1153 556 
Q 1347 384 1650 384 
Q 1909 384 2104 503 
Q 2300 622 2425 820 
Q 2550 1019 2634 1356 
Q 2719 1694 2719 2044 
Q 2719 2081 2716 2156 
Q 2547 1888 2255 1720 
Q 1963 1553 1622 1553 
Q 1053 1553 659 1965 
Q 266 2378 266 3053 
Q 266 3750 677 4175 
Q 1088 4600 1706 4600 
Q 2153 4600 2523 4359 
Q 2894 4119 3086 3673 
Q 3278 3228 3278 2384 
Q 3278 1506 3087 986 
Q 2897 466 2520 194 
Q 2144 -78 1638 -78 
Q 1100 -78 759 220 
Q 419 519 350 1059 
z
M 2653 3081 
Q 2653 3566 2395 3850 
Q 2138 4134 1775 4134 
Q 1400 4134 1122 3828 
Q 844 3522 844 3034 
Q 844 2597 1108 2323 
Q 1372 2050 1759 2050 
Q 2150 2050 2401 2323 
Q 2653 2597 2653 3081 
z
" transform="scale(0.015625)"/>
       </defs>
       <use xlink:href="#ArialMT-30"/>
       <use xlink:href="#ArialMT-2e" x="55.615234"/>
       <use xlink:href="#ArialMT-30" x="83.398438"/>
       <use xlink:href="#ArialMT-39" x="139.013672"/>
      </g>
     </g>
    </g>
    <g id="ytick_5">
     <g id="line2d_12">
      <g>
       <use xlink:href="#mc47873fd49" x="57.6" y="155.52" style="fill: #262626; stroke: #262626; stroke-width: 1.875"/>
      </g>
     </g>
     <g id="text_13">
      <!-- 0.10 -->
      <g style="fill: #262626" transform="translate(12.989453 161.425195)scale(0.165 -0.165)">
       <defs>
        <path id="ArialMT-31" d="M 2384 0 
L 1822 0 
L 1822 3584 
Q 1619 3391 1289 3197 
Q 959 3003 697 2906 
L 697 3450 
Q 1169 3672 1522 3987 
Q 1875 4303 2022 4600 
L 2384 4600 
L 2384 0 
z
" transform="scale(0.015625)"/>
       </defs>
       <use xlink:href="#ArialMT-30"/>
       <use xlink:href="#ArialMT-2e" x="55.615234"/>
       <use xlink:href="#ArialMT-31" x="83.398438"/>
       <use xlink:href="#ArialMT-30" x="139.013672"/>
      </g>
     </g>
    </g>
    <g id="ytick_6">
     <g id="line2d_13">
      <g>
       <use xlink:href="#mc47873fd49" x="57.6" y="117.504" style="fill: #262626; stroke: #262626; stroke-width: 1.875"/>
      </g>
     </g>
     <g id="text_14">
      <!-- 0.11 -->
      <g style="fill: #262626" transform="translate(14.206328 123.409195)scale(0.165 -0.165)">
       <use xlink:href="#ArialMT-30"/>
       <use xlink:href="#ArialMT-2e" x="55.615234"/>
       <use xlink:href="#ArialMT-31" x="83.398438"/>
       <use xlink:href="#ArialMT-31" x="131.638672"/>
      </g>
     </g>
    </g>
    <g id="ytick_7">
     <g id="line2d_14">
      <g>
       <use xlink:href="#mc47873fd49" x="57.6" y="79.488" style="fill: #262626; stroke: #262626; stroke-width: 1.875"/>
      </g>
     </g>
     <g id="text_15">
      <!-- 0.12 -->
      <g style="fill: #262626" transform="translate(12.989453 85.393195)scale(0.165 -0.165)">
       <defs>
        <path id="ArialMT-32" d="M 3222 541 
L 3222 0 
L 194 0 
Q 188 203 259 391 
Q 375 700 629 1000 
Q 884 1300 1366 1694 
Q 2113 2306 2375 2664 
Q 2638 3022 2638 3341 
Q 2638 3675 2398 3904 
Q 2159 4134 1775 4134 
Q 1369 4134 1125 3890 
Q 881 3647 878 3216 
L 300 3275 
Q 359 3922 746 4261 
Q 1134 4600 1788 4600 
Q 2447 4600 2831 4234 
Q 3216 3869 3216 3328 
Q 3216 3053 3103 2787 
Q 2991 2522 2730 2228 
Q 2469 1934 1863 1422 
Q 1356 997 1212 845 
Q 1069 694 975 541 
L 3222 541 
z
" transform="scale(0.015625)"/>
       </defs>
       <use xlink:href="#ArialMT-30"/>
       <use xlink:href="#ArialMT-2e" x="55.615234"/>
       <use xlink:href="#ArialMT-31" x="83.398438"/>
       <use xlink:href="#ArialMT-32" x="139.013672"/>
      </g>
     </g>
    </g>
    <g id="ytick_8">
     <g id="line2d_15">
      <g>
       <use xlink:href="#mc47873fd49" x="57.6" y="41.472" style="fill: #262626; stroke: #262626; stroke-width: 1.875"/>
      </g>
     </g>
     <g id="text_16">
      <!-- 0.13 -->
      <g style="fill: #262626" transform="translate(12.989453 47.377195)scale(0.165 -0.165)">
       <use xlink:href="#ArialMT-30"/>
       <use xlink:href="#ArialMT-2e" x="55.615234"/>
       <use xlink:href="#ArialMT-31" x="83.398438"/>
       <use xlink:href="#ArialMT-33" x="139.013672"/>
      </g>
     </g>
    </g>
    <g id="text_17">
     <!-- voltage -->
     <g style="fill: #262626" transform="translate(5.201016 203.547375)rotate(-90)scale(0.18 -0.18)">
      <defs>
       <path id="ArialMT-76" d="M 1344 0 
L 81 3319 
L 675 3319 
L 1388 1331 
Q 1503 1009 1600 663 
Q 1675 925 1809 1294 
L 2547 3319 
L 3125 3319 
L 1869 0 
L 1344 0 
z
" transform="scale(0.015625)"/>
       <path id="ArialMT-6f" d="M 213 1659 
Q 213 2581 725 3025 
Q 1153 3394 1769 3394 
Q 2453 3394 2887 2945 
Q 3322 2497 3322 1706 
Q 3322 1066 3130 698 
Q 2938 331 2570 128 
Q 2203 -75 1769 -75 
Q 1072 -75 642 372 
Q 213 819 213 1659 
z
M 791 1659 
Q 791 1022 1069 705 
Q 1347 388 1769 388 
Q 2188 388 2466 706 
Q 2744 1025 2744 1678 
Q 2744 2294 2464 2611 
Q 2184 2928 1769 2928 
Q 1347 2928 1069 2612 
Q 791 2297 791 1659 
z
" transform="scale(0.015625)"/>
       <path id="ArialMT-6c" d="M 409 0 
L 409 4581 
L 972 4581 
L 972 0 
L 409 0 
z
" transform="scale(0.015625)"/>
       <path id="ArialMT-67" d="M 319 -275 
L 866 -356 
Q 900 -609 1056 -725 
Q 1266 -881 1628 -881 
Q 2019 -881 2231 -725 
Q 2444 -569 2519 -288 
Q 2563 -116 2559 434 
Q 2191 0 1641 0 
Q 956 0 581 494 
Q 206 988 206 1678 
Q 206 2153 378 2554 
Q 550 2956 876 3175 
Q 1203 3394 1644 3394 
Q 2231 3394 2613 2919 
L 2613 3319 
L 3131 3319 
L 3131 450 
Q 3131 -325 2973 -648 
Q 2816 -972 2473 -1159 
Q 2131 -1347 1631 -1347 
Q 1038 -1347 672 -1080 
Q 306 -813 319 -275 
z
M 784 1719 
Q 784 1066 1043 766 
Q 1303 466 1694 466 
Q 2081 466 2343 764 
Q 2606 1063 2606 1700 
Q 2606 2309 2336 2618 
Q 2066 2928 1684 2928 
Q 1309 2928 1046 2623 
Q 784 2319 784 1719 
z
" transform="scale(0.015625)"/>
      </defs>
      <use xlink:href="#ArialMT-76"/>
      <use xlink:href="#ArialMT-6f" x="50"/>
      <use xlink:href="#ArialMT-6c" x="105.615234"/>
      <use xlink:href="#ArialMT-74" x="127.832031"/>
      <use xlink:href="#ArialMT-61" x="155.615234"/>
      <use xlink:href="#ArialMT-67" x="211.230469"/>
      <use xlink:href="#ArialMT-65" x="266.845703"/>
     </g>
    </g>
   </g>
   <g id="PathCollection_1">
    <defs>
     <path id="m9eedec8f5e" d="M -4.5 0 
L 4.5 0 
M 0 4.5 
L 0 -4.5 
" style="stroke: #4c72b0; stroke-opacity: 0.8; stroke-width: 2.25"/>
    </defs>
    <g clip-path="url(#p5eeb40be41)">
     <use xlink:href="#m9eedec8f5e" x="73.832727" y="73.456168" style="fill: #4c72b0; fill-opacity: 0.8; stroke: #4c72b0; stroke-opacity: 0.8; stroke-width: 2.25"/>
     <use xlink:href="#m9eedec8f5e" x="73.832727" y="73.460482" style="fill: #4c72b0; fill-opacity: 0.8; stroke: #4c72b0; stroke-opacity: 0.8; stroke-width: 2.25"/>
     <use xlink:href="#m9eedec8f5e" x="73.832727" y="73.503192" style="fill: #4c72b0; fill-opacity: 0.8; stroke: #4c72b0; stroke-opacity: 0.8; stroke-width: 2.25"/>
     <use xlink:href="#m9eedec8f5e" x="73.832727" y="73.468674" style="fill: #4c72b0; fill-opacity: 0.8; stroke: #4c72b0; stroke-opacity: 0.8; stroke-width: 2.25"/>
     <use xlink:href="#m9eedec8f5e" x="73.832727" y="73.491811" style="fill: #4c72b0; fill-opacity: 0.8; stroke: #4c72b0; stroke-opacity: 0.8; stroke-width: 2.25"/>
     <use xlink:href="#m9eedec8f5e" x="73.832727" y="73.498064" style="fill: #4c72b0; fill-opacity: 0.8; stroke: #4c72b0; stroke-opacity: 0.8; stroke-width: 2.25"/>
     <use xlink:href="#m9eedec8f5e" x="73.832727" y="73.529518" style="fill: #4c72b0; fill-opacity: 0.8; stroke: #4c72b0; stroke-opacity: 0.8; stroke-width: 2.25"/>
     <use xlink:href="#m9eedec8f5e" x="73.832727" y="73.509445" style="fill: #4c72b0; fill-opacity: 0.8; stroke: #4c72b0; stroke-opacity: 0.8; stroke-width: 2.25"/>
     <use xlink:href="#m9eedec8f5e" x="73.832727" y="73.541524" style="fill: #4c72b0; fill-opacity: 0.8; stroke: #4c72b0; stroke-opacity: 0.8; stroke-width: 2.25"/>
     <use xlink:href="#m9eedec8f5e" x="73.832727" y="73.612373" style="fill: #4c72b0; fill-opacity: 0.8; stroke: #4c72b0; stroke-opacity: 0.8; stroke-width: 2.25"/>
     <use xlink:href="#m9eedec8f5e" x="127.941818" y="106.128218" style="fill: #4c72b0; fill-opacity: 0.8; stroke: #4c72b0; stroke-opacity: 0.8; stroke-width: 2.25"/>
     <use xlink:href="#m9eedec8f5e" x="127.941818" y="106.15517" style="fill: #4c72b0; fill-opacity: 0.8; stroke: #4c72b0; stroke-opacity: 0.8; stroke-width: 2.25"/>
     <use xlink:href="#m9eedec8f5e" x="127.941818" y="106.213262" style="fill: #4c72b0; fill-opacity: 0.8; stroke: #4c72b0; stroke-opacity: 0.8; stroke-width: 2.25"/>
     <use xlink:href="#m9eedec8f5e" x="127.941818" y="106.240276" style="fill: #4c72b0; fill-opacity: 0.8; stroke: #4c72b0; stroke-opacity: 0.8; stroke-width: 2.25"/>
     <use xlink:href="#m9eedec8f5e" x="127.941818" y="106.238525" style="fill: #4c72b0; fill-opacity: 0.8; stroke: #4c72b0; stroke-opacity: 0.8; stroke-width: 2.25"/>
     <use xlink:href="#m9eedec8f5e" x="127.941818" y="106.284861" style="fill: #4c72b0; fill-opacity: 0.8; stroke: #4c72b0; stroke-opacity: 0.8; stroke-width: 2.25"/>
     <use xlink:href="#m9eedec8f5e" x="127.941818" y="106.300119" style="fill: #4c72b0; fill-opacity: 0.8; stroke: #4c72b0; stroke-opacity: 0.8; stroke-width: 2.25"/>
     <use xlink:href="#m9eedec8f5e" x="127.941818" y="106.307498" style="fill: #4c72b0; fill-opacity: 0.8; stroke: #4c72b0; stroke-opacity: 0.8; stroke-width: 2.25"/>
     <use xlink:href="#m9eedec8f5e" x="127.941818" y="106.328634" style="fill: #4c72b0; fill-opacity: 0.8; stroke: #4c72b0; stroke-opacity: 0.8; stroke-width: 2.25"/>
     <use xlink:href="#m9eedec8f5e" x="127.941818" y="106.374157" style="fill: #4c72b0; fill-opacity: 0.8; stroke: #4c72b0; stroke-opacity: 0.8; stroke-width: 2.25"/>
     <use xlink:href="#m9eedec8f5e" x="182.050909" y="140.965638" style="fill: #4c72b0; fill-opacity: 0.8; stroke: #4c72b0; stroke-opacity: 0.8; stroke-width: 2.25"/>
     <use xlink:href="#m9eedec8f5e" x="182.050909" y="141.02173" style="fill: #4c72b0; fill-opacity: 0.8; stroke: #4c72b0; stroke-opacity: 0.8; stroke-width: 2.25"/>
     <use xlink:href="#m9eedec8f5e" x="182.050909" y="141.054122" style="fill: #4c72b0; fill-opacity: 0.8; stroke: #4c72b0; stroke-opacity: 0.8; stroke-width: 2.25"/>
     <use xlink:href="#m9eedec8f5e" x="182.050909" y="141.081073" style="fill: #4c72b0; fill-opacity: 0.8; stroke: #4c72b0; stroke-opacity: 0.8; stroke-width: 2.25"/>
     <use xlink:href="#m9eedec8f5e" x="182.050909" y="141.08001" style="fill: #4c72b0; fill-opacity: 0.8; stroke: #4c72b0; stroke-opacity: 0.8; stroke-width: 2.25"/>
     <use xlink:href="#m9eedec8f5e" x="182.050909" y="141.108525" style="fill: #4c72b0; fill-opacity: 0.8; stroke: #4c72b0; stroke-opacity: 0.8; stroke-width: 2.25"/>
     <use xlink:href="#m9eedec8f5e" x="182.050909" y="141.141604" style="fill: #4c72b0; fill-opacity: 0.8; stroke: #4c72b0; stroke-opacity: 0.8; stroke-width: 2.25"/>
     <use xlink:href="#m9eedec8f5e" x="182.050909" y="141.228837" style="fill: #4c72b0; fill-opacity: 0.8; stroke: #4c72b0; stroke-opacity: 0.8; stroke-width: 2.25"/>
     <use xlink:href="#m9eedec8f5e" x="182.050909" y="141.189379" style="fill: #4c72b0; fill-opacity: 0.8; stroke: #4c72b0; stroke-opacity: 0.8; stroke-width: 2.25"/>
     <use xlink:href="#m9eedec8f5e" x="182.050909" y="141.285304" style="fill: #4c72b0; fill-opacity: 0.8; stroke: #4c72b0; stroke-opacity: 0.8; stroke-width: 2.25"/>
     <use xlink:href="#m9eedec8f5e" x="236.16" y="177.164066" style="fill: #4c72b0; fill-opacity: 0.8; stroke: #4c72b0; stroke-opacity: 0.8; stroke-width: 2.25"/>
     <use xlink:href="#m9eedec8f5e" x="236.16" y="177.213841" style="fill: #4c72b0; fill-opacity: 0.8; stroke: #4c72b0; stroke-opacity: 0.8; stroke-width: 2.25"/>
     <use xlink:href="#m9eedec8f5e" x="236.16" y="177.299385" style="fill: #4c72b0; fill-opacity: 0.8; stroke: #4c72b0; stroke-opacity: 0.8; stroke-width: 2.25"/>
     <use xlink:href="#m9eedec8f5e" x="236.16" y="177.284002" style="fill: #4c72b0; fill-opacity: 0.8; stroke: #4c72b0; stroke-opacity: 0.8; stroke-width: 2.25"/>
     <use xlink:href="#m9eedec8f5e" x="236.16" y="177.334904" style="fill: #4c72b0; fill-opacity: 0.8; stroke: #4c72b0; stroke-opacity: 0.8; stroke-width: 2.25"/>
     <use xlink:href="#m9eedec8f5e" x="236.16" y="177.409379" style="fill: #4c72b0; fill-opacity: 0.8; stroke: #4c72b0; stroke-opacity: 0.8; stroke-width: 2.25"/>
     <use xlink:href="#m9eedec8f5e" x="236.16" y="177.466346" style="fill: #4c72b0; fill-opacity: 0.8; stroke: #4c72b0; stroke-opacity: 0.8; stroke-width: 2.25"/>
     <use xlink:href="#m9eedec8f5e" x="236.16" y="177.48273" style="fill: #4c72b0; fill-opacity: 0.8; stroke: #4c72b0; stroke-opacity: 0.8; stroke-width: 2.25"/>
     <use xlink:href="#m9eedec8f5e" x="236.16" y="177.48273" style="fill: #4c72b0; fill-opacity: 0.8; stroke: #4c72b0; stroke-opacity: 0.8; stroke-width: 2.25"/>
     <use xlink:href="#m9eedec8f5e" x="236.16" y="177.579029" style="fill: #4c72b0; fill-opacity: 0.8; stroke: #4c72b0; stroke-opacity: 0.8; stroke-width: 2.25"/>
     <use xlink:href="#m9eedec8f5e" x="290.269091" y="211.772934" style="fill: #4c72b0; fill-opacity: 0.8; stroke: #4c72b0; stroke-opacity: 0.8; stroke-width: 2.25"/>
     <use xlink:href="#m9eedec8f5e" x="290.269091" y="211.829088" style="fill: #4c72b0; fill-opacity: 0.8; stroke: #4c72b0; stroke-opacity: 0.8; stroke-width: 2.25"/>
     <use xlink:href="#m9eedec8f5e" x="290.269091" y="211.851599" style="fill: #4c72b0; fill-opacity: 0.8; stroke: #4c72b0; stroke-opacity: 0.8; stroke-width: 2.25"/>
     <use xlink:href="#m9eedec8f5e" x="290.269091" y="211.867857" style="fill: #4c72b0; fill-opacity: 0.8; stroke: #4c72b0; stroke-opacity: 0.8; stroke-width: 2.25"/>
     <use xlink:href="#m9eedec8f5e" x="290.269091" y="211.907315" style="fill: #4c72b0; fill-opacity: 0.8; stroke: #4c72b0; stroke-opacity: 0.8; stroke-width: 2.25"/>
     <use xlink:href="#m9eedec8f5e" x="290.269091" y="211.97979" style="fill: #4c72b0; fill-opacity: 0.8; stroke: #4c72b0; stroke-opacity: 0.8; stroke-width: 2.25"/>
     <use xlink:href="#m9eedec8f5e" x="290.269091" y="212.070712" style="fill: #4c72b0; fill-opacity: 0.8; stroke: #4c72b0; stroke-opacity: 0.8; stroke-width: 2.25"/>
     <use xlink:href="#m9eedec8f5e" x="290.269091" y="212.207032" style="fill: #4c72b0; fill-opacity: 0.8; stroke: #4c72b0; stroke-opacity: 0.8; stroke-width: 2.25"/>
     <use xlink:href="#m9eedec8f5e" x="290.269091" y="212.240174" style="fill: #4c72b0; fill-opacity: 0.8; stroke: #4c72b0; stroke-opacity: 0.8; stroke-width: 2.25"/>
     <use xlink:href="#m9eedec8f5e" x="290.269091" y="212.288574" style="fill: #4c72b0; fill-opacity: 0.8; stroke: #4c72b0; stroke-opacity: 0.8; stroke-width: 2.25"/>
     <use xlink:href="#m9eedec8f5e" x="344.378182" y="245.51935" style="fill: #4c72b0; fill-opacity: 0.8; stroke: #4c72b0; stroke-opacity: 0.8; stroke-width: 2.25"/>
     <use xlink:href="#m9eedec8f5e" x="344.378182" y="245.559995" style="fill: #4c72b0; fill-opacity: 0.8; stroke: #4c72b0; stroke-opacity: 0.8; stroke-width: 2.25"/>
     <use xlink:href="#m9eedec8f5e" x="344.378182" y="245.715888" style="fill: #4c72b0; fill-opacity: 0.8; stroke: #4c72b0; stroke-opacity: 0.8; stroke-width: 2.25"/>
     <use xlink:href="#m9eedec8f5e" x="344.378182" y="245.887163" style="fill: #4c72b0; fill-opacity: 0.8; stroke: #4c72b0; stroke-opacity: 0.8; stroke-width: 2.25"/>
     <use xlink:href="#m9eedec8f5e" x="344.378182" y="246.0076" style="fill: #4c72b0; fill-opacity: 0.8; stroke: #4c72b0; stroke-opacity: 0.8; stroke-width: 2.25"/>
     <use xlink:href="#m9eedec8f5e" x="344.378182" y="246.098084" style="fill: #4c72b0; fill-opacity: 0.8; stroke: #4c72b0; stroke-opacity: 0.8; stroke-width: 2.25"/>
     <use xlink:href="#m9eedec8f5e" x="344.378182" y="246.181689" style="fill: #4c72b0; fill-opacity: 0.8; stroke: #4c72b0; stroke-opacity: 0.8; stroke-width: 2.25"/>
     <use xlink:href="#m9eedec8f5e" x="344.378182" y="246.295998" style="fill: #4c72b0; fill-opacity: 0.8; stroke: #4c72b0; stroke-opacity: 0.8; stroke-width: 2.25"/>
     <use xlink:href="#m9eedec8f5e" x="344.378182" y="246.408368" style="fill: #4c72b0; fill-opacity: 0.8; stroke: #4c72b0; stroke-opacity: 0.8; stroke-width: 2.25"/>
     <use xlink:href="#m9eedec8f5e" x="344.378182" y="246.505293" style="fill: #4c72b0; fill-opacity: 0.8; stroke: #4c72b0; stroke-opacity: 0.8; stroke-width: 2.25"/>
     <use xlink:href="#m9eedec8f5e" x="398.487273" y="284.544423" style="fill: #4c72b0; fill-opacity: 0.8; stroke: #4c72b0; stroke-opacity: 0.8; stroke-width: 2.25"/>
     <use xlink:href="#m9eedec8f5e" x="398.487273" y="284.687935" style="fill: #4c72b0; fill-opacity: 0.8; stroke: #4c72b0; stroke-opacity: 0.8; stroke-width: 2.25"/>
     <use xlink:href="#m9eedec8f5e" x="398.487273" y="284.83301" style="fill: #4c72b0; fill-opacity: 0.8; stroke: #4c72b0; stroke-opacity: 0.8; stroke-width: 2.25"/>
     <use xlink:href="#m9eedec8f5e" x="398.487273" y="284.888663" style="fill: #4c72b0; fill-opacity: 0.8; stroke: #4c72b0; stroke-opacity: 0.8; stroke-width: 2.25"/>
     <use xlink:href="#m9eedec8f5e" x="398.487273" y="285.009163" style="fill: #4c72b0; fill-opacity: 0.8; stroke: #4c72b0; stroke-opacity: 0.8; stroke-width: 2.25"/>
     <use xlink:href="#m9eedec8f5e" x="398.487273" y="285.140794" style="fill: #4c72b0; fill-opacity: 0.8; stroke: #4c72b0; stroke-opacity: 0.8; stroke-width: 2.25"/>
     <use xlink:href="#m9eedec8f5e" x="398.487273" y="285.211705" style="fill: #4c72b0; fill-opacity: 0.8; stroke: #4c72b0; stroke-opacity: 0.8; stroke-width: 2.25"/>
     <use xlink:href="#m9eedec8f5e" x="398.487273" y="285.20689" style="fill: #4c72b0; fill-opacity: 0.8; stroke: #4c72b0; stroke-opacity: 0.8; stroke-width: 2.25"/>
     <use xlink:href="#m9eedec8f5e" x="398.487273" y="285.276364" style="fill: #4c72b0; fill-opacity: 0.8; stroke: #4c72b0; stroke-opacity: 0.8; stroke-width: 2.25"/>
     <use xlink:href="#m9eedec8f5e" x="398.487273" y="285.360532" style="fill: #4c72b0; fill-opacity: 0.8; stroke: #4c72b0; stroke-opacity: 0.8; stroke-width: 2.25"/>
    </g>
   </g>
   <g id="PolyCollection_1">
    <defs>
     <path id="m794547b7cf" d="M 73.832727 -274.513762 
L 73.832727 -273.245669 
L 77.112066 -271.116961 
L 80.391405 -268.988019 
L 83.670744 -266.864841 
L 86.950083 -264.747054 
L 90.229421 -262.630051 
L 93.50876 -260.513123 
L 96.788099 -258.396325 
L 100.067438 -256.277375 
L 103.346777 -254.157109 
L 106.626116 -252.033915 
L 109.905455 -249.911506 
L 113.184793 -247.787097 
L 116.464132 -245.663019 
L 119.743471 -243.540378 
L 123.02281 -241.417068 
L 126.302149 -239.295542 
L 129.581488 -237.171254 
L 132.860826 -235.047087 
L 136.140165 -232.923715 
L 139.419504 -230.800348 
L 142.698843 -228.674013 
L 145.978182 -226.548836 
L 149.257521 -224.420773 
L 152.53686 -222.29408 
L 155.816198 -220.164231 
L 159.095537 -218.036725 
L 162.374876 -215.910445 
L 165.654215 -213.785796 
L 168.933554 -211.660312 
L 172.212893 -209.532259 
L 175.492231 -207.402269 
L 178.77157 -205.276924 
L 182.050909 -203.151697 
L 185.330248 -201.026353 
L 188.609587 -198.895108 
L 191.888926 -196.762075 
L 195.168264 -194.626637 
L 198.447603 -192.497485 
L 201.726942 -190.366504 
L 205.006281 -188.234218 
L 208.28562 -186.102081 
L 211.564959 -183.966915 
L 214.844298 -181.835479 
L 218.123636 -179.705262 
L 221.402975 -177.566239 
L 224.682314 -175.430042 
L 227.961653 -173.297001 
L 231.240992 -171.159696 
L 234.520331 -169.024572 
L 237.799669 -166.890374 
L 241.079008 -164.754238 
L 244.358347 -162.619089 
L 247.637686 -160.483521 
L 250.917025 -158.348792 
L 254.196364 -156.213432 
L 257.475702 -154.077313 
L 260.755041 -151.943103 
L 264.03438 -149.802975 
L 267.313719 -147.662768 
L 270.593058 -145.524675 
L 273.872397 -143.389274 
L 277.151736 -141.252931 
L 280.431074 -139.113293 
L 283.710413 -136.98021 
L 286.989752 -134.843773 
L 290.269091 -132.707611 
L 293.54843 -130.57145 
L 296.827769 -128.429106 
L 300.107107 -126.286355 
L 303.386446 -124.143868 
L 306.665785 -122.006507 
L 309.945124 -119.861294 
L 313.224463 -117.715869 
L 316.503802 -115.573082 
L 319.78314 -113.430329 
L 323.062479 -111.287782 
L 326.341818 -109.146522 
L 329.621157 -107.009514 
L 332.900496 -104.867823 
L 336.179835 -102.730256 
L 339.459174 -100.591727 
L 342.738512 -98.452412 
L 346.017851 -96.315294 
L 349.29719 -94.177879 
L 352.576529 -92.039707 
L 355.855868 -89.901534 
L 359.135207 -87.761673 
L 362.414545 -85.615535 
L 365.693884 -83.469397 
L 368.973223 -81.324822 
L 372.252562 -79.183323 
L 375.531901 -77.041902 
L 378.81124 -74.900688 
L 382.090579 -72.760837 
L 385.369917 -70.617449 
L 388.649256 -68.475816 
L 391.928595 -66.332097 
L 395.207934 -64.187486 
L 398.487273 -62.042954 
L 398.487273 -63.619772 
L 398.487273 -63.619772 
L 395.207934 -65.738805 
L 391.928595 -67.858539 
L 388.649256 -69.97908 
L 385.369917 -72.099621 
L 382.090579 -74.220102 
L 378.81124 -76.33716 
L 375.531901 -78.454252 
L 372.252562 -80.577108 
L 368.973223 -82.699964 
L 365.693884 -84.822088 
L 362.414545 -86.940047 
L 359.135207 -89.057993 
L 355.855868 -91.17627 
L 352.576529 -93.296696 
L 349.29719 -95.417123 
L 346.017851 -97.539475 
L 342.738512 -99.661828 
L 339.459174 -101.784138 
L 336.179835 -103.905254 
L 332.900496 -106.024144 
L 329.621157 -108.143009 
L 326.341818 -110.261764 
L 323.062479 -112.380489 
L 319.78314 -114.499258 
L 316.503802 -116.618099 
L 313.224463 -118.738642 
L 309.945124 -120.861191 
L 306.665785 -122.982398 
L 303.386446 -125.102874 
L 300.107107 -127.22335 
L 296.827769 -129.345425 
L 293.54843 -131.464096 
L 290.269091 -133.579774 
L 286.989752 -135.701541 
L 283.710413 -137.819151 
L 280.431074 -139.933026 
L 277.151736 -142.062042 
L 273.872397 -144.186926 
L 270.593058 -146.308049 
L 267.313719 -148.427784 
L 264.03438 -150.55568 
L 260.755041 -152.669287 
L 257.475702 -154.78903 
L 254.196364 -156.911592 
L 250.917025 -159.032472 
L 247.637686 -161.163228 
L 244.358347 -163.279645 
L 241.079008 -165.410615 
L 237.799669 -167.537663 
L 234.520331 -169.667192 
L 231.240992 -171.798176 
L 227.961653 -173.926282 
L 224.682314 -176.055304 
L 221.402975 -178.180308 
L 218.123636 -180.307443 
L 214.844298 -182.441203 
L 211.564959 -184.579361 
L 208.28562 -186.713967 
L 205.006281 -188.846335 
L 201.726942 -190.982389 
L 198.447603 -193.126182 
L 195.168264 -195.268645 
L 191.888926 -197.401052 
L 188.609587 -199.531046 
L 185.330248 -201.66328 
L 182.050909 -203.805225 
L 178.77157 -205.938595 
L 175.492231 -208.077661 
L 172.212893 -210.220212 
L 168.933554 -212.361387 
L 165.654215 -214.501443 
L 162.374876 -216.644718 
L 159.095537 -218.786019 
L 155.816198 -220.92177 
L 152.53686 -223.067572 
L 149.257521 -225.210467 
L 145.978182 -227.352995 
L 142.698843 -229.498859 
L 139.419504 -231.644633 
L 136.140165 -233.783203 
L 132.860826 -235.920626 
L 129.581488 -238.063648 
L 126.302149 -240.212542 
L 123.02281 -242.361435 
L 119.743471 -244.504631 
L 116.464132 -246.646654 
L 113.184793 -248.788677 
L 109.905455 -250.930741 
L 106.626116 -253.072907 
L 103.346777 -255.215074 
L 100.067438 -257.35724 
L 96.788099 -259.499406 
L 93.50876 -261.641573 
L 90.229421 -263.783739 
L 86.950083 -265.929687 
L 83.670744 -268.075706 
L 80.391405 -270.221725 
L 77.112066 -272.367743 
L 73.832727 -274.513762 
z
" style="stroke: #ffffff; stroke-opacity: 0.15; stroke-width: 1.5"/>
    </defs>
    <g clip-path="url(#p5eeb40be41)">
     <use xlink:href="#m794547b7cf" x="0" y="345.6" style="fill: #4c72b0; fill-opacity: 0.15; stroke: #ffffff; stroke-opacity: 0.15; stroke-width: 1.5"/>
    </g>
   </g>
   <g id="line2d_16">
    <path d="M 73.832727 71.798041 
L 77.112066 73.929933 
L 80.391405 76.061825 
L 83.670744 78.193717 
L 86.950083 80.325609 
L 90.229421 82.457501 
L 93.50876 84.589393 
L 96.788099 86.721285 
L 100.067438 88.853177 
L 103.346777 90.985069 
L 106.626116 93.116961 
L 109.905455 95.248853 
L 113.184793 97.380745 
L 116.464132 99.512637 
L 119.743471 101.644529 
L 123.02281 103.776421 
L 126.302149 105.908313 
L 129.581488 108.040205 
L 132.860826 110.172097 
L 136.140165 112.303989 
L 139.419504 114.435881 
L 142.698843 116.567773 
L 145.978182 118.699665 
L 149.257521 120.831557 
L 152.53686 122.963449 
L 155.816198 125.095341 
L 159.095537 127.227232 
L 162.374876 129.359124 
L 165.654215 131.491016 
L 168.933554 133.622908 
L 172.212893 135.7548 
L 175.492231 137.886692 
L 178.77157 140.018584 
L 182.050909 142.150476 
L 185.330248 144.282368 
L 188.609587 146.41426 
L 191.888926 148.546152 
L 195.168264 150.678044 
L 198.447603 152.809936 
L 201.726942 154.941828 
L 205.006281 157.07372 
L 208.28562 159.205612 
L 211.564959 161.337504 
L 214.844298 163.469396 
L 218.123636 165.601288 
L 221.402975 167.73318 
L 224.682314 169.865072 
L 227.961653 171.996964 
L 231.240992 174.128856 
L 234.520331 176.260748 
L 237.799669 178.39264 
L 241.079008 180.524532 
L 244.358347 182.656424 
L 247.637686 184.788316 
L 250.917025 186.920208 
L 254.196364 189.0521 
L 257.475702 191.183992 
L 260.755041 193.315884 
L 264.03438 195.447776 
L 267.313719 197.579668 
L 270.593058 199.71156 
L 273.872397 201.843452 
L 277.151736 203.975344 
L 280.431074 206.107236 
L 283.710413 208.239128 
L 286.989752 210.37102 
L 290.269091 212.502912 
L 293.54843 214.634804 
L 296.827769 216.766696 
L 300.107107 218.898588 
L 303.386446 221.03048 
L 306.665785 223.162372 
L 309.945124 225.294264 
L 313.224463 227.426156 
L 316.503802 229.558048 
L 319.78314 231.68994 
L 323.062479 233.821832 
L 326.341818 235.953724 
L 329.621157 238.085616 
L 332.900496 240.217508 
L 336.179835 242.3494 
L 339.459174 244.481292 
L 342.738512 246.613184 
L 346.017851 248.745076 
L 349.29719 250.876967 
L 352.576529 253.008859 
L 355.855868 255.140751 
L 359.135207 257.272643 
L 362.414545 259.404535 
L 365.693884 261.536427 
L 368.973223 263.668319 
L 372.252562 265.800211 
L 375.531901 267.932103 
L 378.81124 270.063995 
L 382.090579 272.195887 
L 385.369917 274.327779 
L 388.649256 276.459671 
L 391.928595 278.591563 
L 395.207934 280.723455 
L 398.487273 282.855347 
" clip-path="url(#p5eeb40be41)" style="fill: none; stroke: #4c72b0; stroke-width: 3.375; stroke-linecap: round"/>
   </g>
   <g id="patch_3">
    <path d="M 57.6 307.584 
L 57.6 41.472 
" style="fill: none; stroke: #262626; stroke-width: 1.875; stroke-linejoin: miter; stroke-linecap: square"/>
   </g>
   <g id="patch_4">
    <path d="M 57.6 307.584 
L 414.72 307.584 
" style="fill: none; stroke: #262626; stroke-width: 1.875; stroke-linejoin: miter; stroke-linecap: square"/>
   </g>
   <g id="text_18">
    <!-- Coef -0.0001850600679 intercept 0.1775408421 -->
    <g style="fill: #262626" transform="translate(42.014531 35.472)scale(0.18 -0.18)">
     <defs>
      <path id="ArialMT-43" d="M 3763 1606 
L 4369 1453 
Q 4178 706 3683 314 
Q 3188 -78 2472 -78 
Q 1731 -78 1267 223 
Q 803 525 561 1097 
Q 319 1669 319 2325 
Q 319 3041 592 3573 
Q 866 4106 1370 4382 
Q 1875 4659 2481 4659 
Q 3169 4659 3637 4309 
Q 4106 3959 4291 3325 
L 3694 3184 
Q 3534 3684 3231 3912 
Q 2928 4141 2469 4141 
Q 1941 4141 1586 3887 
Q 1231 3634 1087 3207 
Q 944 2781 944 2328 
Q 944 1744 1114 1308 
Q 1284 872 1643 656 
Q 2003 441 2422 441 
Q 2931 441 3284 734 
Q 3638 1028 3763 1606 
z
" transform="scale(0.015625)"/>
      <path id="ArialMT-66" d="M 556 0 
L 556 2881 
L 59 2881 
L 59 3319 
L 556 3319 
L 556 3672 
Q 556 4006 616 4169 
Q 697 4388 901 4523 
Q 1106 4659 1475 4659 
Q 1713 4659 2000 4603 
L 1916 4113 
Q 1741 4144 1584 4144 
Q 1328 4144 1222 4034 
Q 1116 3925 1116 3625 
L 1116 3319 
L 1763 3319 
L 1763 2881 
L 1116 2881 
L 1116 0 
L 556 0 
z
" transform="scale(0.015625)"/>
      <path id="ArialMT-20" transform="scale(0.015625)"/>
      <path id="ArialMT-2d" d="M 203 1375 
L 203 1941 
L 1931 1941 
L 1931 1375 
L 203 1375 
z
" transform="scale(0.015625)"/>
      <path id="ArialMT-72" d="M 416 0 
L 416 3319 
L 922 3319 
L 922 2816 
Q 1116 3169 1280 3281 
Q 1444 3394 1641 3394 
Q 1925 3394 2219 3213 
L 2025 2691 
Q 1819 2813 1613 2813 
Q 1428 2813 1281 2702 
Q 1134 2591 1072 2394 
Q 978 2094 978 1738 
L 978 0 
L 416 0 
z
" transform="scale(0.015625)"/>
      <path id="ArialMT-70" d="M 422 -1272 
L 422 3319 
L 934 3319 
L 934 2888 
Q 1116 3141 1344 3267 
Q 1572 3394 1897 3394 
Q 2322 3394 2647 3175 
Q 2972 2956 3137 2557 
Q 3303 2159 3303 1684 
Q 3303 1175 3120 767 
Q 2938 359 2589 142 
Q 2241 -75 1856 -75 
Q 1575 -75 1351 44 
Q 1128 163 984 344 
L 984 -1272 
L 422 -1272 
z
M 931 1641 
Q 931 1000 1190 694 
Q 1450 388 1819 388 
Q 2194 388 2461 705 
Q 2728 1022 2728 1688 
Q 2728 2322 2467 2637 
Q 2206 2953 1844 2953 
Q 1484 2953 1207 2617 
Q 931 2281 931 1641 
z
" transform="scale(0.015625)"/>
     </defs>
     <use xlink:href="#ArialMT-43"/>
     <use xlink:href="#ArialMT-6f" x="72.216797"/>
     <use xlink:href="#ArialMT-65" x="127.832031"/>
     <use xlink:href="#ArialMT-66" x="183.447266"/>
     <use xlink:href="#ArialMT-20" x="211.230469"/>
     <use xlink:href="#ArialMT-2d" x="239.013672"/>
     <use xlink:href="#ArialMT-30" x="272.314453"/>
     <use xlink:href="#ArialMT-2e" x="327.929688"/>
     <use xlink:href="#ArialMT-30" x="355.712891"/>
     <use xlink:href="#ArialMT-30" x="411.328125"/>
     <use xlink:href="#ArialMT-30" x="466.943359"/>
     <use xlink:href="#ArialMT-31" x="522.558594"/>
     <use xlink:href="#ArialMT-38" x="578.173828"/>
     <use xlink:href="#ArialMT-35" x="633.789062"/>
     <use xlink:href="#ArialMT-30" x="689.404297"/>
     <use xlink:href="#ArialMT-36" x="745.019531"/>
     <use xlink:href="#ArialMT-30" x="800.634766"/>
     <use xlink:href="#ArialMT-30" x="856.25"/>
     <use xlink:href="#ArialMT-36" x="911.865234"/>
     <use xlink:href="#ArialMT-37" x="967.480469"/>
     <use xlink:href="#ArialMT-39" x="1023.095703"/>
     <use xlink:href="#ArialMT-20" x="1078.710938"/>
     <use xlink:href="#ArialMT-69" x="1106.494141"/>
     <use xlink:href="#ArialMT-6e" x="1128.710938"/>
     <use xlink:href="#ArialMT-74" x="1184.326172"/>
     <use xlink:href="#ArialMT-65" x="1212.109375"/>
     <use xlink:href="#ArialMT-72" x="1267.724609"/>
     <use xlink:href="#ArialMT-63" x="1301.025391"/>
     <use xlink:href="#ArialMT-65" x="1351.025391"/>
     <use xlink:href="#ArialMT-70" x="1406.640625"/>
     <use xlink:href="#ArialMT-74" x="1462.255859"/>
     <use xlink:href="#ArialMT-20" x="1490.039062"/>
     <use xlink:href="#ArialMT-30" x="1517.822266"/>
     <use xlink:href="#ArialMT-2e" x="1573.4375"/>
     <use xlink:href="#ArialMT-31" x="1601.220703"/>
     <use xlink:href="#ArialMT-37" x="1656.835938"/>
     <use xlink:href="#ArialMT-37" x="1712.451172"/>
     <use xlink:href="#ArialMT-35" x="1768.066406"/>
     <use xlink:href="#ArialMT-34" x="1823.681641"/>
     <use xlink:href="#ArialMT-30" x="1879.296875"/>
     <use xlink:href="#ArialMT-38" x="1934.912109"/>
     <use xlink:href="#ArialMT-34" x="1990.527344"/>
     <use xlink:href="#ArialMT-32" x="2046.142578"/>
     <use xlink:href="#ArialMT-31" x="2101.757812"/>
    </g>
   </g>
  </g>
 </g>
 <defs>
  <clipPath id="p5eeb40be41">
   <rect x="57.6" y="41.472" width="357.12" height="266.112"/>
  </clipPath>
 </defs>
</svg>
